<svg width="969px" height="490px" xmlns="http://www.w3.org/2000/svg"><g id="Page-1" fill="none" fill-rule="evenodd" opacity="0.85"><g id="Artboard-3" transform="translate(-245 -275)" fill="#EBEBEB"><g id="Beltline" transform="translate(1 -2)"><g id="Beltline-(white-box)" transform="translate(244 277)"><g id="Box-1"><path d="M0 0h969v490H0V0zm533 395.857h40.084c14.063 0 21.482-8.858 21.482-19.931 0-9.302-6.311-16.942-14.173-18.16 6.976-1.44 12.734-7.64 12.734-16.942 0-9.855-7.198-18.824-21.26-18.824H533v73.857zm74.326 0h52.264v-13.62h-36.54v-17.163h35.765v-13.509H623.05V335.51h36.541V322h-52.264v73.857zm65.467 0h46.95v-13.841h-31.227V322h-15.723v73.857zm64.802 0h15.835v-60.016h21.482V322h-58.91v13.841h21.593v60.016zM533 489.977h50.162v-13.841H549.8V416.12H533v73.857zm62.57 0h16.8V416.12h-16.8v73.857zm87.94 0h16.209V416.12h-16.8v47.835l-36.556-47.835H629.09v73.857h16.8V440.37l37.62 49.607zm32.73 0h55.842v-13.62H733.04v-17.163h38.213v-13.51H733.04V429.63h39.042v-13.51H716.24v73.858zM548.725 351.676v-16.278h19.71c5.315 0 8.637 3.544 8.637 8.084 0 4.761-3.322 8.194-8.637 8.194h-19.71zm0 30.783v-17.385h20.263c6.201 0 9.523 3.987 9.523 8.637 0 5.315-3.543 8.748-9.523 8.748h-20.263z" id="Combined-Shape"/></g></g></g></g></g></svg>