<svg width="59px" height="52px" xmlns="http://www.w3.org/2000/svg"><g id="Page-1" fill="none" fill-rule="evenodd"><g id="Artboard-1" transform="translate(-592 -298)" fill="#000"><g id="SECTION-4" transform="translate(-38 -35)"><g id="Old-4-ward" transform="translate(254 294)"><g id="Box-1"><path d="M432.21 39.8v7.227c-2.278 1.237-3.987 3.467-5.126 6.69-1.14 3.222-1.709 7.47-1.709 12.744v2.246h9.277v21.68h-21.68V74.176c0-9.831 1.596-17.61 4.786-23.34 3.19-5.73 8.008-9.408 14.453-11.035zm-36.132 0v7.227c-2.279 1.237-3.987 3.467-5.127 6.69-1.14 3.222-1.709 7.47-1.709 12.744v2.246h9.278v21.68h-21.68V74.176c0-9.831 1.595-17.61 4.785-23.34 3.19-5.73 8.008-9.408 14.453-11.035z" id="“"/></g></g></g></g></g></svg>