<svg height="153" viewBox="0 0 584 153" width="584" xmlns="http://www.w3.org/2000/svg" xmlns:xlink="http://www.w3.org/1999/xlink"><defs><path id="a" d="m0 0h584v153h-584z"/><mask id="b" fill="#fff"><use fill="none" xlink:href="#a"/></mask></defs><g fill="none" fill-rule="evenodd"><use fill="#d8d8d8" fill-rule="nonzero" opacity="0" xlink:href="#a"/><g mask="url(#b)"><g transform="translate(-366 -337)"><path d="m552 369.5c0-9.417808-6.123457-16.5-15.538272-16.5-9.414814 0-15.461728 7.082192-15.461728 16.5 0 9.342466 6.046914 16.5 15.461728 16.5 9.414815 0 15.538272-7.157534 15.538272-16.5zm71 15.5h9.166667c10 0 15.833333-7.290168 15.833333-15.961631 0-9.055156-5.454545-16.038369-15.833333-16.038369h-9.166667zm84-32-13 21h13zm-65.945701 77-12.054299 33h24zm88.945701 10c0-6.086957-4.835341-10-11.24498-10h-16.75502v20h16.75502c6.409639 0 11.24498-3.913043 11.24498-10zm43 36h13.2c14.4 0 22.8-10.479616 22.8-22.944844 0-13.016787-7.854545-23.055156-22.8-23.055156h-13.2z" fill="#d8d8d8" stroke="#979797"/><path d="m757 490h-12l-16.388889-27.7991c7.866667-1.86057 15.951852-8.755623 15.951852-21.670165 0-13.571215-9.287037-23.530735-24.474074-23.530735h-34.088889v73h-7l-27.813853-73h-19.264069l-27.922078 73h-15.949782l20.949782-73h-17.641921l-12.790393 52.752624-13.893014-52.752624h-12.239082l-14.003276 52.752624-12.900655-52.752624h-17.531659l21.060044 73h-529.060044v-490h978v490h-192.014587c23.034036 0 39.014587-14.446777 39.014587-36.445277 0-21.998501-15.980551-36.554723-39.014587-36.554723h-28.985413zm-29.809259 0h-25.675926v-26.157421h11.362963zm-106.307624 0 4.545454-12.586207h32.251083l4.545454 12.586207zm-49.482462 0h-25.691048l12.790393-50.125937zm-60.400655-120.5c0 15.43913 11.388809 26.5 26.961263 26.5 15.649928 0 27.038737-11.06087 27.038737-26.5s-11.388809-26.5-27.038737-26.5c-15.572454 0-26.961263 11.06087-26.961263 26.5zm60 25.5h33v-9.557721h-21.948113v-41.442279h-11.051887zm41 0h20.034036c15.920583 0 26.965964-10.092954 26.965964-25.461769 0-15.368816-11.045381-25.538231-26.965964-25.538231h-20.034036zm95.493601 0h10.903108v-10.551724h6.603291v-9.557721h-6.603291v-30.890555h-15.04936l-20.347349 31.884558v8.563718h24.493601zm36.168053 0h10.75188v-41.442279h14.586466v-9.557721h-40v9.557721h14.661654zm68.375013 0h10.963333v-51h-10.963333v20.032984h-24.15v-20.032984h-10.886667v51h10.886667v-21.409295h24.15z" fill="#ebebeb" opacity=".85"/></g></g></g></svg>