<svg width="273px" height="266px" xmlns="http://www.w3.org/2000/svg" xmlns:xlink="http://www.w3.org/1999/xlink"><defs><path d="M136.988.46c-75.11 0-136 60.89-136 136 0 75.112 60.89 136 136 136s136-60.888 136-136c0-75.11-60.89-136-136-136z" id="path-1"/><path d="M136.988.46c-75.11 0-136 60.89-136 136 0 75.112 60.89 136 136 136s136-60.888 136-136c0-75.11-60.89-136-136-136z" id="path-3"/><path d="M136.988.46c-75.11 0-136 60.89-136 136 0 75.112 60.89 136 136 136s136-60.888 136-136c0-75.11-60.89-136-136-136z" id="path-5"/><path d="M136.988.46c-75.11 0-136 60.89-136 136 0 75.112 60.89 136 136 136s136-60.888 136-136c0-75.11-60.89-136-136-136z" id="path-7"/><path d="M136.988.46c-75.11 0-136 60.89-136 136 0 75.112 60.89 136 136 136s136-60.888 136-136c0-75.11-60.89-136-136-136z" id="path-9"/><path d="M136.988.46c-75.11 0-136 60.89-136 136 0 75.112 60.89 136 136 136s136-60.888 136-136c0-75.11-60.89-136-136-136z" id="path-11"/><path d="M136.988.46c-75.11 0-136 60.89-136 136 0 75.112 60.89 136 136 136s136-60.888 136-136c0-75.11-60.89-136-136-136z" id="path-13"/><path d="M136.988.46c-75.11 0-136 60.89-136 136 0 75.112 60.89 136 136 136s136-60.888 136-136c0-75.11-60.89-136-136-136z" id="path-15"/><path d="M136.988.46c-75.11 0-136 60.89-136 136 0 75.112 60.89 136 136 136s136-60.888 136-136" id="path-17"/><path d="M136.988.46c-75.11 0-136 60.89-136 136 0 75.112 60.89 136 136 136s136-60.888 136-136c0-75.11-60.89-136-136-136z" id="path-19"/><path d="M136.988.46c-75.11 0-136 60.89-136 136 0 75.112 60.89 136 136 136s136-60.888 136-136" id="path-21"/><path d="M136.988.46c-75.11 0-136 60.89-136 136 0 75.112 60.89 136 136 136s136-60.888 136-136" id="path-23"/><path d="M136.988.46c-75.11 0-136 60.89-136 136 0 75.112 60.89 136 136 136s136-60.888 136-136" id="path-25"/><path d="M136.988.46c-75.11 0-136 60.89-136 136 0 75.112 60.89 136 136 136s136-60.888 136-136" id="path-27"/><path d="M136.988.46c-75.11 0-136 60.89-136 136 0 75.112 60.89 136 136 136s136-60.888 136-136" id="path-29"/><path d="M136.988.46c-75.11 0-136 60.89-136 136 0 75.112 60.89 136 136 136s136-60.888 136-136" id="path-31"/><path d="M136.988.46c-75.11 0-136 60.89-136 136 0 75.112 60.89 136 136 136s136-60.888 136-136" id="path-33"/><path d="M136.988.46c-75.11 0-136 60.89-136 136 0 75.112 60.89 136 136 136s136-60.888 136-136" id="path-35"/><path d="M136.988.46c-75.11 0-136 60.89-136 136 0 75.112 60.89 136 136 136s136-60.888 136-136" id="path-37"/><path d="M136.988.46c-75.11 0-136 60.89-136 136 0 75.112 60.89 136 136 136s136-60.888 136-136" id="path-39"/><path d="M136.988.46c-75.11 0-136 60.89-136 136 0 75.112 60.89 136 136 136s136-60.888 136-136" id="path-41"/><path d="M136.988.46c-75.11 0-136 60.89-136 136 0 75.112 60.89 136 136 136s136-60.888 136-136" id="path-43"/><path d="M136.988.46c-75.11 0-136 60.89-136 136 0 75.112 60.89 136 136 136s136-60.888 136-136c0-75.11-60.89-136-136-136z" id="path-45"/><path d="M136.988.46c-75.11 0-136 60.89-136 136 0 75.112 60.89 136 136 136s136-60.888 136-136" id="path-47"/><path d="M136.988.46c-75.11 0-136 60.89-136 136 0 75.112 60.89 136 136 136s136-60.888 136-136c0-75.11-60.89-136-136-136z" id="path-49"/><path d="M136.988.46c-75.11 0-136 60.89-136 136 0 75.112 60.89 136 136 136s136-60.888 136-136c0-75.11-60.89-136-136-136z" id="path-51"/><path d="M136.988.46c-75.11 0-136 60.89-136 136 0 75.112 60.89 136 136 136s136-60.888 136-136c0-75.11-60.89-136-136-136z" id="path-53"/><path d="M136.988.46c-75.11 0-136 60.89-136 136 0 75.112 60.89 136 136 136s136-60.888 136-136" id="path-55"/><path d="M136.988.46c-75.11 0-136 60.89-136 136 0 75.112 60.89 136 136 136s136-60.888 136-136" id="path-57"/><path d="M136.988.46c-75.11 0-136 60.89-136 136 0 75.112 60.89 136 136 136s136-60.888 136-136" id="path-59"/><path d="M136.988.46c-75.11 0-136 60.89-136 136 0 75.112 60.89 136 136 136s136-60.888 136-136" id="path-61"/><path d="M136.988.46c-75.11 0-136 60.89-136 136 0 75.112 60.89 136 136 136s136-60.888 136-136" id="path-63"/></defs><g id="Page-1" fill="none" fill-rule="evenodd"><g id="Desktop-HD" transform="translate(-582 -3425)"><g id="SECTION-2" transform="translate(139 2565)"><g id="icons/insightful" transform="translate(388 853)"><g id="insightful" transform="translate(55)"><g id="Group-100"><g id="Group-5"><mask id="mask-2" fill="#fff"><use xlink:href="#path-1"/></mask><path id="Fill-3" fill="#E46E7D" mask="url(#mask-2)" d="M221.382 117.033l26.929-22.87 14.257 11.434 25.862-21.37v61.192h-69.87z"/></g><g id="Group-8"><mask id="mask-4" fill="#fff"><use xlink:href="#path-3"/></mask><path id="Fill-6" fill="#F79D4C" mask="url(#mask-4)" d="M248.31 94.162l9.815 15.13 4.442-3.694z"/></g><g id="Group-11"><mask id="mask-6" fill="#fff"><use xlink:href="#path-5"/></mask><path id="Fill-9" fill="#E46E7D" mask="url(#mask-6)" d="M39.02 74.313l84.288 77.229H-3.455v-37.737z"/></g><g id="Group-14"><mask id="mask-8" fill="#fff"><use xlink:href="#path-7"/></mask><path id="Fill-12" fill="#F79D61" mask="url(#mask-8)" d="M39.02 74.313l7.753 19.85h-5.867l14.971 16.269 13.64-8.177z"/></g><g id="Group-17"><mask id="mask-10" fill="#fff"><use xlink:href="#path-9"/></mask><path d="M-3.455 136.983s24.904-3.324 85.741-42.82h10.946l3.648-5.785 51.81-29.035 139.74 74.481v56.591H-3.456v-53.432z" id="Fill-15" fill="#E46E7D" mask="url(#mask-10)"/></g><g id="Group-20"><mask id="mask-12" fill="#fff"><use xlink:href="#path-11"/></mask><path id="Fill-18" fill="#F79D61" mask="url(#mask-12)" d="M148.69 59.344l40.563 38.117-30.309-5.797 59.166 39.55 70.32 2.61z"/></g><g id="Group-23"><mask id="mask-14" fill="#fff"><use xlink:href="#path-13"/></mask><path id="Fill-21" fill="#F79D61" mask="url(#mask-14)" d="M93.232 94.162l-13.622 15.13 8.514-15.13z"/></g><g id="Group-26"><mask id="mask-16" fill="#fff"><use xlink:href="#path-15"/></mask><path d="M23.668 151.33c.093-.014.185-.034.273-.069.538-.214.98-.745 1.403-1.262-.038.454-.12.9-.23 1.33h-1.446zm3.908-2.285c.623-.652 1.392.462 1.796 1.397.135.315.329.633.545.887h-1.39c-.497-.608-.921-1.38-.951-2.284zm20.129 9.013l.11-.134c-.005.068-.016.135-.023.204l-.087-.07zm42.403 5.198c.623-.65 1.392.462 1.796 1.398.2.463.525.937.864 1.197h-1.435c-.608-.644-1.19-1.528-1.225-2.595zm42.08-4.959c.293-.493.526-1.198.964-1.253.058.434.02.851-.077 1.253h-.886zm2.796-1.253c.043-.009.085.024.12.06.299.313.415.795.603 1.193h-.675a12.688 12.688 0 0 1-.143-.897c-.016-.14-.004-.336.095-.356zm62.607-4.945c.043-.009.085.024.12.06.144.15.243.342.33.543l-.528-.143c-.004-.035-.013-.069-.017-.104-.016-.14-.005-.336.095-.356zm-201.046-.77v82.228H288.43v-75.26h-69.568l-18.782-5.047c.024-.087.038-.18.042-.28.023-.614-.332-1.103-.635-1.54-.706-1.025-1.266-2.247-1.648-3.573a14.86 14.86 0 0 1-.431-2.01c-.03-.207-.19-.902-.115-1.082.206-.507.77.777.872.922.199.29.503.5.769.351.193-.109.32-.394.345-.686a1.887 1.887 0 0 0-.142-.845c-.142-.352-.352-.637-.56-.917-.388-.527-.745-.95-.97-1.647a6.04 6.04 0 0 1-.287-2.142.276.276 0 0 1 .02-.112c.038-.077.122-.057.18-.013.229.172.334.547.43.887.148.524.39.995.822.956.317-.028.664-.302.688-.795.014-.257-.061-.506-.146-.735-.415-1.112-1.104-1.963-1.63-2.976-.323-.622-.586-1.348-.664-2.12-.024-.232-.147-.829-.008-1.024.054-.077.144-.08.215-.038.07.042.125.122.178.2.405.587.834 1.237 1.463.942a.302.302 0 0 0 .163-.156.514.514 0 0 0 .03-.177c.032-.766-.332-1.185-.63-1.739-.543-1.014-.648-2.639-.87-3.847-.28-1.51-.502-3.044-.748-4.565-.048-.29-.11-.609-.285-.774-.588-.55-.562 1.422-.596 1.788a42.214 42.214 0 0 1-.331 2.722c-.288 1.807-.757 3.553-1.501 5.085-.324.665-.585 1.82-.043 2.066.773.351 1.359-2.208 1.944-1.41-.075.915-.44 1.572-.771 2.325-.29.662-.515 1.34-.854 1.978-.304.573-.593 1.224-.584 1.941.003.226.047.474.177.607a.42.42 0 0 0 .283.115c.39.026.787-.209 1.048-.624.112-.178.2-.387.325-.549.125-.162.303-.273.463-.197.663.32-.218 2.661-.436 3.045-.2.353-.408.697-.625 1.03-.294.451-.603.886-.846 1.395-.242.51-.416 1.108-.4 1.721.013.393.13.823.386.98.192.117.422.048.6-.11.177-.157.312-.395.436-.634.16-.31.31-.632.448-.963.087-.209.343-.67.507-.313.07.152-.081.774-.111.952-.116.683-.396 1.27-.697 1.814-.544.98-1.256 1.9-1.6 3.07l-.818-.22h-38.128l-9.12 6.968h-8.25c.043-.115.075-.239.08-.383.024-.612-.331-1.102-.634-1.54-.706-1.024-1.266-2.247-1.65-3.57a14.906 14.906 0 0 1-.43-2.013c-.028-.206-.188-.9-.114-1.08.206-.508.772.775.872.922.2.29.504.5.769.35.193-.109.32-.393.345-.686a1.876 1.876 0 0 0-.143-.845c-.141-.352-.351-.638-.557-.917-.39-.526-.747-.95-.971-1.647a6.018 6.018 0 0 1-.288-2.142c.002-.039.004-.079.02-.11.038-.078.122-.059.18-.015.229.172.334.547.43.888.148.523.39.995.822.956.317-.029.664-.303.689-.796.012-.257-.062-.507-.147-.735-.415-1.112-1.103-1.962-1.63-2.976-.323-.622-.587-1.348-.664-2.119-.024-.233-.147-.829-.008-1.026.054-.076.144-.08.214-.037.07.042.126.122.179.2.405.587.835 1.238 1.463.942a.298.298 0 0 0 .163-.156.539.539 0 0 0 .03-.177c.032-.766-.333-1.186-.63-1.738-.544-1.015-.647-2.64-.87-3.848-.28-1.51-.502-3.044-.75-4.565-.046-.29-.107-.609-.283-.774-.588-.55-.563 1.421-.597 1.788a42.329 42.329 0 0 1-.33 2.723c-.288 1.806-.757 3.553-1.502 5.085-.323.665-.585 1.818-.042 2.065.773.352 1.359-2.208 1.944-1.41-.075.915-.44 1.571-.77 2.325-.29.662-.516 1.34-.855 1.98-.304.571-.593 1.222-.583 1.938.003.228.045.476.176.61.08.081.183.105.283.112.39.027.787-.208 1.048-.623.113-.178.2-.388.325-.549.125-.162.303-.272.463-.196.664.318-.217 2.66-.436 3.044-.2.353-.408.697-.625 1.03-.294.451-.604.886-.846 1.395-.243.51-.417 1.108-.398 1.721.012.394.129.822.384.98.192.117.422.048.6-.11.177-.158.312-.395.436-.635.16-.309.31-.63.448-.962.087-.209.343-.67.508-.313.07.152-.082.775-.112.952-.117.683-.396 1.27-.698 1.815-.635 1.143-1.504 2.203-1.74 3.681-.062.387-.022.85.108 1.191h-27.181l-3.885 5.507c-.02-.067-.044-.13-.064-.197a14.86 14.86 0 0 1-.43-2.01c-.03-.206-.19-.9-.116-1.08.207-.509.773.775.873.92.199.29.503.5.769.351.193-.108.32-.394.345-.686a1.874 1.874 0 0 0-.143-.845c-.142-.352-.351-.637-.558-.917-.388-.527-.746-.95-.971-1.647a6.041 6.041 0 0 1-.288-2.142.318.318 0 0 1 .02-.112c.038-.077.123-.057.18-.013.23.172.335.548.43.887.148.524.39.995.823.956.317-.028.663-.302.688-.795.013-.257-.061-.506-.146-.735-.415-1.112-1.104-1.963-1.63-2.975-.323-.623-.587-1.349-.665-2.12-.023-.233-.146-.829-.007-1.025.054-.076.143-.08.214-.038a.68.68 0 0 1 .179.2c.404.587.834 1.238 1.463.942a.308.308 0 0 0 .163-.156.565.565 0 0 0 .03-.176c.032-.767-.333-1.186-.63-1.74-.544-1.014-.648-2.639-.87-3.847-.28-1.509-.503-3.044-.75-4.565-.046-.29-.108-.609-.283-.773-.588-.55-.563 1.421-.597 1.787a42.212 42.212 0 0 1-.33 2.722c-.288 1.807-.758 3.553-1.502 5.085-.323.665-.585 1.82-.043 2.066.774.351 1.359-2.208 1.945-1.41-.075.915-.44 1.572-.77 2.325-.29.663-.516 1.34-.855 1.978-.304.574-.593 1.224-.584 1.941.003.227.046.475.176.607a.422.422 0 0 0 .283.115c.392.026.788-.209 1.049-.624.112-.178.2-.387.325-.549.125-.162.302-.273.463-.197.663.32-.218 2.661-.436 3.045-.2.353-.408.697-.625 1.03-.294.451-.604.886-.847 1.395-.242.51-.416 1.108-.398 1.721.012.394.13.823.385.98.192.116.422.048.599-.109.178-.158.312-.396.437-.635.16-.309.31-.632.448-.963.087-.209.343-.67.507-.313.07.152-.081.774-.111.952-.117.683-.396 1.27-.698 1.815-.301.541-.652 1.065-.966 1.621h-2.876a.95.95 0 0 0 .08-.108c.174-.28.209-.686.184-1.059-.108-1.62-1.11-2.773-1.968-3.857-.796-1.007-1.34-1.737-1.513-3.329-.021-.192-.034-.4.028-.574.063-.174.229-.286.344-.18.186.48.406.933.656 1.35.15.253.317.498.53.631.214.133.484.13.66-.084.288-.349.193-.999.074-1.507-.133-.57-.27-1.148-.516-1.635-.201-.398-.467-.718-.72-1.05-.49-.648-.94-1.356-1.386-2.064-.157-.249-.321-.514-.368-.84-.137-.947.408-.724.709-.314.289.396.47.932.762 1.33.415.567 1.225.757 1.48.027.11-.318.07-.698.002-1.039-.546-2.733-2.64-4.482-2.848-7.35-.018-.247-.02-.547.128-.682.154-.143.367.011.474.223.226.447.947 2.292 1.468 1.143.075-.166.089-.374.086-.573-.022-1.442-.732-2.6-1.165-3.833-.185-.527-.955-2.395.022-2.443.593-.029.998 1.262 1.562 1 .453-.212.404-1.144.226-1.77-.352-1.244-.852-2.396-1.173-3.656-.247-.974-.383-1.999-.518-3.016-.355-2.677-.711-5.403-.485-8.107.026-.32.059-.658-.035-.95-.094-.294-.372-.49-.555-.3-.09.094-.133.252-.17.403-.97 3.94-.953 8.668-2.541 12.25-.216.488-.473.978-.51 1.552-.034.575.273 1.237.677 1.164.432-.077.457-.726.713-1.048.11-.14.307-.167.398 0a.627.627 0 0 1 .058.246c.036.461-.082.918-.216 1.341-.516 1.643-1.294 3.135-1.606 4.88-.07.383-.067.904.194 1.045.272.147.516-.268.679-.61.163-.342.487-.692.708-.425.089.108.12.281.138.444.235 2.317-1.22 3.955-1.957 5.75-.142.345-.288.71-.3 1.11-.014.472.22 1.052.552 1.2.476.214.482-.175.704-.702.1-.24.313-.45.489-.32.11.08.162.261.19.433.175 1.083-.25 2.18-.755 3.03-.505.851-1.117 1.608-1.437 2.622-.186.588-.263 1.235-.31 1.876-.021.298-.036.605.026.892.149.688.544.74.905.362a8.89 8.89 0 0 0 1.353-1.867c-.305 1.672-.925 3.226-1.78 4.458-.68.984-1.584 2.301-1.09 3.486.286.681.949.88 1.487.666.538-.215.98-.747 1.403-1.263a8.05 8.05 0 0 1-.316 1.641h-6.886c-.232-.328-.44-.665-.586-1.12a6.038 6.038 0 0 1-.287-2.142c.002-.038.004-.079.02-.112.037-.077.122-.057.18-.013.229.172.334.548.43.887.148.524.39.996.822.957.317-.029.664-.303.688-.795.013-.258-.061-.507-.146-.736-.415-1.112-1.104-1.963-1.63-2.975-.323-.622-.587-1.349-.664-2.12-.024-.233-.147-.829-.008-1.025.054-.076.144-.08.214-.038a.68.68 0 0 1 .179.2c.405.587.835 1.24 1.463.942a.302.302 0 0 0 .163-.156.537.537 0 0 0 .03-.176c.032-.767-.333-1.186-.63-1.739-.544-1.015-.647-2.64-.87-3.848-.28-1.509-.502-3.044-.75-4.565-.046-.29-.107-.609-.283-.773-.588-.55-.563 1.421-.597 1.787a42.329 42.329 0 0 1-.33 2.723c-.29 1.806-.757 3.552-1.502 5.085-.323.665-.585 1.82-.042 2.065.773.352 1.359-2.208 1.944-1.41-.075.915-.44 1.572-.77 2.325-.29.662-.516 1.34-.855 1.98-.304.572-.593 1.222-.584 1.94.003.226.046.475.177.606.08.082.183.108.282.115.392.026.788-.209 1.049-.623.113-.179.2-.388.325-.55.125-.162.303-.273.462-.197.664.32-.216 2.661-.435 3.045-.088.157-.185.303-.277.456H57.309l-4.117-3.34c-.227-1.2-.728-1.847-1.5-2.534-.73-.649-1.601-1.693-1.645-3.007.623-.652 1.392.462 1.796 1.397.404.937 1.317 1.915 1.826 1.09.174-.282.208-.687.183-1.059-.108-1.62-1.11-2.774-1.967-3.858-.796-1.006-1.34-1.737-1.513-3.328-.021-.194-.034-.4.028-.574.062-.174.228-.287.343-.18.187.478.406.932.656 1.35.15.251.318.498.53.63.215.133.484.131.66-.084.288-.349.194-.998.075-1.506-.134-.57-.27-1.148-.517-1.635-.201-.398-.467-.718-.72-1.05-.49-.648-.938-1.357-1.385-2.064-.158-.249-.321-.514-.37-.842-.136-.946.41-.722.71-.313.29.396.47.933.763 1.331.414.566 1.224.757 1.48.026.11-.318.069-.698 0-1.038-.544-2.733-2.638-4.482-2.846-7.35-.018-.247-.02-.547.127-.683.155-.142.367.012.474.224.225.446.947 2.292 1.468 1.143.075-.167.089-.375.086-.574-.022-1.44-.732-2.599-1.164-3.832-.186-.527-.956-2.395.02-2.443.595-.029.999 1.261 1.563.998.453-.21.405-1.143.227-1.77-.353-1.242-.853-2.395-1.173-3.654-.248-.975-.384-1.999-.52-3.017-.354-2.676-.71-5.403-.484-8.107.027-.319.059-.658-.034-.95-.095-.294-.373-.49-.556-.3-.09.094-.133.253-.17.402-.97 3.941-.953 8.67-2.54 12.251-.217.49-.473.978-.51 1.552-.035.574.272 1.237.676 1.165.433-.077.457-.726.713-1.049.112-.139.308-.167.398 0 .038.07.05.16.058.247.037.46-.082.917-.215 1.34-.517 1.644-1.294 3.136-1.607 4.88-.07.383-.067.905.194 1.045.272.148.516-.268.679-.609.163-.342.487-.693.709-.425.089.106.12.28.137.444.235 2.316-1.22 3.953-1.956 5.75-.142.345-.288.71-.3 1.11-.015.471.219 1.05.552 1.2.475.213.48-.175.703-.702.102-.242.313-.45.489-.323.11.082.162.264.19.436.175 1.083-.25 2.18-.755 3.03-.505.85-1.117 1.607-1.437 2.621-.186.59-.262 1.235-.31 1.876-.02.298-.035.606.027.892.148.688.544.74.905.362a8.9 8.9 0 0 0 1.353-1.867c-.306 1.672-.926 3.227-1.78 4.46-.228.33-.481.697-.698 1.084l-5.905-4.79H31.29c.09-.258.11-.566.09-.856-.107-1.622-1.11-2.775-1.966-3.859-.797-1.007-1.34-1.737-1.514-3.329-.021-.192-.034-.399.029-.573.062-.174.227-.286.343-.18.186.48.406.932.656 1.35.15.252.317.498.53.631.214.132.484.13.66-.084.288-.35.193-.999.074-1.508-.133-.569-.27-1.148-.516-1.634-.201-.397-.467-.718-.72-1.052-.49-.646-.938-1.355-1.386-2.062-.157-.249-.32-.515-.368-.842-.137-.945.408-.722.709-.313.29.396.47.933.762 1.331.415.566 1.224.757 1.48.026.11-.318.07-.697.002-1.038-.546-2.734-2.64-4.482-2.848-7.35-.018-.247-.02-.547.128-.682.154-.143.366.011.474.223.225.446.946 2.292 1.467 1.143.076-.167.089-.375.086-.573-.021-1.442-.731-2.6-1.164-3.832-.185-.528-.955-2.396.022-2.444.594-.029.997 1.261 1.562.998.453-.21.404-1.142.226-1.769-.353-1.243-.853-2.396-1.173-3.656-.247-.974-.383-1.998-.518-3.016-.355-2.676-.711-5.403-.485-8.107.027-.319.059-.658-.035-.95-.094-.294-.373-.49-.555-.3-.091.094-.133.253-.17.403-.97 3.94-.953 8.67-2.541 12.251-.216.487-.473.977-.508 1.551-.037.575.27 1.237.674 1.165.433-.077.457-.726.714-1.048.11-.14.307-.168.398 0a.625.625 0 0 1 .057.245c.037.462-.081.918-.215 1.342-.517 1.643-1.294 3.135-1.606 4.878-.07.384-.067.906.194 1.046.27.148.516-.268.679-.609.163-.342.486-.692.708-.425.089.107.12.28.137.445.236 2.315-1.218 3.953-1.955 5.75-.142.344-.288.708-.301 1.108-.014.473.22 1.052.552 1.201.476.213.482-.175.703-.702.102-.242.313-.45.49-.322.11.081.162.263.19.434.174 1.084-.25 2.181-.755 3.031-.505.85-1.117 1.607-1.437 2.622-.186.588-.263 1.234-.31 1.876-.021.297-.036.605.026.891.148.69.544.74.905.362a8.864 8.864 0 0 0 1.353-1.867c-.305 1.672-.926 3.226-1.78 4.46-.68.982-1.584 2.3-1.09 3.485.187.445.534.68.902.733H-3.455z" id="Fill-24" fill="#C9223F" mask="url(#mask-16)"/></g><g id="Group-29"><mask id="mask-18" fill="#fff"><use xlink:href="#path-17"/></mask><path d="M13.895 178.957a2.525 2.525 0 0 1-.28.372H12.28c.213-.073.406-.192.577-.323.244-.185.463-.394.738-.547.64-.356.462.23.3.498m-7.5.372H5.77c.058-.075.123-.146.178-.224.087-.122.342-.392.507-.182.049.061-.011.258-.061.406m55.744 9.532c-.294.265-.604.52-.847.819-.026.032-.048.067-.073.101H44.865l-15.347-5.566a6.464 6.464 0 0 1-1.311-1.775 5.81 5.81 0 0 1-.431-1.178c-.03-.12-.19-.528-.115-.633.207-.298.772.455.873.54.199.17.503.293.768.205a.503.503 0 0 0 .345-.401c.025-.171-.04-.345-.142-.495-.142-.207-.352-.374-.558-.538-.39-.308-.746-.557-.971-.964a2.204 2.204 0 0 1-.288-1.255.116.116 0 0 1 .02-.065c.038-.046.123-.034.18-.009.23.101.334.321.43.521.148.306.39.582.823.56.316-.017.663-.177.688-.466.013-.151-.062-.297-.147-.431-.414-.651-1.103-1.149-1.63-1.743-.323-.364-.586-.79-.664-1.241-.023-.137-.146-.487-.008-.601.055-.045.144-.047.215-.022.07.025.125.071.178.117.405.344.835.725 1.464.552.063-.018.129-.043.162-.091a.198.198 0 0 0 .03-.104c.032-.449-.333-.695-.63-1.018-.543-.595-.647-1.547-.87-2.254-.278-.885-.502-1.783-.748-2.674-.048-.171-.11-.358-.285-.454-.587-.322-.563.833-.596 1.048a14.886 14.886 0 0 1-.331 1.594c-.288 1.059-.757 2.081-1.501 2.979-.323.39-.585 1.065-.043 1.21.773.206 1.359-1.293 1.945-.826-.076.536-.441.921-.771 1.362-.29.388-.516.784-.854 1.159-.305.335-.594.717-.584 1.136.003.134.046.278.176.356a.609.609 0 0 0 .283.067c.39.015.788-.122 1.048-.364.113-.106.2-.228.326-.323.124-.094.302-.16.462-.115.664.187-.217 1.559-.435 1.783-.2.207-.41.408-.626.604-.293.264-.603.519-.846.817-.242.298-.416.649-.398 1.008.012.231.129.482.385.574.192.069.422.028.599-.064a1.57 1.57 0 0 0 .436-.371 6.82 6.82 0 0 0 .449-.565c.087-.122.342-.392.507-.183.07.089-.082.454-.112.557-.116.401-.395.744-.697 1.064l-.105.105-4.866-1.582c-.387-.358-.823-.704-1.18-1.055-.827-.813-1.298-1.872-1.306-2.937 1.205.9 1.165 3.006 3.067 3.32.23.038.483.034.689-.061.328-.151.463-.499.42-.808-.044-.309-.232-.59-.417-.86a86.493 86.493 0 0 0-2.82-3.877c-.25-.325-1.034-.875-.993-1.28.052-.53.856-.571 1.236-.241.302.263.395.64.558.978.164.337.478.682.915.691a.883.883 0 0 0 .783-.474c.133-.263.12-.561.064-.842a3.344 3.344 0 0 0-.826-1.597c-.961-1.053-2.386-1.633-2.887-2.977-.057-.155-.098-.32-.051-.476a.443.443 0 0 1 .399-.306c.179-.006.332.1.466.199.402.297.996.933 1.608.565.369-.223.344-.69.186-1.046-.576-1.302-2.272-2.03-3.102-3.234-.198-.287-.348-.622-.268-.948.13-.533.814-.705 1.305-.385.46.299.73 1.176 1.514.916.509-.169.494-.771.342-1.208-.356-1.024-.971-1.985-1.79-2.805-.72-.721-1.71-1.218-1.546-2.3.172-1.142 1.455 1.043 1.647 1.265.302.349.782.741 1.254.563.322-.122.432-.456.45-.75.118-1.838-1.75-3.272-3.094-4.735-.24-.26-1.051-1.847.085-1.644.283.05.472.268.616.477.253.364.463.761.833 1.048.37.287.968.432 1.387.196a.844.844 0 0 0 .423-.704c.013-.272-.084-.539-.2-.795-.392-.872-1.015-1.673-1.81-2.33-.681-.562-1.55-1.123-1.59-1.92-.007-.159.027-.328.155-.446.189-.172.529-.174.779-.068.508.216.612.745 1.284.705a.952.952 0 0 0 .832-.652c.1-.327.017-.675-.11-.997-.394-1.013-1.188-1.878-1.872-2.78-.683-.901-1.282-1.915-1.205-2.979.01-.155.043-.322.177-.431.326-.268.556.134.745.29.28.229.74.291 1.092.145.352-.145.57-.487.518-.811-.054-.335-.354-.6-.614-.86-2-1.995-2.264-4.78-2.46-7.37-.024-.321-.071-1.666-.65-1.693-.63-.028-.557 1.516-.563 1.821-.021 1.157.198 2.24-.08 3.404a7.996 7.996 0 0 1-1.686 3.298c-.264.313-.56.619-.685.986-.127.365-.037.816.345 1.028.229.128.636.155.865.005.252-.165.085-.586.364-.648a.405.405 0 0 1 .42.2c.072.132.06.286.032.43-.164.848-.795 1.573-1.36 2.291-.566.719-1.1 1.524-1.031 2.38a.324.324 0 0 0 .054.178.15.15 0 0 0 .02.023c.115.113.35.092.512.018.477-.215.932-1.025 1.597-.771.873.334-.31 1.664-.783 1.899-.37.183-.78.311-1.111.538a1.656 1.656 0 0 0-.592.699c-.105.248-.125.548.074.751.729.741 1.639-1.064 2.327-.756.886.398-1.033 2.367-1.413 2.66-.613.474-1.278 1.006-1.35 1.699-.017.166.009.347.144.471.163.152.439.175.68.146a1.93 1.93 0 0 0 .976-.405c.127-.106.237-.229.382-.318.145-.089.342-.138.507-.077.232.087.283.345.245.555-.104.582-.767 1.242-1.133 1.743-.481.662-1.02 1.294-1.51 1.951-.15.201-.304.408-.35.642-.048.232.036.5.275.629.3.161.714.041.98-.157.269-.197.453-.463.72-.66.269-.197.684-.313.983-.15.388.213.3.704.125 1.061-.47.952-1.147 1.344-1.96 2.014a6.184 6.184 0 0 0-1.823 2.594c-.061.166-.114.343-.055.51.148.419.883.46 1.337.238.564-.277 1.107-1.005 1.843-.992.877.014.834.956.58 1.475-.43.882-1.323 1.543-1.971 2.328-.711.86-1.13 1.883-1.196 2.924-.006.109-.008.223.05.32.447.729 1.42-.592 1.65-.827.156-.158.318-.32.534-.418.217-.097.504-.117.699.009a.613.613 0 0 1 .23.307c.347.914-.724 1.559-1.342 2.178-.68.679-1.241 1.452-1.567 2.293-.155.402-.183.953.277 1.13.329.127.723-.032.973-.252.249-.218.419-.497.687-.7a.672.672 0 0 1 .376-.154c1.11-.038.032 1.494-.234 1.73-.394.35-.866.633-1.27.975-.763.645-1.265 1.5-1.41 2.396-.02.132-.033.271.02.396.056.13.176.227.324.287H7.805c-.034-.109-.073-.218-.1-.329-.03-.12-.19-.527-.115-.633.206-.297.772.455.872.54.2.17.503.293.769.206a.51.51 0 0 0 .345-.402c.025-.171-.04-.345-.143-.495-.141-.206-.351-.373-.558-.537-.388-.309-.746-.557-.97-.965a2.204 2.204 0 0 1-.288-1.255.116.116 0 0 1 .02-.065c.037-.045.122-.034.18-.008.229.101.334.321.43.52.148.307.39.583.822.56.317-.017.663-.177.688-.466.013-.15-.061-.297-.146-.431-.415-.651-1.104-1.149-1.63-1.743-.323-.364-.586-.789-.664-1.241-.024-.136-.147-.485-.008-.601.054-.045.144-.047.214-.021.07.024.126.071.179.116.404.345.835.726 1.463.552.064-.018.129-.043.163-.091a.203.203 0 0 0 .03-.104c.032-.449-.333-.694-.63-1.018-.543-.595-.647-1.547-.87-2.254-.28-.885-.503-1.783-.75-2.674-.046-.171-.107-.357-.283-.453-.588-.322-.563.832-.597 1.047a15.149 15.149 0 0 1-.33 1.595c-.288 1.058-.757 2.081-1.502 2.978-.323.39-.585 1.066-.042 1.21.773.206 1.359-1.293 1.944-.826-.075.536-.44.921-.77 1.362-.29.388-.516.784-.855 1.159-.304.335-.593.717-.584 1.137.003.133.046.279.177.356a.605.605 0 0 0 .283.066 1.48 1.48 0 0 0 1.048-.364c.112-.105.2-.228.325-.322.125-.095.303-.16.463-.115.663.186-.218 1.558-.435 1.783a12.76 12.76 0 0 1-.626.603c-.293.265-.604.52-.846.817-.197.243-.342.519-.383.806h-7.18v54.228H222.24v-25.105l-90.226-11.854h-8.751l-12.205-2.302-16.94 2.302-22.463-6.817s-5.321-.284-5.407-.409c-.142-.207-3.893-.705-4.11-.511m4.005-5.166a.19.19 0 0 0 .029-.103" id="Fill-27" fill="#7F1235" mask="url(#mask-18)"/></g><g id="Group-32"><mask id="mask-20" fill="#fff"><use xlink:href="#path-19"/></mask><path d="M35.958 209.331l-.668.078a6.002 6.002 0 0 1-.173-.724c-.017-.095-.005-.229.094-.243.043-.006.085.017.12.042.313.221.423.571.627.847zm170.968-26.982h-.694c.176-.155.481-.145.694 0zm99.401-7.353h-.922c.118-.099.218-.22.31-.342a7.91 7.91 0 0 0 .45-.655c.086-.143.341-.456.506-.213.071.104-.082.526-.112.648-.05.2-.134.384-.232.562zm-14.476 0h-1.345a1.54 1.54 0 0 1-.128-.518c.483-.343 1.052.035 1.473.518zm-29.846 0h-.558a3.838 3.838 0 0 1-.255-1.338c.376.326.588.837.813 1.338zm-4.013 0h-.688c.141-.132.278-.268.442-.373.441-.285.356.13.246.373zM-9 204.863L24.238 284h291.885V174.996h-7.864a7.446 7.446 0 0 1-.339-1.12c-.029-.14-.188-.612-.115-.735.207-.345.773.528.873.627.2.198.503.34.77.24a.573.573 0 0 0 .343-.468.914.914 0 0 0-.142-.574c-.142-.24-.35-.434-.558-.624-.388-.359-.746-.648-.97-1.12a2.878 2.878 0 0 1-.288-1.459.136.136 0 0 1 .02-.076c.037-.052.122-.039.181-.008.228.116.333.372.428.603.148.357.391.677.823.651.316-.02.664-.206.688-.54.013-.176-.06-.346-.146-.5-.415-.758-1.104-1.337-1.63-2.027-.323-.423-.587-.917-.664-1.44-.024-.159-.147-.566-.008-.699.054-.052.143-.054.214-.026.07.03.126.083.178.136.405.4.835.843 1.464.64.064-.019.13-.049.162-.105a.264.264 0 0 0 .031-.12c.032-.522-.333-.807-.629-1.183-.545-.69-.649-1.797-.87-2.619-.28-1.026-.503-2.07-.75-3.105-.047-.198-.109-.414-.284-.527-.588-.374-.563.967-.597 1.216a20.155 20.155 0 0 1-.33 1.854c-.288 1.228-.757 2.417-1.502 3.46-.323.452-.585 1.237-.042 1.405.772.238 1.358-1.503 1.944-.96-.075.623-.44 1.07-.77 1.582-.29.451-.516.911-.855 1.347-.305.39-.594.832-.584 1.32.003.154.046.323.177.413.08.056.184.072.282.077.392.02.788-.14 1.05-.424.111-.12.2-.263.324-.374.124-.11.302-.185.462-.132.664.215-.217 1.81-.434 2.071-.2.24-.41.473-.626.7-.293.308-.604.604-.846.95-.243.346-.417.753-.399 1.171a.876.876 0 0 0 .18.502h-3.607a6.25 6.25 0 0 1-1.089-2.574c-.017-.095-.004-.229.096-.242.042-.006.083.016.12.041.501.355.48 1.04 1.165 1.223.49.132 1.214-.114 1.245-.673.022-.416-.332-.749-.634-1.047a7.552 7.552 0 0 1-2.08-3.799c-.029-.14-.189-.613-.115-.736.206-.344.772.53.872.628.2.198.504.34.768.24a.576.576 0 0 0 .346-.468.923.923 0 0 0-.143-.575c-.14-.24-.35-.434-.557-.624-.389-.358-.747-.647-.972-1.12a2.896 2.896 0 0 1-.287-1.459c.002-.025.004-.053.02-.075.038-.052.122-.039.18-.009.23.117.334.373.43.604.147.355.391.677.822.65.317-.019.663-.206.69-.54.011-.176-.063-.345-.148-.5-.415-.757-1.103-1.337-1.63-2.026-.323-.423-.587-.917-.665-1.442-.023-.158-.145-.564-.007-.698.054-.05.144-.053.214-.025.071.03.125.083.18.136.403.4.834.842 1.462.64.063-.02.13-.049.163-.105a.262.262 0 0 0 .03-.12c.032-.522-.333-.807-.63-1.184-.544-.69-.647-1.796-.87-2.618-.279-1.026-.503-2.07-.749-3.105-.047-.199-.108-.416-.284-.527-.588-.375-.562.967-.597 1.216a19.745 19.745 0 0 1-.33 1.853c-.289 1.23-.758 2.417-1.502 3.46-.323.453-.585 1.238-.043 1.406.774.238 1.36-1.503 1.945-.96-.076.623-.44 1.07-.77 1.582-.29.451-.515.911-.855 1.345-.304.391-.593.833-.583 1.321.003.155.046.323.175.414a.545.545 0 0 0 .284.077c.391.02.787-.142 1.048-.424.113-.12.201-.264.325-.374.125-.11.302-.185.463-.133.664.216-.217 1.81-.435 2.072-.2.24-.409.473-.626.7-.294.307-.603.603-.847.95-.242.346-.416.753-.397 1.171.012.267.13.56.384.665.192.081.422.034.6-.073.177-.108.312-.269.436-.432.161-.21.31-.43.448-.655.087-.143.343-.456.508-.213.07.103-.082.526-.112.647-.117.465-.396.865-.698 1.236-.634.778-1.504 1.5-1.74 2.504-.11.475.094 1.126.6 1.135.684.014.868-1.12 1.55-1.177.188.967-.632 1.807-1.288 2.561a5.56 5.56 0 0 0-.205.255h-2.466c-.293-.872-1.132-1.539-1.867-2.17-.797-.685-1.339-1.183-1.513-2.266-.022-.13-.035-.272.028-.39.062-.118.227-.194.344-.122.185.325.406.634.655.918.15.172.317.34.531.43.213.09.484.088.66-.058.287-.237.193-.68.074-1.026-.133-.386-.27-.78-.517-1.112-.2-.27-.467-.488-.72-.715-.49-.44-.938-.923-1.385-1.404-.158-.169-.32-.35-.369-.572-.136-.644.41-.49.71-.213.29.27.47.635.762.905.414.386 1.224.516 1.48.018.111-.216.07-.475.002-.706-.546-1.86-2.64-3.05-2.848-5-.018-.169-.02-.373.127-.466.154-.097.367.008.474.152.226.304.947 1.56 1.468.778.075-.114.09-.255.086-.39-.02-.98-.73-1.77-1.165-2.608-.184-.358-.955-1.629.023-1.663.593-.019.997.86 1.561.68.453-.144.404-.777.227-1.204-.353-.846-.853-1.63-1.173-2.486-.248-.664-.384-1.36-.519-2.053-.354-1.82-.71-3.677-.485-5.517.027-.217.06-.447-.034-.646s-.373-.334-.556-.204c-.09.064-.133.172-.17.274-.97 2.681-.953 5.9-2.54 8.335-.217.332-.473.666-.509 1.057-.036.39.272.841.675.792.433-.052.457-.494.713-.713.112-.096.308-.114.398 0a.317.317 0 0 1 .058.167c.036.313-.082.624-.215.913-.517 1.117-1.295 2.133-1.607 3.32-.069.26-.067.614.194.711.272.1.516-.183.68-.415.163-.232.486-.47.708-.289.09.072.12.19.137.302.235 1.576-1.218 2.69-1.956 3.912-.142.235-.288.483-.3.755-.015.322.22.716.551.817.477.146.483-.119.704-.477.101-.165.313-.307.49-.22.11.056.162.18.19.296.174.737-.25 1.483-.756 2.062-.505.578-1.117 1.093-1.437 1.783-.186.402-.262.841-.309 1.278-.02.202-.036.411.026.606.148.468.544.503.905.246.508-.36.965-.79 1.352-1.27a6.716 6.716 0 0 1-1.779 3.034c-.53.523-1.198 1.185-1.227 1.834h-21.168a76.741 76.741 0 0 0-2.066-3.299c-.185-.279-.763-.75-.734-1.097.04-.455.633-.49.914-.207.223.225.292.55.412.838.12.29.353.586.676.593.253.006.48-.18.578-.406.098-.226.088-.482.047-.723a3.046 3.046 0 0 0-.61-1.369c-.71-.904-1.762-1.4-2.132-2.556-.042-.13-.073-.273-.038-.407.035-.135.152-.257.294-.262.132-.005.246.085.344.17.298.255.737.801 1.188.485.273-.19.255-.592.138-.898-.426-1.117-1.678-1.74-2.292-2.774-.146-.247-.255-.534-.197-.813.096-.458.601-.605.964-.33.34.255.54 1.008 1.118.785.376-.145.364-.66.252-1.037a6.635 6.635 0 0 0-1.32-2.406c-.532-.618-1.264-1.045-1.144-1.973.128-.98 1.074.895 1.217 1.085.224.3.578.636.926.484.238-.105.32-.392.333-.644.087-1.577-1.292-2.807-2.286-4.062-.176-.223-.776-1.584.063-1.41.21.043.35.23.455.408.187.312.342.653.615.9.274.246.715.37 1.025.168.201-.13.303-.37.312-.604.01-.234-.062-.463-.147-.682a5.568 5.568 0 0 0-1.338-1.999c-.503-.483-1.145-.964-1.173-1.648-.006-.136.02-.282.113-.382.14-.149.391-.15.576-.059.376.186.452.64.948.605.3-.02.541-.278.614-.559.074-.28.013-.579-.079-.855-.292-.87-.879-1.612-1.384-2.385-.505-.774-.947-1.644-.89-2.557.007-.133.032-.276.13-.369.242-.23.412.114.551.248.206.197.546.25.807.125a.691.691 0 0 0 .383-.696c-.04-.287-.262-.515-.454-.737-1.477-1.712-1.672-4.102-1.818-6.324-.017-.275-.052-1.429-.48-1.452-.464-.025-.41 1.301-.415 1.563-.016.992.146 1.922-.059 2.92a7.33 7.33 0 0 1-1.246 2.83c-.194.267-.412.53-.506.844-.094.315-.027.702.255.883.17.11.47.134.64.004.185-.142.062-.503.268-.556.125-.032.258.057.311.171.053.115.043.246.022.37-.12.727-.587 1.35-1.004 1.966-.418.616-.812 1.307-.76 2.041.003.054.01.11.04.154l.013.02c.085.095.26.077.38.015.351-.185.688-.88 1.178-.662.645.287-.228 1.426-.578 1.63-.273.156-.576.266-.82.46a1.376 1.376 0 0 0-.437.601c-.078.212-.094.47.054.644.538.635 1.21-.913 1.718-.649.655.341-.762 2.031-1.043 2.282-.453.407-.944.864-.997 1.457-.012.143.006.3.106.406.12.13.324.15.503.124.27-.038.526-.162.72-.348.094-.09.175-.195.282-.27.107-.078.253-.122.375-.069.172.075.21.297.181.477-.077.5-.567 1.065-.837 1.495-.356.568-.753 1.11-1.116 1.674-.11.173-.223.35-.259.55-.034.201.028.43.205.54.221.138.526.036.724-.134.197-.169.334-.398.531-.567.2-.169.505-.268.726-.129.286.183.223.604.092.912-.347.816-.847 1.152-1.447 1.727-.629.602-1.088 1.414-1.346 2.226-.046.141-.085.295-.042.437.11.36.653.395.987.204.417-.237.82-.862 1.362-.85.648.011.616.82.43 1.264-.319.757-.978 1.325-1.458 1.997a4.817 4.817 0 0 0-.882 2.51.517.517 0 0 0 .037.275c.33.625 1.048-.509 1.218-.709.115-.137.236-.276.395-.36.16-.084.372-.1.515.007a.53.53 0 0 1 .17.264c.257.784-.534 1.338-.99 1.868-.503.584-.917 1.246-1.158 1.97-.114.342-.135.815.205.967.243.11.534-.028.718-.215.184-.189.31-.427.508-.6a.46.46 0 0 1 .277-.134c.82-.032.024 1.282-.172 1.486-.29.3-.64.543-.938.835a3.598 3.598 0 0 0-1.04 2.056c-.01.07-.013.143-.007.213h-3.725c-.225-.488-.394-1-.484-1.526-.017-.096-.005-.229.094-.243.043-.005.084.017.12.041.501.356.481 1.041 1.166 1.224.49.132 1.213-.114 1.245-.673.023-.417-.33-.75-.634-1.048a7.55 7.55 0 0 1-2.08-3.798c-.03-.14-.189-.613-.115-.736.207-.345.772.53.873.628.2.196.503.34.768.238a.573.573 0 0 0 .345-.466.918.918 0 0 0-.143-.576c-.14-.239-.35-.433-.557-.624-.389-.358-.746-.647-.97-1.12a2.89 2.89 0 0 1-.289-1.458.15.15 0 0 1 .02-.075c.038-.053.122-.04.181-.01.23.118.333.372.43.605.146.355.39.677.821.65.316-.019.664-.206.69-.542.011-.175-.063-.344-.148-.5-.415-.757-1.103-1.335-1.63-2.024-.323-.424-.587-.918-.664-1.443-.023-.158-.146-.563-.008-.697.054-.052.144-.055.214-.025a.55.55 0 0 1 .18.136c.403.4.834.841 1.463.64.063-.02.13-.05.162-.105a.277.277 0 0 0 .03-.12c.032-.522-.333-.808-.629-1.184-.545-.69-.648-1.797-.87-2.618-.279-1.028-.503-2.07-.75-3.106-.047-.198-.108-.415-.284-.527-.588-.374-.563.967-.597 1.217a19.724 19.724 0 0 1-.33 1.852c-.288 1.23-.757 2.418-1.502 3.46-.323.452-.585 1.238-.042 1.406.773.24 1.36-1.502 1.945-.96-.076.623-.44 1.07-.77 1.583-.29.45-.517.911-.855 1.345-.305.39-.594.833-.584 1.321.002.154.045.323.176.413.08.055.183.073.283.078a1.37 1.37 0 0 0 1.048-.424c.113-.122.201-.265.326-.374.124-.11.301-.186.461-.134.665.217-.216 1.81-.434 2.071-.2.241-.409.475-.626.702-.293.306-.604.602-.846.95-.243.345-.417.753-.398 1.17.012.267.13.56.385.666.192.08.421.034.6-.074.176-.108.311-.269.435-.432.161-.21.31-.43.45-.655.086-.142.341-.456.506-.213.07.103-.082.527-.113.648-.116.464-.394.863-.697 1.235-.635.778-1.504 1.5-1.739 2.504-.11.476.093 1.125.598 1.136.685.014.87-1.12 1.551-1.178.125.642-.195 1.227-.615 1.77h-1.349l-23.497 7.352h-15.906a3.043 3.043 0 0 0-.522-1c-.71-.906-1.763-1.403-2.133-2.557-.042-.132-.072-.273-.037-.407.035-.135.151-.257.295-.263.132-.005.245.086.343.17.297.256.737.802 1.188.485.272-.19.254-.592.138-.897-.426-1.117-1.678-1.74-2.29-2.775-.148-.247-.258-.534-.2-.812.097-.458.602-.606.964-.33.34.255.54 1.008 1.118.784.376-.145.365-.66.253-1.036a6.607 6.607 0 0 0-1.322-2.406c-.53-.619-1.263-1.045-1.142-1.973.127-.98 1.075.895 1.217 1.085.223.3.577.636.925.483.238-.104.32-.39.334-.643.086-1.577-1.293-2.808-2.286-4.063-.177-.222-.776-1.584.062-1.41.21.043.35.23.456.408.186.314.342.654.616.9.273.247.714.371 1.024.17.2-.132.303-.372.312-.606.01-.233-.062-.463-.147-.68a5.572 5.572 0 0 0-1.338-2c-.503-.484-1.144-.964-1.174-1.649-.005-.136.02-.28.115-.382.138-.148.39-.149.575-.058.375.185.452.638.948.604.3-.02.54-.277.614-.558.075-.282.013-.58-.08-.856-.292-.869-.879-1.61-1.383-2.385-.505-.773-.947-1.643-.89-2.555.008-.134.032-.277.13-.37.242-.23.411.114.552.248.206.197.545.25.805.125a.688.688 0 0 0 .383-.696c-.04-.288-.262-.515-.454-.738-1.476-1.712-1.672-4.102-1.816-6.323-.019-.276-.053-1.43-.48-1.452-.465-.026-.412 1.3-.416 1.562-.016.993.146 1.922-.06 2.92a7.293 7.293 0 0 1-1.246 2.83c-.194.268-.412.53-.505.845-.093.314-.027.701.254.883.17.11.471.133.64.004.187-.142.063-.503.27-.556.125-.032.256.057.31.171.052.114.043.246.023.37-.122.726-.587 1.35-1.005 1.966-.417.616-.813 1.306-.76 2.041.002.053.01.108.04.153a.13.13 0 0 0 .014.02c.085.095.257.078.378.015.352-.184.688-.88 1.18-.662.644.287-.229 1.427-.58 1.63-.27.156-.575.267-.82.461a1.38 1.38 0 0 0-.437.601c-.078.211-.093.47.055.643.538.636 1.21-.913 1.718-.648.655.34-.763 2.031-1.043 2.282-.453.406-.945.863-.997 1.457-.013.142.006.3.105.405.121.13.324.15.503.124.271-.038.526-.162.721-.347.095-.09.175-.196.282-.272.106-.076.253-.12.374-.067.172.075.21.297.182.476-.077.5-.567 1.066-.837 1.496-.356.568-.754 1.11-1.116 1.673-.11.173-.224.351-.258.551-.035.2.026.43.203.54.223.138.527.035.725-.135.197-.169.333-.397.532-.566.198-.169.504-.269.724-.129.287.183.223.603.093.911-.348.816-.847 1.152-1.448 1.728-.628.601-1.087 1.414-1.346 2.225-.045.142-.085.295-.04.438.11.36.652.394.986.204.417-.238.818-.863 1.362-.852.647.013.616.821.43 1.266-.319.757-.978 1.324-1.458 1.997a4.802 4.802 0 0 0-.882 2.51.525.525 0 0 0 .037.274c.33.625 1.048-.509 1.218-.709.116-.136.235-.275.395-.359.16-.084.371-.1.516.007a.525.525 0 0 1 .17.263c.255.785-.536 1.338-.992 1.868-.488.568-.89 1.21-1.133 1.91h-3.647l-3.34 1.237c-.502-.483-.843-.966-.973-1.78-.022-.132-.035-.274.028-.392.062-.118.227-.194.343-.122.186.326.407.634.656.918.15.172.317.34.531.43.213.09.484.088.66-.058.287-.237.193-.679.074-1.025-.134-.387-.27-.78-.517-1.113-.2-.27-.467-.488-.72-.715-.49-.44-.938-.922-1.385-1.404-.158-.169-.32-.349-.369-.572-.136-.644.41-.49.71-.212.29.27.47.634.762.905.414.385 1.224.515 1.48.018.11-.217.07-.475.001-.707-.545-1.86-2.639-3.049-2.847-5-.019-.169-.02-.373.127-.465.154-.098.367.008.474.152.226.304.947 1.56 1.468.778a.677.677 0 0 0 .086-.39c-.022-.98-.73-1.77-1.165-2.608-.184-.359-.955-1.63.023-1.663.592-.02.997.86 1.561.68.453-.143.404-.778.227-1.205-.353-.845-.853-1.629-1.173-2.486-.248-.663-.384-1.36-.519-2.053-.354-1.82-.71-3.676-.485-5.516.027-.217.06-.448-.034-.647s-.373-.333-.556-.204c-.09.064-.133.173-.17.274-.97 2.681-.953 5.9-2.54 8.336-.217.332-.474.665-.509 1.056-.036.39.272.842.675.793.433-.053.457-.494.713-.714.111-.096.308-.114.398 0a.32.32 0 0 1 .058.167c.036.314-.082.624-.216.913-.516 1.118-1.294 2.133-1.606 3.32-.069.261-.067.616.194.711.272.1.516-.182.68-.415.162-.232.486-.47.708-.289.09.073.12.192.137.303.235 1.575-1.218 2.69-1.956 3.911-.142.235-.288.483-.3.756-.015.321.22.716.551.816.476.146.482-.119.704-.477.101-.165.313-.307.49-.219.11.055.162.18.19.296.174.737-.25 1.483-.756 2.061-.505.58-1.117 1.094-1.437 1.785-.186.4-.263.84-.309 1.276-.02.202-.036.411.026.606.148.47.544.504.905.247a6.854 6.854 0 0 0 1.352-1.27 6.718 6.718 0 0 1-1.779 3.033c-.466.46-1.038 1.024-1.19 1.594l-5.192 1.922-.08-.075c-.389-.359-.747-.647-.97-1.12a2.903 2.903 0 0 1-.289-1.458c.002-.027.004-.054.02-.076.038-.052.122-.039.181-.009.228.117.333.373.43.604.147.356.39.677.822.65.316-.019.663-.206.687-.54.014-.176-.06-.346-.146-.5-.414-.758-1.104-1.337-1.629-2.026-.324-.423-.587-.917-.665-1.442-.024-.159-.147-.564-.008-.698.055-.05.144-.054.215-.025.07.028.125.083.178.136.405.4.835.842 1.463.64.064-.02.13-.049.163-.105a.251.251 0 0 0 .03-.12c.033-.522-.332-.807-.629-1.184-.544-.69-.649-1.796-.87-2.618-.28-1.026-.503-2.07-.749-3.105-.048-.199-.109-.416-.285-.527-.587-.375-.562.967-.596 1.216a20.478 20.478 0 0 1-.33 1.853c-.289 1.23-.758 2.417-1.502 3.46-.324.453-.585 1.237-.043 1.405.773.24 1.36-1.502 1.944-.959-.075.622-.44 1.07-.769 1.582-.29.45-.517.911-.856 1.346-.304.39-.593.833-.584 1.32.003.155.047.323.177.413a.53.53 0 0 0 .283.078c.391.02.787-.142 1.048-.424.112-.122.201-.263.325-.374.125-.11.303-.185.463-.134.664.217-.218 1.811-.436 2.072-.2.24-.408.474-.625.701-.293.306-.603.603-.846.95a2.13 2.13 0 0 0-.38.892L166.263 194l-21.753 2.56c-.554-.514-.934-1.006-1.075-1.875-.02-.13-.033-.273.03-.39.061-.119.227-.195.342-.123.187.326.406.634.655.918.151.172.32.34.532.43.214.09.483.088.66-.058.287-.237.192-.68.073-1.026-.133-.386-.269-.78-.516-1.112-.2-.27-.467-.488-.719-.715-.492-.44-.94-.923-1.387-1.404-.157-.169-.32-.35-.368-.572-.137-.644.408-.49.71-.213.29.27.47.635.761.905.416.386 1.225.516 1.48.02.111-.218.07-.477.002-.708-.546-1.86-2.639-3.05-2.848-5-.017-.169-.019-.373.128-.465.155-.098.366.008.474.151.225.304.947 1.56 1.468.78.075-.116.088-.257.086-.392-.022-.98-.732-1.77-1.165-2.608-.185-.358-.956-1.629.022-1.663.594-.019.998.86 1.562.68.453-.143.405-.777.226-1.204-.352-.845-.852-1.63-1.173-2.486-.247-.664-.384-1.36-.518-2.053-.355-1.82-.71-3.676-.485-5.516.027-.217.06-.448-.035-.647-.094-.199-.372-.334-.555-.204-.09.064-.133.172-.169.274-.97 2.681-.954 5.9-2.542 8.335-.216.332-.472.666-.508 1.057-.036.39.271.841.675.792.432-.052.457-.494.713-.713.112-.096.307-.114.398 0a.307.307 0 0 1 .057.167c.038.313-.082.624-.214.913-.517 1.117-1.294 2.133-1.607 3.32-.069.26-.067.615.194.711.272.1.516-.182.68-.415.162-.232.486-.47.707-.289.09.072.12.191.137.302.236 1.576-1.218 2.69-1.955 3.912-.143.235-.288.483-.3.755-.015.322.22.716.552.817.475.146.481-.119.703-.477.102-.165.312-.307.49-.219.11.055.161.18.19.295.173.737-.25 1.484-.756 2.062-.505.578-1.117 1.094-1.437 1.784-.186.401-.262.84-.309 1.277-.022.202-.036.411.025.606.15.468.544.503.905.246.51-.36.965-.79 1.354-1.27a6.723 6.723 0 0 1-1.686 2.935l-101.45 11.937c.005-.029.016-.057.018-.088.023-.417-.33-.75-.634-1.048a7.568 7.568 0 0 1-2.08-3.8c-.029-.139-.189-.612-.115-.734.207-.346.772.528.873.627.2.197.503.34.768.238a.568.568 0 0 0 .345-.466.922.922 0 0 0-.142-.575c-.142-.24-.35-.433-.558-.624-.388-.358-.746-.647-.97-1.12a2.895 2.895 0 0 1-.289-1.458.151.151 0 0 1 .02-.076c.038-.053.123-.039.181-.009.23.117.333.372.43.604.147.356.39.676.822.65.316-.019.663-.206.688-.54.013-.176-.06-.346-.146-.5-.415-.758-1.104-1.337-1.63-2.026-.324-.423-.587-.917-.665-1.442-.023-.158-.146-.564-.008-.697.055-.053.144-.055.215-.026.07.03.125.083.178.135.405.401.835.843 1.464.642.063-.02.13-.05.162-.106a.258.258 0 0 0 .03-.12c.033-.522-.332-.807-.629-1.183-.544-.69-.648-1.797-.87-2.618-.279-1.028-.503-2.072-.749-3.107-.048-.197-.109-.414-.285-.526-.587-.374-.562.967-.596 1.216a20.015 20.015 0 0 1-.33 1.853c-.289 1.23-.758 2.417-1.502 3.46-.324.452-.585 1.237-.043 1.405.773.24 1.36-1.503 1.945-.96-.076.623-.44 1.07-.77 1.582-.29.452-.517.912-.855 1.347-.305.39-.593.832-.584 1.32.003.155.046.324.176.414a.542.542 0 0 0 .283.077c.391.018.788-.142 1.048-.424.113-.12.201-.264.326-.374.124-.11.302-.186.462-.133.664.217-.217 1.81-.435 2.071-.2.241-.409.474-.626.701-.293.307-.603.603-.846.95-.242.345-.416.753-.398 1.171.012.267.13.56.385.666.192.08.421.033.6-.075.176-.107.311-.268.435-.43.161-.212.311-.43.45-.657.086-.14.341-.456.506-.212.07.103-.082.527-.112.647-.116.465-.395.864-.697 1.235-.635.78-1.505 1.5-1.74 2.505-.11.475.093 1.125.598 1.135.685.015.87-1.119 1.551-1.177.084.431-.032.836-.245 1.22L-9 204.863z" id="Fill-30" fill="#4E0C30" mask="url(#mask-20)"/></g><g id="Group-35"><mask id="mask-22" fill="#fff"><use xlink:href="#path-21"/></mask><path d="M85.989 230.573h26.643" id="Stroke-33" stroke="#FEFEFE" stroke-width="1.647" mask="url(#mask-22)"/></g><g id="Group-38"><mask id="mask-24" fill="#fff"><use xlink:href="#path-23"/></mask><path d="M51.868 218.475h39.306" id="Stroke-36" stroke="#FEFEFE" stroke-width="2" mask="url(#mask-24)"/></g><g id="Group-41"><mask id="mask-26" fill="#fff"><use xlink:href="#path-25"/></mask><path d="M18.771 234.164h39.306" id="Stroke-39" stroke="#FEFEFE" stroke-width="2" mask="url(#mask-26)"/></g><g id="Group-44"><mask id="mask-28" fill="#fff"><use xlink:href="#path-27"/></mask><path d="M67.626 242.168h24.96" id="Stroke-42" stroke="#FEFEFE" stroke-width="1.594" mask="url(#mask-28)"/></g><g id="Group-47"><mask id="mask-30" fill="#fff"><use xlink:href="#path-29"/></mask><path d="M230.709 191.252h21.677" id="Stroke-45" stroke="#FEFEFE" stroke-width="2" mask="url(#mask-30)"/></g><g id="Group-50"><mask id="mask-32" fill="#fff"><use xlink:href="#path-31"/></mask><path d="M209.031 207.384h21.678" id="Stroke-48" stroke="#FEFEFE" stroke-width="2" mask="url(#mask-32)"/></g><g id="Group-53"><mask id="mask-34" fill="#fff"><use xlink:href="#path-33"/></mask><path d="M179.691 238.64h21.677" id="Stroke-51" stroke="#FEFEFE" stroke-width="2" mask="url(#mask-34)"/></g><g id="Group-56"><mask id="mask-36" fill="#fff"><use xlink:href="#path-35"/></mask><path d="M241.547 233.094h21.678" id="Stroke-54" stroke="#FEFEFE" stroke-width="2" mask="url(#mask-36)"/></g><g id="Group-59"><mask id="mask-38" fill="#fff"><use xlink:href="#path-37"/></mask><path d="M176.973 219.987h21.677" id="Stroke-57" stroke="#FEFEFE" stroke-width="2" mask="url(#mask-38)"/></g><g id="Group-62"><mask id="mask-40" fill="#fff"><use xlink:href="#path-39"/></mask><path d="M237.556 212.534h21.677" id="Stroke-60" stroke="#FEFEFE" stroke-width="2" mask="url(#mask-40)"/></g><g id="Group-65"><mask id="mask-42" fill="#fff"><use xlink:href="#path-41"/></mask><path d="M226.717 224.349h21.677" id="Stroke-63" stroke="#FEFEFE" stroke-width="2" mask="url(#mask-42)"/></g><g id="Group-68"><mask id="mask-44" fill="#fff"><use xlink:href="#path-43"/></mask><path d="M259.232 233.203h21.677" id="Stroke-66" stroke="#FEFEFE" stroke-width="2" mask="url(#mask-44)"/></g><g id="Group-71"><mask id="mask-46" fill="#fff"><use xlink:href="#path-45"/></mask><path id="Fill-69" fill="#3B5874" mask="url(#mask-46)" d="M123.353 224.125h27.194l-.297 3.099h-26.6z"/></g><g id="Group-74"><mask id="mask-48" fill="#fff"><use xlink:href="#path-47"/></mask><path d="M153.31 205.436h-29.168s-3.5 1.013-3.11 4.659c.077.724.215 2.108.386 3.863.697 7.094 1.947 20.238 1.947 20.238s1.36 3.847 7.778 4.456c0 0 1.75.81 1.944 2.43.195 1.62 2.723 2.025 5.639 2.025 2.917 0 5.444-.405 5.638-2.024.196-1.621 1.946-2.431 1.946-2.431 6.416-.608 7.776-4.456 7.776-4.456s1.945-20.456 2.333-24.101c.39-3.645-3.11-4.659-3.11-4.659" id="Fill-72" fill="#F79D61" mask="url(#mask-48)"/></g><g id="Group-77"><mask id="mask-50" fill="#fff"><use xlink:href="#path-49"/></mask><path id="Fill-75" fill="#3B5874" mask="url(#mask-50)" d="M156.008 214.205h-34.59l.394 3.785h33.828z"/></g><g id="Group-80"><mask id="mask-52" fill="#fff"><use xlink:href="#path-51"/></mask><path id="Fill-78" fill="#3B5874" mask="url(#mask-52)" d="M122.708 228.802h31.913l-.37 3.895h-31.172z"/></g><g id="Group-83"><mask id="mask-54" fill="#fff"><use xlink:href="#path-53"/></mask><path id="Fill-81" fill="#3B5874" mask="url(#mask-54)" d="M122.107 221.5h33.284l-.384 3.872H122.49z"/></g><g id="Group-86"><mask id="mask-56" fill="#fff"><use xlink:href="#path-55"/></mask><path d="M80.68 39.063l9.857 14.2c1.538 2.215 4.382 3.233 6.841 1.794 2.194-1.282 3.342-4.611 1.794-6.842l-9.859-14.199c-1.537-2.215-4.38-3.231-6.84-1.794-2.194 1.283-3.342 4.612-1.794 6.841" id="Fill-84" fill="#FEFEFE" mask="url(#mask-56)"/></g><g id="Group-89"><mask id="mask-58" fill="#fff"><use xlink:href="#path-57"/></mask><path d="M129.98 11.825V41.43c0 6.434 10 6.445 10 0V11.825c0-6.435-10-6.445-10 0" id="Fill-87" fill="#FEFEFE" mask="url(#mask-58)"/></g><g id="Group-92"><mask id="mask-60" fill="#fff"><use xlink:href="#path-59"/></mask><path d="M184.28 34.944a340.496 340.496 0 0 0-10.206 13.332c-1.589 2.185-.373 5.573 1.794 6.841 2.527 1.478 5.248.396 6.841-1.794a289.324 289.324 0 0 1 8.642-11.308c1.692-2.1 2.054-5.017 0-7.07-1.752-1.752-5.369-2.115-7.07 0" id="Fill-90" fill="#FEFEFE" mask="url(#mask-60)"/></g><g id="Group-96"><mask id="mask-62" fill="#fff"><use xlink:href="#path-61"/></mask><path d="M164.567 169.368c-.282-.125 9.981-15.45 11.056-16.982 12.596-17.949 18.09-44.342 8.457-64.806-12.774-27.132-55.969-30.288-78.47-14.619-18.196 12.673-18.964 37.371-14.07 56.918.056.226.125.45.185.675 2.906 10.907 9.571 20.211 15.525 29.63 5.562 8.798 14.206 22.15 11.627 33.11-1.62 6.886 6.076 10.126 6.076 10.126h27.545s7.696-3.24 6.076-10.127c-1.56-6.626 1.145-13.497 3.805-19.46a72.14 72.14 0 0 1 2.188-4.465" id="Fill-93" fill="#EAD063" mask="url(#mask-62)"/><path d="M164.567 169.368c-.282-.125 9.981-15.45 11.056-16.982 12.596-17.949 18.09-44.342 8.457-64.806-12.774-27.132-55.969-30.288-78.47-14.619-18.196 12.673-18.964 37.371-14.07 56.918.056.226.125.45.185.675 2.906 10.907 9.571 20.211 15.525 29.63 5.562 8.798 14.206 22.15 11.627 33.11-1.62 6.886 6.076 10.126 6.076 10.126h27.545s7.696-3.24 6.076-10.127c-1.56-6.626 1.145-13.497 3.805-19.46a72.14 72.14 0 0 1 2.188-4.465" id="Stroke-95" stroke="#FEFEFE" stroke-width="7" mask="url(#mask-62)"/></g><g id="Group-99"><mask id="mask-64" fill="#fff"><use xlink:href="#path-63"/></mask><path d="M147.526 250.91c0 1.007-3.863 1.823-8.63 1.823-4.766 0-8.63-.816-8.63-1.823 0-1.007 3.864-1.822 8.63-1.822 4.767 0 8.63.815 8.63 1.822" id="Fill-97" fill="#C9223F" mask="url(#mask-64)"/></g></g></g></g></g></g></g></svg>