<svg width="273px" height="272px" xmlns="http://www.w3.org/2000/svg" xmlns:xlink="http://www.w3.org/1999/xlink"><defs><path id="path-1" d="M.83.646H272.17v271.339H.83z"/><path d="M136.499.646C61.572.646.831 61.387.831 136.316c0 74.927 60.741 135.669 135.668 135.669 74.928 0 135.669-60.742 135.669-135.669 0-74.929-60.741-135.67-135.669-135.67z" id="path-3"/><path d="M11.216.174C5.089.29.215 5.352.332 11.479.448 17.607 5.51 22.48 11.637 22.363c6.127-.116 11.001-5.178 10.885-11.305C22.406 5.002 17.461.172 11.43.172l-.214.002" id="path-5"/><path d="M11.216.174C5.089.29.215 5.352.332 11.479.448 17.607 5.51 22.48 11.637 22.363c6.127-.116 11.001-5.178 10.885-11.305C22.406 5.002 17.461.172 11.43.172l-.214.002" id="path-7"/><path d="M11.216.174C5.089.29.215 5.352.332 11.479.448 17.607 5.51 22.48 11.637 22.363c6.127-.116 11.001-5.178 10.885-11.305C22.406 5.002 17.461.172 11.43.172l-.214.002" id="path-9"/><path d="M4.598.297A4.557 4.557 0 0 0 .129 4.941a4.557 4.557 0 1 0 9.113-.173A4.556 4.556 0 0 0 4.686.297h-.088" id="path-11"/><path d="M4.598.297A4.557 4.557 0 0 0 .129 4.941a4.557 4.557 0 1 0 9.113-.173A4.556 4.556 0 0 0 4.686.297h-.088" id="path-13"/><path d="M4.598.297A4.557 4.557 0 0 0 .129 4.941a4.557 4.557 0 1 0 9.113-.173A4.556 4.556 0 0 0 4.686.297h-.088" id="path-15"/></defs><g id="Page-1" fill="none" fill-rule="evenodd"><g id="Desktop-HD" transform="translate(-979 -2759)"><g id="SECTION-2" transform="translate(139 2565)"><g id="icons/CARING" transform="translate(799 194)"><g id="caring-icon" transform="translate(41)"><g id="Group-3"><mask id="mask-2" fill="#fff"><use xlink:href="#path-1"/></mask><path d="M272.169 136.316c0 74.928-60.741 135.669-135.67 135.669-74.927 0-135.668-60.741-135.668-135.67C.83 61.388 61.57.646 136.5.646c74.928 0 135.669 60.742 135.669 135.67" id="Fill-1" fill="#4E0C30" mask="url(#mask-2)"/></g><g id="Group-68"><mask id="mask-4" fill="#fff"><use xlink:href="#path-3"/></mask><path id="Fill-4" fill="#7F1235" mask="url(#mask-4)" d="M56.656 309.976h138.583V102.514H56.656z"/><path d="M115.528 116.524H41.333c3.845 0 6.99 3.152 6.99 7.005 0 3.852-3.145 7.005-6.99 7.005h74.195c3.843 0 6.988-3.153 6.988-7.005 0-3.853-3.145-7.005-6.989-7.005" id="Fill-6" fill="#7F1235" mask="url(#mask-4)"/><path d="M108.27 144.543H34.076c3.844 0 6.989 3.152 6.989 7.005 0 3.852-3.145 7.005-6.99 7.005h74.195c3.844 0 6.989-3.153 6.989-7.005 0-3.853-3.145-7.005-6.99-7.005" id="Fill-7" fill="#7F1235" mask="url(#mask-4)"/><path d="M122.248 172.563H48.054c3.844 0 6.99 3.152 6.99 7.005 0 3.852-3.146 7.005-6.99 7.005h74.194c3.844 0 6.99-3.153 6.99-7.005 0-3.853-3.146-7.005-6.99-7.005" id="Fill-8" fill="#7F1235" mask="url(#mask-4)"/><path d="M111.764 200.582H37.57c3.844 0 6.99 3.152 6.99 7.005 0 3.852-3.146 7.005-6.99 7.005h74.194c3.844 0 6.99-3.153 6.99-7.005 0-3.853-3.146-7.005-6.99-7.005" id="Fill-9" fill="#7F1235" mask="url(#mask-4)"/><path d="M104.775 102.514H30.581c3.844 0 6.99 3.152 6.99 7.005 0 3.852-3.146 7.005-6.99 7.005h74.194c3.844 0 6.99-3.153 6.99-7.005 0-3.853-3.146-7.005-6.99-7.005" id="Fill-10" fill="#7F1235" mask="url(#mask-4)"/><path d="M37.57 109.519c0-3.853-3.145-7.005-6.989-7.005H9.613c-3.844 0-6.989 3.152-6.989 7.005 0 3.853 3.145 7.005 6.989 7.005h20.968c3.844 0 6.989-3.152 6.989-7.005" id="Fill-11" fill="#7F1235" mask="url(#mask-4)"/><path d="M118.754 130.534H44.56c3.844 0 6.989 3.152 6.989 7.005 0 3.852-3.145 7.005-6.99 7.005h74.195c3.844 0 6.989-3.153 6.989-7.005 0-3.853-3.145-7.005-6.99-7.005" id="Fill-12" fill="#7F1235" mask="url(#mask-4)"/><path d="M51.549 137.538c0-3.853-3.146-7.005-6.989-7.005H23.591c-3.843 0-6.989 3.153-6.989 7.006s3.146 7.005 6.989 7.005H44.56c3.843 0 6.989-3.153 6.989-7.006" id="Fill-13" fill="#7F1235" mask="url(#mask-4)"/><path d="M108.27 158.553H34.076c3.844 0 6.989 3.152 6.989 7.005 0 3.852-3.145 7.005-6.99 7.005h74.195c3.844 0 6.989-3.153 6.989-7.005 0-3.853-3.145-7.005-6.99-7.005" id="Fill-14" fill="#7F1235" mask="url(#mask-4)"/><path d="M41.065 165.558c0-3.853-3.145-7.005-6.99-7.005H13.109c-3.844 0-6.99 3.152-6.99 7.005 0 3.853 3.146 7.005 6.99 7.005h20.968c3.844 0 6.989-3.152 6.989-7.005" id="Fill-15" fill="#7F1235" mask="url(#mask-4)"/><path d="M118.216 213.921H44.022c3.844 0 6.989 3.151 6.989 7.005 0 3.852-3.145 7.004-6.989 7.004h74.194c3.844 0 6.989-3.152 6.989-7.004 0-3.854-3.145-7.005-6.989-7.005" id="Fill-16" fill="#7F1235" mask="url(#mask-4)"/><path d="M51.011 220.926c0-3.854-3.145-7.005-6.989-7.005H23.054c-3.844 0-6.989 3.151-6.989 7.005 0 3.853 3.145 7.004 6.99 7.004h20.967c3.844 0 6.99-3.15 6.99-7.004" id="Fill-17" fill="#7F1235" mask="url(#mask-4)"/><path d="M105.312 227.93H31.118c3.844 0 6.99 3.152 6.99 7.005 0 3.853-3.146 7.005-6.99 7.005h74.194c3.844 0 6.99-3.152 6.99-7.005 0-3.853-3.146-7.005-6.99-7.005" id="Fill-18" fill="#7F1235" mask="url(#mask-4)"/><path d="M111.764 241.269H37.57c3.844 0 6.99 3.152 6.99 7.005 0 3.853-3.146 7.005-6.99 7.005h74.194c3.844 0 6.99-3.152 6.99-7.005 0-3.853-3.146-7.005-6.99-7.005" id="Fill-19" fill="#7F1235" mask="url(#mask-4)"/><path d="M44.56 248.274c0-3.853-3.146-7.005-6.99-7.005H16.602c-3.844 0-6.989 3.152-6.989 7.005 0 3.854 3.145 7.005 6.99 7.005H37.57c3.844 0 6.99-3.151 6.99-7.005" id="Fill-20" fill="#7F1235" mask="url(#mask-4)"/><path d="M123.054 255.279H48.86c3.844 0 6.99 3.152 6.99 7.005 0 3.852-3.146 7.005-6.99 7.005h74.194c3.844 0 6.99-3.153 6.99-7.005 0-3.853-3.146-7.005-6.99-7.005" id="Fill-21" fill="#7F1235" mask="url(#mask-4)"/><path d="M129.506 268.618H55.312c3.845 0 6.99 3.152 6.99 7.005 0 3.852-3.145 7.005-6.99 7.005h74.194c3.845 0 6.99-3.153 6.99-7.005 0-3.853-3.145-7.005-6.99-7.005" id="Fill-22" fill="#7F1235" mask="url(#mask-4)"/><path d="M62.301 275.623c0-3.853-3.145-7.005-6.989-7.005H34.344c-3.844 0-6.989 3.151-6.989 7.005 0 3.853 3.145 7.005 6.99 7.005h20.967c3.844 0 6.99-3.152 6.99-7.005" id="Fill-23" fill="#7F1235" mask="url(#mask-4)"/><path d="M129.506 186.573H55.312c3.845 0 6.99 3.152 6.99 7.005 0 3.852-3.145 7.005-6.99 7.005h74.194c3.845 0 6.99-3.153 6.99-7.005 0-3.853-3.145-7.005-6.99-7.005" id="Fill-24" fill="#7F1235" mask="url(#mask-4)"/><path d="M62.301 193.577c0-3.852-3.145-7.005-6.989-7.005H34.344c-3.844 0-6.989 3.153-6.989 7.005 0 3.853 3.145 7.006 6.99 7.006h20.967c3.844 0 6.99-3.153 6.99-7.006" id="Fill-25" fill="#7F1235" mask="url(#mask-4)"/><path d="M154.91 116.524h74.193c-3.843 0-6.99 3.152-6.99 7.005 0 3.852 3.147 7.005 6.99 7.005H154.91c-3.844 0-6.99-3.153-6.99-7.005 0-3.853 3.146-7.005 6.99-7.005" id="Fill-26" fill="#7F1235" mask="url(#mask-4)"/><path d="M162.168 144.543h74.194c-3.844 0-6.99 3.152-6.99 7.005 0 3.852 3.146 7.005 6.99 7.005h-74.194c-3.844 0-6.99-3.153-6.99-7.005 0-3.853 3.146-7.005 6.99-7.005" id="Fill-27" fill="#7F1235" mask="url(#mask-4)"/><path d="M148.19 172.563h74.193c-3.844 0-6.989 3.152-6.989 7.005 0 3.852 3.145 7.005 6.99 7.005h-74.195c-3.844 0-6.989-3.153-6.989-7.005 0-3.853 3.145-7.005 6.99-7.005" id="Fill-28" fill="#7F1235" mask="url(#mask-4)"/><path d="M158.673 200.582h74.194c-3.843 0-6.99 3.152-6.99 7.005 0 3.852 3.147 7.005 6.99 7.005h-74.194c-3.845 0-6.988-3.153-6.988-7.005 0-3.853 3.143-7.005 6.988-7.005" id="Fill-29" fill="#7F1235" mask="url(#mask-4)"/><path d="M165.663 102.514h74.193c-3.843 0-6.99 3.152-6.99 7.005 0 3.852 3.147 7.005 6.99 7.005h-74.193c-3.845 0-6.99-3.153-6.99-7.005 0-3.853 3.145-7.005 6.99-7.005" id="Fill-30" fill="#7F1235" mask="url(#mask-4)"/><path d="M232.867 109.519c0-3.853 3.146-7.005 6.989-7.005h20.968c3.845 0 6.989 3.152 6.989 7.005 0 3.853-3.144 7.005-6.99 7.005h-20.967c-3.843 0-6.99-3.152-6.99-7.005" id="Fill-31" fill="#7F1235" mask="url(#mask-4)"/><path d="M151.684 130.534h74.193c-3.843 0-6.989 3.152-6.989 7.005 0 3.852 3.146 7.005 6.99 7.005h-74.194c-3.845 0-6.989-3.153-6.989-7.005 0-3.853 3.144-7.005 6.99-7.005" id="Fill-32" fill="#7F1235" mask="url(#mask-4)"/><path d="M218.888 137.538c0-3.853 3.146-7.005 6.99-7.005h20.967c3.845 0 6.99 3.153 6.99 7.006s-3.145 7.005-6.99 7.005h-20.968c-3.843 0-6.989-3.153-6.989-7.006" id="Fill-33" fill="#7F1235" mask="url(#mask-4)"/><path d="M162.168 158.553h74.194c-3.844 0-6.99 3.152-6.99 7.005 0 3.852 3.146 7.005 6.99 7.005h-74.194c-3.844 0-6.99-3.153-6.99-7.005 0-3.853 3.146-7.005 6.99-7.005" id="Fill-34" fill="#7F1235" mask="url(#mask-4)"/><path d="M229.373 165.558c0-3.853 3.145-7.005 6.989-7.005h20.968c3.844 0 6.989 3.152 6.989 7.005 0 3.853-3.145 7.005-6.99 7.005h-20.967c-3.844 0-6.99-3.152-6.99-7.005" id="Fill-35" fill="#7F1235" mask="url(#mask-4)"/><path d="M152.221 213.921h74.194c-3.844 0-6.989 3.151-6.989 7.005 0 3.852 3.145 7.004 6.99 7.004H152.22c-3.844 0-6.989-3.152-6.989-7.004 0-3.854 3.145-7.005 6.99-7.005" id="Fill-36" fill="#7F1235" mask="url(#mask-4)"/><path d="M219.426 220.926c0-3.854 3.145-7.005 6.99-7.005h20.967c3.844 0 6.99 3.151 6.99 7.005 0 3.853-3.146 7.004-6.99 7.004h-20.968c-3.844 0-6.989-3.15-6.989-7.004" id="Fill-37" fill="#7F1235" mask="url(#mask-4)"/><path d="M165.125 227.93h74.194c-3.843 0-6.99 3.152-6.99 7.005 0 3.853 3.147 7.005 6.99 7.005h-74.194c-3.844 0-6.99-3.152-6.99-7.005 0-3.853 3.146-7.005 6.99-7.005" id="Fill-38" fill="#7F1235" mask="url(#mask-4)"/><path d="M158.673 241.269h74.194c-3.843 0-6.99 3.152-6.99 7.005 0 3.853 3.147 7.005 6.99 7.005h-74.194c-3.845 0-6.988-3.152-6.988-7.005 0-3.853 3.143-7.005 6.988-7.005" id="Fill-39" fill="#7F1235" mask="url(#mask-4)"/><path d="M225.878 248.274c0-3.853 3.146-7.005 6.989-7.005h20.968c3.845 0 6.989 3.152 6.989 7.005 0 3.854-3.144 7.005-6.99 7.005h-20.967c-3.843 0-6.99-3.151-6.99-7.005" id="Fill-40" fill="#7F1235" mask="url(#mask-4)"/><path d="M147.382 255.279h74.195c-3.844 0-6.99 3.152-6.99 7.005 0 3.852 3.147 7.005 6.99 7.005h-74.195c-3.844 0-6.989-3.153-6.989-7.005 0-3.853 3.145-7.005 6.99-7.005" id="Fill-41" fill="#7F1235" mask="url(#mask-4)"/><path d="M140.931 268.618h74.193c-3.843 0-6.989 3.152-6.989 7.005 0 3.852 3.146 7.005 6.99 7.005H140.93c-3.844 0-6.99-3.153-6.99-7.005 0-3.853 3.146-7.005 6.99-7.005" id="Fill-42" fill="#7F1235" mask="url(#mask-4)"/><path d="M208.135 275.623c0-3.853 3.146-7.005 6.99-7.005h20.967c3.845 0 6.99 3.151 6.99 7.005 0 3.853-3.145 7.005-6.99 7.005h-20.968c-3.843 0-6.989-3.152-6.989-7.005" id="Fill-43" fill="#7F1235" mask="url(#mask-4)"/><path d="M140.931 186.573h74.193c-3.843 0-6.989 3.152-6.989 7.005 0 3.852 3.146 7.005 6.99 7.005H140.93c-3.844 0-6.99-3.153-6.99-7.005 0-3.853 3.146-7.005 6.99-7.005" id="Fill-44" fill="#7F1235" mask="url(#mask-4)"/><path d="M208.135 193.577c0-3.852 3.146-7.005 6.99-7.005h20.967c3.845 0 6.99 3.153 6.99 7.005 0 3.853-3.145 7.006-6.99 7.006h-20.968c-3.843 0-6.989-3.153-6.989-7.006" id="Fill-45" fill="#7F1235" mask="url(#mask-4)"/><path id="Fill-46" fill="#7F1235" mask="url(#mask-4)" d="M159.416 222.945l12.38-10.672-10.772 13.15 10.772 13.154-12.257-10.796-13.988 10.796 10.958-13.075-10.958-13.23z"/><path id="Fill-47" fill="#5BC5CB" mask="url(#mask-4)" d="M226.14 206.761l-18.862-14.82-43.653 54.95 19.154 15.051z"/><path id="Fill-48" fill="#EAD063" mask="url(#mask-4)" d="M182.811 262.082l43.361-55.18 60.12 47.241-43.362 55.18z"/><path id="Fill-49" fill="#9A7A2D" mask="url(#mask-4)" d="M182.811 262.082l13.624-17.337 60.118 47.242-13.623 17.336z"/><path id="Fill-50" fill="#FEFEFE" mask="url(#mask-4)" d="M194 261.423l3.65-4.646 5.26 4.132-3.65 4.646z"/><path id="Fill-51" fill="#FEFEFE" mask="url(#mask-4)" d="M204.458 269.643l3.65-4.646 5.259 4.132-3.65 4.646z"/><path d="M74.562 187.117c-1.719-1.498-3.143-2.724-4.552-3.967-7.672-6.764-15.26-13.63-23.04-20.264-4.356-3.715-7.81-4.665-12.019-2.432-4.347 2.309-5.81 8.535-1.689 12.178 7.244 6.402 14.321 12.994 21.5 19.47 2.918 2.634 5.916 5.178 9.114 7.967.221-7.175 3.702-11.397 10.686-12.952" id="Fill-52" fill="#F3D8BF" mask="url(#mask-4)"/><path d="M91.973 187.893c-.041-.052-.154-.273-.332-.412-5.391-4.198-10.704-8.505-16.221-12.53-2.785-2.032-4.76-4.246-5.53-7.757-.911-4.154-2.375-8.19-3.654-12.257-.928-2.95-2.742-4.95-5.901-5.733-4.563-1.133-8.951 1.953-8.557 6.458.233 2.66 1.15 5.12 1.666 7.682.492 2.446 1.757 4.18 3.537 5.75 6.022 5.314 11.97 10.71 18.04 15.968 1.239 1.073 2.262 2.755 4.117 2.799 4.26.102 8.524.032 12.835.032" id="Fill-53" fill="#F3D8BF" mask="url(#mask-4)"/><path d="M108.245 188.597c-.06-.074-.187-.299-.374-.444-5.836-4.54-11.433-9.395-17.499-13.632-1.937-1.355-3.327-2.871-3.996-5.194-.762-2.647-1.504-5.331-2.889-7.755-.893-1.563-2.039-2.88-3.794-3.49-3.717-1.292-8.65.999-7.834 6.055.42 2.6.057 5.533 2.417 7.456 6.463 5.266 12.978 10.467 19.477 15.688.787.632 1.631 1.283 2.665 1.295 3.934.05 7.87.021 11.827.021" id="Fill-54" fill="#F3D8BF" mask="url(#mask-4)"/><path d="M97.253 170.123c-1.777.119-3.437.728-4.692 2.215-.592.7-.57 1.236.22 1.869 5.232 4.188 10.398 8.46 15.655 12.617 1.278 1.01 2.356 2.326 4.282 2.48 3.258.26 6.533-.162 9.776.364.306.05.654-.147.69-.499.052-.535-.446-.686-.78-.958-5.825-4.752-11.64-9.517-17.464-14.27-2.242-1.83-4.475-3.688-7.687-3.819" id="Fill-55" fill="#F3D8BF" mask="url(#mask-4)"/><path d="M142.996 245.435c-.192.247-.437.42-.465.623-.09.634.508.804.879 1.094a88466.39 88466.39 0 0 0 45.992 35.822c2.38 1.855 4.77 3.696 7.159 5.539.39.3.825.759 1.244.08.367-.591-.293-.712-.57-.978-.314-.305-.682-.555-1.03-.825-4.37-3.392-8.743-6.778-13.106-10.177-13.047-10.163-26.091-20.331-39.137-30.496-.29-.225-.6-.424-.966-.682" id="Fill-56" fill="#FDFDFC" mask="url(#mask-4)"/><path d="M201.463 300.359c-.317-.72-1.047-1.037-1.624-1.487-15.6-12.171-31.211-24.327-46.822-36.484a1276.866 1276.866 0 0 0-5.667-4.391c-.318-.245-.617-.751-1.097-.23-.591.643.094.839.425 1.145.183.17.394.31.594.466l32.488 25.303 19.645 15.3c.397.31.775.659 1.213.89.435.23.69-.082.845-.512" id="Fill-57" fill="#FDFDFC" mask="url(#mask-4)"/><path d="M205.13 312.303c-.651-.534-1.215-1.018-1.8-1.474-17.107-13.329-34.212-26.66-51.339-39.964-.617-.478-1.45-1.786-2.049-1.029-.857 1.082.8 1.42 1.391 1.883 14.893 11.672 29.828 23.287 44.757 34.913 2.529 1.97 5.053 3.945 7.587 5.91.276.216.522.627.958.382.184-.103.286-.349.496-.62" id="Fill-58" fill="#FDFDFC" mask="url(#mask-4)"/><path d="M74.562 187.117c-6.984 1.555-10.465 5.777-10.686 12.952-3.198-2.79-6.196-5.333-9.114-7.966-7.179-6.477-14.256-13.07-21.5-19.471-4.12-3.643-2.658-9.87 1.69-12.178 4.207-2.233 7.662-1.283 12.017 2.432 7.781 6.635 15.37 13.5 23.041 20.264 1.41 1.243 2.833 2.469 4.552 3.967" id="Fill-59" fill="#F3D8BF" mask="url(#mask-4)"/><path d="M91.973 187.893c-4.311 0-8.575.07-12.835-.032-1.855-.044-2.878-1.726-4.117-2.8-6.07-5.257-12.018-10.653-18.04-15.966-1.78-1.571-3.045-3.305-3.537-5.751-.515-2.562-1.433-5.022-1.666-7.682-.394-4.505 3.994-7.591 8.557-6.458 3.159.784 4.973 2.784 5.9 5.733 1.28 4.068 2.744 8.103 3.655 12.257.77 3.51 2.745 5.725 5.53 7.757 5.517 4.025 10.83 8.332 16.22 12.53.179.139.292.36.333.412" id="Fill-60" fill="#F3D8BF" mask="url(#mask-4)"/><path d="M108.245 188.597c-3.957 0-7.893.029-11.827-.021-1.034-.012-1.878-.663-2.665-1.295-6.499-5.221-13.014-10.422-19.477-15.688-2.36-1.923-1.998-4.856-2.417-7.456-.816-5.056 4.117-7.347 7.834-6.055 1.755.61 2.901 1.927 3.794 3.49 1.385 2.424 2.127 5.108 2.89 7.755.668 2.323 2.058 3.839 3.995 5.194 6.066 4.237 11.663 9.092 17.5 13.632.186.145.312.37.373.444" id="Fill-61" fill="#F3D8BF" mask="url(#mask-4)"/><path d="M97.253 170.123c3.212.13 5.445 1.989 7.687 3.817 5.824 4.755 11.64 9.52 17.464 14.272.334.272.832.423.78.958-.036.352-.384.549-.69.499-3.243-.528-6.518-.106-9.776-.365-1.926-.154-3.004-1.47-4.282-2.48-5.257-4.157-10.423-8.43-15.656-12.618-.79-.632-.81-1.167-.219-1.868 1.255-1.487 2.915-2.096 4.692-2.215" id="Fill-62" fill="#F3D8BF" mask="url(#mask-4)"/><path d="M142.996 245.435c.366.258.676.457.966.682 13.046 10.165 26.09 20.333 39.137 30.496 4.363 3.399 8.737 6.785 13.106 10.177.348.27.716.52 1.03.825.277.266.937.387.57.979-.42.678-.853.22-1.244-.081-2.388-1.843-4.778-3.684-7.16-5.54a88466.39 88466.39 0 0 1-45.991-35.821c-.371-.29-.968-.46-.88-1.094.029-.203.274-.376.466-.623" id="Fill-63" fill="#464559" mask="url(#mask-4)"/><path d="M201.463 300.359c-.155.43-.41.743-.845.513-.438-.232-.816-.581-1.213-.89L179.76 284.68l-32.488-25.303c-.2-.156-.411-.295-.594-.466-.331-.306-1.016-.502-.425-1.145.48-.521.779-.015 1.097.23 1.894 1.458 3.782 2.923 5.667 4.39 15.61 12.158 31.222 24.314 46.822 36.485.577.45 1.307.768 1.624 1.487" id="Fill-64" fill="#464559" mask="url(#mask-4)"/><path d="M205.13 312.303c-.21.272-.311.518-.495.621-.436.245-.681-.166-.958-.382-2.534-1.965-5.058-3.94-7.587-5.91-14.929-11.626-29.864-23.24-44.757-34.913-.59-.464-2.248-.8-1.39-1.883.597-.757 1.431.551 2.048 1.03 17.127 13.302 34.232 26.634 51.338 39.963.585.456 1.15.94 1.802 1.474" id="Fill-65" fill="#464559" mask="url(#mask-4)"/><path d="M182.794 245.165c-.088 2.11-1.59 3.48-3.712 3.383-1.887-.085-3.347-1.72-3.274-3.664.07-1.895 1.693-3.363 3.642-3.297 1.925.065 3.423 1.668 3.344 3.578" id="Fill-66" fill="#FEFEFE" mask="url(#mask-4)"/><path d="M192.753 193.16l-8.394-7.35c-3.297-2.941-6.908-5.427-11.037-7.078-5.316-2.127-10.696-2.364-16.204-.697-5.905 1.786-10.822 5.547-16.394 8.007-6.775 2.99-13.38 6.037-21.19 5.377-6.49-.549-13.041-.498-19.564-.823-8.281-.412-16.574-.578-24.862-.837-3.38-.106-5.807 1.634-7.43 4.354-1.738 2.912-1.913 6.05-.22 9.13 1.816 3.305 4.915 4.513 8.39 5.052a3938.127 3938.127 0 0 0 19.675 3.007c5.326.797 10.66 1.54 15.986 2.338 3.096.465 6.183.99 9.272 1.497.603.099 1.243.477 1.15 1.035-.13.784-.911.405-1.412.341-3.54-.442-7.073-.942-10.613-1.379a7863.516 7863.516 0 0 0-28.16-3.43c-.792-.095-1.591-.726-2.55-.067.439.41.769.784 1.16 1.077 7.889 5.898 15.848 11.704 23.656 17.708 5.357 4.119 11.273 6.418 18.007 5.804 4.47-.405 8.887-1.445 13.32-2.24 8.853-1.587 17.718-3.112 26.54-4.855 3.026-.6 5.419-.226 7.638 2.077 1.125 1.167 2.442 2.344 4.112 2.863 1.993-1.373 3.152-3.48 4.608-5.313a2983.033 2983.033 0 0 0 19.944-25.34c.845-1.088 1.84-2.064 2.702-3.142l-8.13-7.117" id="Fill-67" fill="#F3D8BF" mask="url(#mask-4)"/></g><g id="Group-231" transform="translate(46 32)"><path d="M79.58 14.478C71.736 6.352 62.213 1.658 50.98.467 43.05-.374 35.31.583 28.081 3.919 11.65 11.499 2.27 24.385.773 42.463c-1.159 13.984 3.35 26.315 13.22 36.297 22.003 22.254 44.213 44.305 66.35 66.429 1.854 1.852 3.906 2.733 5.96 2.665V21.33c-2.44-2.484-4.599-4.652-6.723-6.852" id="Fill-69" fill="#5BC5CB"/><path d="M98.681 138.374c20.315-20.352 40.777-40.56 60.888-61.11 10.716-10.953 14.497-24.504 11.841-39.536-3.57-20.212-19.696-35.073-40.047-37.204-14.539-1.52-27.11 2.942-37.574 13.177-2.466 2.414-4.788 4.976-7.407 7.71l-.08-.082v126.524c1.917-.064 3.835-.956 5.592-2.686 2.28-2.246 4.525-4.527 6.787-6.793" id="Fill-71" fill="#EAD063"/><path d="M25.478 42.532s.747-1.753.185-2.487c-.563-.736-3.195-3.14-4.064-2.892-.87.248.933 1.49.933 1.49s-2.404-.075-2.049.493c.356.568 1.316.956 1.316.956s-2.902.928-2.65 1.166c.25.237 1.476.395 1.476.395s-1.929 1.665-1.5 2.188c.43.52.93.01.93.01s1.097 2.08 2.16 2.305c0 0-4.029 4.695-4.012 5.377.017.68 3.118-3.04 3.118-3.04s3.55-1.53 4.55-2.551c1-1.021 2.216-3.66 2.805-4.03.59-.367 1.502-1.037 1.502-1.037s-2.156-.825-4.7 1.657" id="Fill-73" fill="#E46E7D"/><path d="M73.224 89.677s.183-1.896-.575-2.427c-.758-.53-3.993-2.028-4.747-1.529-.754.5 1.34 1.14 1.34 1.14s-2.315.653-1.805 1.087c.511.434 1.543.514 1.543.514s-2.486 1.762-2.175 1.912c.311.151 1.527-.069 1.527-.069s-1.336 2.17-.769 2.538c.567.368.89-.27.89-.27s1.673 1.652 2.754 1.545c0 0-2.422 5.692-2.2 6.336.221.645 2.054-3.838 2.054-3.838s2.922-2.53 3.567-3.806c.645-1.276 1.01-4.158 1.46-4.688a31.84 31.84 0 0 0 1.116-1.443s-2.304-.136-3.98 2.998" id="Fill-75" fill="#DF5042"/><path d="M128.292 71.583s.69-1.23.335-1.817c-.356-.586-2.102-2.568-2.762-2.454-.66.112.569 1.172.569 1.172s-1.765-.249-1.55.2c.218.445.893.807.893.807s-2.212.452-2.046.648c.166.194 1.057.41 1.057.41s-1.555 1.071-1.28 1.49c.274.42.683.082.683.082s.643 1.62 1.408 1.87c0 0-3.343 3.137-3.385 3.64-.042.503 2.54-1.989 2.54-1.989s2.736-.843 3.555-1.515c.818-.673 1.925-2.52 2.388-2.744.463-.224 1.19-.645 1.19-.645s-1.523-.78-3.595.845" id="Fill-77" fill="#DF5042"/><path d="M74.328 57.88s1.433-.42 1.598-1.126c.165-.706.312-3.494-.27-3.897-.582-.404-.438 1.306-.438 1.306s-1.15-1.494-1.317-.996c-.167.498.075 1.272.075 1.272s-2.004-1.296-2.023-1.026c-.02.27.495 1.091.495 1.091s-1.968-.34-2.07.18c-.103.518.455.567.455.567s-.714 1.7-.322 2.454c0 0-4.845-.104-5.25.244-.403.35 3.39.377 3.39.377s2.692 1.39 3.808 1.487c1.115.097 3.318-.478 3.834-.305.516.174 1.375.392 1.375.392s-.572-1.714-3.34-2.02" id="Fill-79" fill="#480E31"/><path d="M66.632 14.8s1.368-.343 1.55-1.003c.183-.66.427-3.286-.109-3.688-.533-.403-.462 1.215-.462 1.215s-1.03-1.452-1.206-.988c-.175.463.025 1.202.025 1.202s-1.845-1.297-1.873-1.043c-.029.254.427 1.048.427 1.048s-1.844-.394-1.96.093c-.117.486.407.553.407.553s-.736 1.576-.395 2.303c0 0-4.57-.279-4.964.036-.395.313 3.185.482 3.185.482s2.49 1.411 3.54 1.545c1.047.134 3.148-.327 3.63-.145.48.183 1.282.422 1.282.422s-.475-1.639-3.077-2.033" id="Fill-81" fill="#4E0C30"/><path d="M26.978 63.388a5994.528 5994.528 0 0 1 3.794 7.063l2.794-1.5-3.792-7.06 6.26-3.364.09.171 3.804 7.08c.175.324.133.468-.187.641L25.258 74.2c-.308.165-.447.127-.601-.16a9851.465 9851.465 0 0 1-3.846-7.16c-.023-.044-.042-.088-.068-.142l6.235-3.349" id="Fill-83" fill="#E46E7D"/><path d="M23.638 57.525l-.001-.032c-.058-.016-.116-.034-.174-.047-.907-.195-1.814-.385-2.72-.586-.543-.12-1.027-.025-1.47.32-.71.555-.8 1.664-.173 2.282.482.475 1.22.583 1.858.248.897-.471 1.787-.957 2.68-1.437.022-.012.04-.03.062-.044-.503.043-.993.11-1.482.179-.51.072-1.018.147-1.527.217-.163.022-.311-.015-.384-.183a.313.313 0 0 1 .092-.384.61.61 0 0 1 .287-.101c.782-.117 1.563-.226 2.345-.34l.607-.092m3.037-1.688l.028.012c.074-.081.148-.161.22-.243.615-.688 1.23-1.378 1.844-2.068a.335.335 0 0 1 .379-.11c.139.043.224.149.216.286a.521.521 0 0 1-.115.29c-.622.717-1.253 1.425-1.88 2.135-.043.05-.083.103-.124.155.074-.006.122-.033.17-.06.87-.467 1.749-.921 2.61-1.406.98-.552 1.13-1.833.315-2.547-.82-.717-2.15-.348-2.56.709l-.453 1.167-.65 1.68m2.444 4.876l-1.923-3.582-2.77 1.488c.645 1.198 1.282 2.385 1.924 3.58l2.769-1.486m2.37-6.657l.168-.09 2.418-1.298c.335-.18.48-.14.656.188.71 1.319 1.419 2.64 2.127 3.96.169.314.126.455-.19.625l-17.206 9.242c-.32.172-.456.132-.625-.183L16.7 62.523c-.166-.31-.12-.46.192-.626l2.435-1.308.16-.086c-.26-.165-.536-.293-.756-.486-1.104-.966-.931-2.744.322-3.515.656-.405 1.343-.44 2.072-.261.716.174 1.439.316 2.159.472l2.157.47c.164-.42.328-.834.489-1.25.415-1.064.812-2.135 1.245-3.192.61-1.5 2.646-2.065 3.879-.654.424.487.548 1.07.453 1.703-.012.079-.028.157-.041.235-.001.004.006.009.023.03" id="Fill-85" fill="#781634"/><path d="M29.12 60.712c-.928.497-1.845.99-2.77 1.487l-1.924-3.58c.921-.496 1.838-.988 2.77-1.488l1.923 3.581" id="Fill-87" fill="#FEFEFE"/><path d="M26.675 55.836l.65-1.68.454-1.167c.409-1.056 1.739-1.425 2.559-.709.815.714.666 1.995-.315 2.547-.861.486-1.739.94-2.61 1.407a.384.384 0 0 1-.17.06c.041-.053.08-.105.124-.155.627-.71 1.258-1.418 1.88-2.134a.521.521 0 0 0 .115-.29c.008-.139-.077-.244-.216-.286a.335.335 0 0 0-.379.108c-.613.691-1.229 1.38-1.843 2.07l-.221.242-.028-.013" id="Fill-89" fill="#FEFEFE"/><path d="M23.638 57.525c-.203.03-.405.063-.607.093-.782.113-1.563.222-2.345.339a.61.61 0 0 0-.287.1.313.313 0 0 0-.092.385c.073.168.22.205.384.183.509-.07 1.018-.145 1.527-.217.489-.07.979-.136 1.482-.18-.021.016-.04.033-.062.045-.893.48-1.783.966-2.68 1.437-.638.335-1.376.227-1.858-.248-.626-.618-.537-1.727.173-2.282.443-.345.927-.44 1.47-.32.906.2 1.813.39 2.72.586.058.013.116.03.174.047v.032" id="Fill-91" fill="#FEFEFE"/><path d="M42.02 79.681a7.317 7.317 0 1 1-14.632.276 7.317 7.317 0 0 1 14.632-.276" id="Fill-93" fill="#E46E7D"/><path id="Fill-95" fill="#EAD063" d="M34.611 74.93l1.423 2.75 3.071.386-2.175 2.203.581 3.041-2.767-1.389-2.713 1.492.466-3.06-2.258-2.118 3.055-.504z"/><path d="M80.448 25.489a3.457 3.457 0 1 1-6.912.13 3.457 3.457 0 0 1 6.912-.13" id="Fill-97" fill="#E46E7D"/><path id="Fill-99" fill="#EAD063" d="M76.95 23.244l.671 1.3 1.451.181-1.028 1.041.275 1.437-1.308-.655-1.28.705.22-1.447-1.067-1 1.443-.239z"/><path d="M87.229 32.881a2.052 2.052 0 1 1-4.103.078 2.052 2.052 0 0 1 4.103-.078" id="Fill-101" fill="#E46E7D"/><path id="Fill-103" fill="#EAD063" d="M85.151 31.55l.4.77.86.108-.61.618.163.853-.775-.39-.76.42.13-.859-.633-.594.856-.142z"/><path d="M141.312 19.008a4.903 4.903 0 0 1-4.81 4.996 4.903 4.903 0 1 1-.186-9.806 4.905 4.905 0 0 1 4.996 4.81" id="Fill-105" fill="#4E0C30"/><path id="Fill-107" fill="#EAD063" d="M136.347 15.825l.953 1.843 2.06.259-1.459 1.476.39 2.038-1.855-.93-1.818 1 .312-2.051-1.513-1.42 2.047-.337z"/><path d="M87.2 38.26c1.086-1.517 2.135-3.018 3.23-4.484.284-.38.299-.664.128-1.095-.89-2.234-.914-4.495-.04-6.739.428-1.1 1.135-2.049 1.857-2.97 1.566-2.004 3.27-3.884 5.17-5.58.556-.496.663-.502 1.259-.077l5.9 4.216c.413.295.495.441.28.907-.581 1.26-1.164 2.523-1.815 3.747-.93 1.743-1.956 3.432-3.263 4.925-2.028 2.317-4.63 3.24-7.661 3.044-.19-.013-.298.014-.406.168-1.14 1.597-2.282 3.191-3.452 4.825.355.248.706.494 1.059.737.209.146.473.313.369.585-.11.287-.321.556-.546.771-.08.077-.372.031-.5-.057-1.212-.839-2.411-1.696-3.611-2.553-.305-.219-.337-.464-.128-.784.053-.082.106-.164.163-.243.243-.339.502-.39.864-.147.315.211.618.441.927.66.06.044.124.083.216.144" id="Fill-109" fill="#E46E7D"/><path d="M112.547 45.79c.498-.01.952-.023 1.404-.027.394-.004.608.2.63.585.045.721-.124.905-.856.926-1.313.04-2.623.081-3.935.12-.538.014-.704-.156-.72-.72-.016-.537.146-.718.665-.739.431-.019.864-.038 1.332-.057-.032-.747-.063-1.48-.092-2.212-.05-1.213-.106-2.427-.142-3.64-.007-.23-.097-.343-.287-.446-2.127-1.154-3.597-2.86-4.37-5.167-.51-1.522-.523-3.095-.51-4.668.019-2.173.23-4.332.582-6.476a4.53 4.53 0 0 1 .112-.477c.114-.41.27-.535.692-.55 2.502-.098 5.004-.195 7.507-.29.41-.017.603.102.703.481.853 3.265 1.478 6.57 1.388 9.961-.072 2.658-1.306 4.77-3.29 6.476-.29.247-.611.453-.909.691-.073.06-.161.167-.158.25.076 1.98.165 3.96.254 5.98" id="Fill-111" fill="#231F20"/><path d="M107.992 16.727c-.208.696-.396 1.4-.64 2.086-.063.18-.28.37-.463.42-.15.042-.41-.074-.518-.206-.103-.124-.137-.377-.09-.542.402-1.41.824-2.814 1.253-4.216.114-.374.454-.557.753-.448.313.113.444.423.33.814-.204.698-.416 1.395-.625 2.092" id="Fill-113" fill="#231F20"/><path d="M112.304 18.486c-.187.155-.312.295-.466.38-.885.49-1.777.969-2.669 1.448-.355.19-.66.133-.827-.147-.195-.33-.115-.641.258-.85.79-.44 1.588-.861 2.383-1.291.152-.083.301-.215.462-.231.196-.021.451-.003.591.109.142.113.175.363.268.582" id="Fill-115" fill="#231F20"/><path d="M103.132 15.125c.157.174.29.276.365.411.49.885.972 1.775 1.448 2.666.207.386.128.694-.197.866-.306.162-.619.033-.82-.343-.477-.892-.951-1.785-1.434-2.673-.126-.23-.126-.469.05-.633.148-.14.377-.194.588-.294" id="Fill-117" fill="#231F20"/><path d="M82.078 115.902c.605-.44 1.128-.818 1.712-1.241l-2.237-.847.525 2.088m8.02 15.2c-.098-.01-.137-.027-.155-.014a491.626 491.626 0 0 0-3.15 2.27c-.072.054-.166.172-.151.238.148.666.317 1.328.48 1.993l.138-.01c.94-1.483 1.88-2.966 2.839-4.476m-6.983-11.155l5.608-4.067c-1.104-.255-2.127-.501-3.156-.722-.126-.027-.302.046-.416.127-.822.58-1.64 1.17-2.444 1.775-.113.085-.24.289-.213.405.18.812.399 1.615.62 2.482m12.686 2.166c-.183.063-.236.069-.272.096-3.244 2.348-6.488 4.696-9.725 7.053-.102.075-.214.26-.19.365.187.822.406 1.636.638 2.54l.526-.382c1.434-1.04 2.855-2.1 4.31-3.112.699-.485 1.26-1.054 1.704-1.787.95-1.57 1.954-3.107 3.009-4.773m-11.64 1.892l10.092-7.316c-.087-.045-.126-.08-.17-.085-1.081-.135-2.162-.273-3.246-.391a.733.733 0 0 0-.47.12 1004.156 1004.156 0 0 0-6.62 4.8c-.113.084-.238.289-.212.404.182.809.403 1.61.626 2.468m-2.935-12.031a18.25 18.25 0 0 1-.035.23c.645.292 1.274.629 1.938.869 3.8 1.37 7.746 2.048 11.759 2.31 1.556.103 3.128-.042 4.693-.088.18-.006.358-.11.537-.165a3.76 3.76 0 0 0-1.066-.697c-2.412-1.047-4.96-1.608-7.536-2.047-3.015-.513-6.043-.89-9.112-.622-.396.035-.785.139-1.178.21m3.988 16.138l.523-.38c3.865-2.802 7.732-5.603 11.596-8.407.915-.664 1.236-1.74 1.944-2.651-.995.023-1.86.036-2.723.069-.122.004-.254.092-.362.17a5068.44 5068.44 0 0 0-11.386 8.26c-.117.086-.258.286-.233.396.184.824.407 1.639.64 2.543m16.052-13.653c.338.459.35.869.06 1.323a7425.43 7425.43 0 0 0-5.962 9.353 9073.981 9073.981 0 0 0-7.78 12.26c-.181.286-.395.627-.74.475-.26-.115-.52-.443-.594-.724-.993-3.774-1.952-7.557-2.923-11.338-1.15-4.473-2.301-8.946-3.455-13.418-.158-.613-.043-1.078.535-1.331.598-.262 1.254-.466 1.9-.528 3.064-.294 6.097.074 9.113.575 2.763.459 5.5 1.039 8.08 2.172.643.282 1.225.707 1.834 1.065l-.068.116" id="Fill-119" fill="#4E0C30"/><path d="M94.117 100.243c-.302.127-.895.383-1.493.623-1.362.543-1.468 1.141-.365 2.118.407.362.845.693 1.22 1.083 1.156 1.199.83 2.823-.694 3.519-.527.24-1.074.434-1.61.657-.391.162-.706.39-.826.839-.096.365-.374.55-.741.445-.384-.11-.517-.41-.44-.803.108-.532.39-.966.854-1.222.579-.32 1.188-.587 1.799-.84 1.348-.563 1.456-1.177.354-2.128-.401-.345-.828-.662-1.2-1.034-1.101-1.1-.923-2.618.423-3.403.555-.323 1.183-.521 1.777-.778 1.094-.474 1.195-1.115.295-1.907-.422-.372-.876-.71-1.278-1.104-1.272-1.245-.96-2.918.67-3.645.452-.2.914-.38 1.373-.563.473-.188.876-.423 1.027-.974.093-.347.395-.46.738-.372.362.093.476.364.428.71-.088.617-.431 1.085-.957 1.38-.487.275-1.02.466-1.527.705-.5.232-1.14.352-1.255 1.003-.117.668.479.956.88 1.333.436.405.922.771 1.286 1.233.788 1 .57 2.197-.738 3.126" id="Fill-121" fill="#FEFEFE"/><path d="M100.537 92.672c.339.546.414 1.07.078 1.652.64-.245 1.14-.09 1.656.514-.067-.805.18-1.249.808-1.513-.661-.187-.962-.633-1.058-1.402-.39.696-.848.876-1.484.75m3.965 1.302c-.896.26-1.15.91-1.08 1.763.012.167-.01.345-.054.506-.12.435-.544.608-.927.37-.185-.115-.376-.254-.504-.426-.482-.655-1.09-.707-1.791-.438a2.26 2.26 0 0 1-.496.121c-.58.086-1.006-.369-.718-.86.583-.998.57-1.85-.193-2.762a.588.588 0 0 1 .594-.962c1.137.26 1.927-.045 2.56-1.04.323-.508 1.023-.317 1.082.29.109 1.14.616 1.834 1.754 2.088.185.042.414.352.428.551.014.196-.208.42-.354.61-.067.09-.2.127-.301.19" id="Fill-123" fill="#EAD063"/><path d="M86.28 93.045c-.399-.57-.287-1.094.021-1.656-.673.246-1.119-.07-1.585-.52.088.736-.395 1.03-1.034 1.344.748.224.973.69 1.017 1.403.464-.58.938-.769 1.581-.57m-4.26-1.464c.182-.09.357-.216.552-.264.737-.182 1.013-.664 1.054-1.393.021-.397-.025-.907.508-1.073.528-.165.737.311 1.047.577.026.022.054.045.071.073.377.62.908.707 1.577.536.406-.103.901-.3 1.223.174.305.45-.084.8-.255 1.172-.078.17-.224.318-.263.493-.05.225-.083.483-.02.696.097.323.321.607.417.93.076.252.154.637.025.784-.154.177-.522.197-.804.226a1.317 1.317 0 0 1-.6-.107c-.57-.228-.967.008-1.328.425-.177.205-.375.4-.588.567-.418.33-.994.152-.995-.364-.004-1.194-.487-1.942-1.633-2.353-.509-.184-.46-.802.011-1.099" id="Fill-125" fill="#EAD063"/><path d="M103.03 103.124c-1.881 1.023-3.321 2.271-4.455 3.867-.746 1.05-1.323 2.183-1.655 3.431-.11.41-.313.694-.778.625-.39-.058-.564-.427-.428-.93.648-2.405 1.954-4.413 3.81-6.043.801-.703 1.718-1.278 2.606-1.877.458-.308.988-.177 1.044.24.034.258-.11.541-.144.687" id="Fill-127" fill="#FEFEFE"/><path d="M105.432 107.05c-.55-.139-1.369.346-1.45-.562-.078-.86.781-.58 1.304-.808-.135-.21-.25-.408-.384-.595-.232-.328-.24-.668.075-.908.343-.259.68-.13.932.197.132.171.255.35.401.55.414-.398.4-1.358 1.22-.993.818.365.09.995.077 1.52.515.114 1.332-.35 1.411.55.075.852-.78.584-1.307.804.113.173.204.323.304.47.303.44.306.813.007 1.046-.3.235-.664.124-.99-.297-.113-.144-.229-.284-.399-.495-.143.292-.245.518-.36.734-.18.333-.46.464-.813.307-.35-.158-.439-.455-.312-.81.084-.233.183-.462.284-.71" id="Fill-129" fill="#EAD063"/><path d="M94.474 83.081c-.192-.558-.977-1.014-.3-1.528.707-.538.926.366 1.387.716.09-.17.17-.31.236-.458.241-.528.56-.717.926-.543.363.172.433.526.212 1.061-.058.14-.11.278-.199.504.29-.018.515-.026.741-.044.405-.033.681.152.738.541.06.406-.188.631-.584.692-.227.036-.455.07-.72.11.183.543.982 1.03.255 1.537-.7.487-.896-.387-1.35-.758-.115.228-.222.43-.319.634-.18.382-.474.558-.868.378-.407-.188-.417-.539-.255-.913.08-.186.157-.373.27-.644-.314.018-.557.036-.8.044-.37.013-.647-.133-.695-.522-.05-.409.181-.637.571-.706.231-.04.464-.063.754-.1" id="Fill-131" fill="#EAD063"/><path d="M78.327 104.07c-.384.393-.385 1.35-1.207.944-.758-.374-.11-.976-.033-1.503-.525-.121-1.372.35-1.432-.586-.052-.814.772-.562 1.305-.77-.148-.23-.277-.435-.412-.637-.215-.322-.186-.632.114-.86.324-.247.642-.172.89.15.142.187.275.38.47.647.142-.29.246-.497.348-.704.174-.356.458-.537.832-.374.365.158.46.477.308.855l-.296.733c.307-.026.536-.044.764-.065.407-.036.692.154.735.543.042.38-.17.647-.59.689-.232.023-.463.062-.728.099.144.547 1.034 1.015.231 1.553-.696.467-.865-.394-1.299-.714" id="Fill-133" fill="#EAD063"/><path d="M85.117 104.032c.13.534.292.957.328 1.39.096 1.164.154 2.332.193 3.499.013.408-.236.698-.669.669-.436-.03-.607-.343-.563-.757.147-1.407-.038-2.781-.397-4.14-.1-.375.026-.677.381-.77.218-.058.485.067.727.109" id="Fill-135" fill="#FEFEFE"/><path d="M83.2 100.186c.25.404.57.908.872 1.422.21.358.127.796-.181.935-.366.167-.648.04-.873-.292-.544-.801-1.102-1.595-1.657-2.39-.211-.302-.26-.612.028-.875.303-.28.635-.233.9.067.294.332.558.69.912 1.133" id="Fill-137" fill="#FEFEFE"/><path d="M100.169 109.215c-.341.156-.663.145-.878-.166-.214-.309-.15-.65.15-.859.302-.209.653-.152.864.154.208.302.12.616-.136.871" id="Fill-139" fill="#FEFEFE"/><path d="M106.122 118.584c.172.324.145.644-.164.85-.304.201-.627.144-.845-.175-.217-.32-.153-.639.15-.848.308-.21.613-.123.859.173" id="Fill-141" fill="#FEFEFE"/><path d="M105.933 113.923c.184.317.132.626-.175.831-.306.205-.637.144-.845-.168-.207-.31-.142-.64.166-.847.307-.206.612-.138.854.184" id="Fill-143" fill="#FEFEFE"/><path d="M95.786 89.905c-.32.189-.638.172-.858-.127-.216-.293-.188-.615.127-.851.313-.235.637-.17.855.113.223.289.156.606-.124.865" id="Fill-145" fill="#FEFEFE"/><path d="M105.323 99.83c.212.33.202.632-.101.867-.303.236-.62.181-.848-.108-.238-.297-.184-.627.105-.852.288-.224.599-.178.844.093" id="Fill-147" fill="#FEFEFE"/><path d="M87.714 99.82c.188.33.155.63-.157.847-.311.216-.616.162-.836-.156-.217-.315-.165-.611.15-.834.32-.226.601-.137.843.144" id="Fill-149" fill="#FEFEFE"/><path d="M89.605 87.96c-.338.211-.644.192-.87-.109-.228-.302-.18-.618.121-.848.306-.233.634-.174.853.112.222.29.163.604-.104.845" id="Fill-151" fill="#FEFEFE"/><path d="M99.893 98.968c.22.322.191.62-.108.854-.304.236-.62.18-.848-.11-.23-.298-.184-.63.11-.852.29-.219.601-.188.846.108" id="Fill-153" fill="#FEFEFE"/><path d="M80.724 108.84c-.33.2-.624.19-.859-.12-.235-.313-.177-.625.115-.849.297-.226.63-.178.851.12.221.294.17.601-.107.848" id="Fill-155" fill="#FEFEFE"/><path d="M74.379 113.438c-.312.169-.606.138-.824-.181-.22-.32-.147-.631.156-.84.307-.208.633-.148.842.164.208.307.144.608-.174.857" id="Fill-157" fill="#FEFEFE"/><path d="M84.382 97.432c.198.339.136.64-.169.847-.31.211-.64.142-.842-.164-.2-.303-.155-.624.17-.84.324-.213.608-.127.84.157" id="Fill-159" fill="#FEFEFE"/><path d="M95.343 104.75c.335-.199.633-.15.85.157.219.313.154.633-.15.844-.303.21-.619.158-.839-.16-.216-.317-.145-.604.139-.842" id="Fill-161" fill="#FEFEFE"/><path d="M73.564 106.804c.237.335.2.65-.088.874-.288.225-.617.187-.852-.116-.236-.304-.185-.632.1-.856.287-.223.603-.178.84.098" id="Fill-163" fill="#FEFEFE"/><path d="M79.125 95.647c.322-.187.618-.171.849.14.23.31.178.625-.118.845-.297.222-.615.177-.844-.131-.228-.307-.166-.6.113-.854" id="Fill-165" fill="#FEFEFE"/><path d="M110.85 111.318l.47.305-.217-.605.066-.141c.281.14.636.217.82.439.205.247-.076.703-.425.773-.558.11-.635-.291-.715-.771" id="Fill-167" fill="#FEFEFE"/><path d="M85.214 128.113c-.234-.904-.458-1.72-.642-2.543-.025-.11.117-.31.234-.395a5068.44 5068.44 0 0 1 11.386-8.261c.107-.078.239-.166.361-.17.865-.033 1.729-.046 2.724-.07-.708.913-1.029 1.988-1.944 2.652-3.865 2.804-7.731 5.605-11.597 8.408l-.522.379" id="Fill-169" fill="#EAD063"/><path d="M81.226 111.975c.392-.071.782-.175 1.177-.21 3.07-.269 6.097.108 9.112.622 2.576.439 5.124 1 7.536 2.047.37.161.716.375 1.067.696-.179.057-.357.159-.538.165-1.564.047-3.136.192-4.693.089-4.012-.263-7.959-.939-11.759-2.31-.664-.241-1.293-.578-1.938-.87l.036-.229" id="Fill-171" fill="#5BC5CB"/><path d="M84.16 124.006c-.222-.858-.443-1.659-.625-2.469-.026-.114.099-.319.212-.402a1042.3 1042.3 0 0 1 6.62-4.802.733.733 0 0 1 .47-.12c1.084.118 2.165.257 3.247.392.043.005.082.04.169.085-3.358 2.433-6.685 4.846-10.092 7.316" id="Fill-173" fill="#5BC5CB"/><path d="M95.8 122.114c-1.054 1.666-2.058 3.203-3.008 4.773-.444.733-1.005 1.302-1.704 1.788-1.454 1.01-2.875 2.07-4.31 3.11l-.527.383c-.23-.904-.45-1.718-.638-2.54-.022-.105.088-.29.19-.365 3.239-2.357 6.481-4.705 9.727-7.053.035-.027.088-.033.27-.096" id="Fill-175" fill="#F79D61"/><path d="M83.116 119.948c-.222-.867-.441-1.67-.621-2.481-.026-.117.1-.321.213-.406.805-.605 1.622-1.194 2.444-1.775.114-.081.29-.153.416-.127 1.028.22 2.052.467 3.156.723-1.884 1.366-3.71 2.688-5.608 4.066" id="Fill-177" fill="#781634"/><path d="M90.098 131.103l-2.838 4.477-.139.008c-.162-.664-.33-1.326-.479-1.992-.015-.066.078-.184.151-.237a502.694 502.694 0 0 1 3.15-2.272c.017-.012.057.005.155.016" id="Fill-179" fill="#E46E7D"/><path d="M82.078 115.902l-.525-2.088 2.237.847-1.712 1.24" id="Fill-181" fill="#DF5042"/><path d="M100.537 92.672c.636.127 1.094-.053 1.484-.749.096.77.397 1.215 1.058 1.402-.628.264-.875.708-.808 1.513-.515-.605-1.016-.759-1.656-.514.336-.583.26-1.106-.078-1.652" id="Fill-183" fill="#FEFEFE"/><path d="M86.28 93.045c-.643-.198-1.117-.009-1.58.571-.045-.714-.27-1.179-1.018-1.403.64-.314 1.122-.608 1.034-1.344.466.45.912.766 1.585.52-.308.562-.42 1.085-.02 1.656" id="Fill-185" fill="#FEFEFE"/><path d="M58.493 106.887c.281.464.352.48.758.19 1.06-.759 2.121-1.517 3.181-2.277.38-.27.386-.414.031-.752l-3.97 2.84m2.554-4.858l-3.983 2.848.332.464 3.993-2.855c-.069-.097-.128-.18-.189-.263-.046-.062-.095-.12-.153-.194m-5.174 1.38l4.14-2.96c-.106-.279-.215-.535-.302-.797-.372-1.114-.378-2.27-.37-3.425.011-1.708-.13-3.378-1.035-4.898-.786-1.32-1.813-2.37-3.299-2.838-2.58-.81-4.91-.308-6.847 1.597-1.545 1.52-2.213 3.406-1.91 5.573.245 1.76 1.277 3.061 2.606 4.153.958.785 2.108 1.19 3.261 1.58 1.362.46 2.704.956 3.756 2.014m4.297 5.306c-1.182.71-2.344.47-3.136-.638-.648-.905-1.309-1.8-1.939-2.718a4.395 4.395 0 0 0-2.04-1.636c-.896-.355-1.81-.663-2.71-1.005-1.364-.518-2.579-1.275-3.6-2.322-2.019-2.068-2.84-4.513-2.243-7.367a8.214 8.214 0 0 1 2.532-4.454c2.128-1.955 4.64-2.652 7.466-2.146 1.785.32 3.27 1.21 4.444 2.606 1.493 1.778 2.16 3.85 2.221 6.141.024.894.028 1.788.07 2.682.041.905.333 1.722.885 2.458.68.903 1.322 1.835 1.978 2.755.761 1.066.596 2.307-.432 3.138.435 1.086.25 2.066-.71 2.768-.748.55-1.816.598-2.786-.262" id="Fill-187" fill="#E46E7D"/><path d="M50.772 89.153l.016.07c-.51.347-.58.95-.152 1.38.275.277.609.326.986.237.988-.238 1.958-.158 2.862.306.44.226.833.552 1.238.845.403.292.987.253 1.302-.103.29-.328.27-.965-.05-1.265-1.447-1.352-3.155-1.938-5.126-1.708-.363.042-.718.156-1.076.238m5.102 14.257c-1.053-1.06-2.394-1.556-3.757-2.016-1.153-.388-2.303-.794-3.26-1.58-1.33-1.091-2.361-2.391-2.607-4.151-.302-2.167.365-4.054 1.91-5.573 1.937-1.906 4.267-2.41 6.847-1.597 1.486.467 2.514 1.517 3.299 2.838.904 1.519 1.047 3.189 1.036 4.897-.008 1.155-.002 2.312.369 3.425.088.263.196.519.302.796l-4.14 2.96" id="Fill-189" fill="#EAD063"/><path d="M61.047 102.03c.059.073.108.133.154.194.06.082.118.166.188.263l-3.992 2.856-.332-.464 3.983-2.85" id="Fill-191" fill="#FEFEFE"/><path d="M58.493 106.887l3.97-2.839c.355.338.348.482-.03.752-1.06.76-2.122 1.518-3.182 2.276-.406.29-.477.275-.758-.189" id="Fill-193" fill="#FEFEFE"/><path d="M50.772 89.153c.358-.082.713-.196 1.076-.238 1.97-.23 3.679.356 5.127 1.708.32.3.339.937.049 1.265-.315.356-.9.395-1.302.103-.405-.293-.797-.62-1.238-.845-.904-.464-1.874-.544-2.862-.306-.377.089-.711.04-.986-.237-.428-.43-.357-1.033.152-1.38l-.016-.07z" id="Fill-195" fill="#FEFEFE"/><path d="M130.64 48.073c.1.532.16.572.642.443l3.78-1.008c.45-.122.507-.252.293-.695l-4.716 1.26m4.102-3.647l-4.73 1.263c.051.197.1.375.146.552l4.742-1.267c-.03-.115-.056-.214-.084-.313-.02-.073-.046-.146-.074-.235m-5.329-.531l4.917-1.313c-.002-.297-.012-.574-.002-.851.044-1.174.446-2.258.86-3.336.612-1.594 1.067-3.208.756-4.95-.27-1.511-.863-2.855-2.088-3.816-2.129-1.67-4.487-2.018-6.97-.917-1.982.878-3.27 2.408-3.752 4.543-.39 1.733.118 3.314.978 4.804.62 1.073 1.553 1.857 2.495 2.626 1.114.91 2.194 1.849 2.806 3.21m2.154 6.479c-1.357.249-2.36-.385-2.712-1.701-.287-1.077-.59-2.148-.857-3.228a4.39 4.39 0 0 0-1.333-2.25c-.713-.646-1.46-1.257-2.182-1.894-1.094-.966-1.965-2.102-2.553-3.442-1.16-2.645-1.068-5.224.497-7.684a8.214 8.214 0 0 1 3.94-3.278c2.678-1.08 5.275-.847 7.742.62 1.557.929 2.634 2.285 3.24 4.006.772 2.19.666 4.363-.083 6.53-.292.845-.605 1.684-.88 2.534a4.338 4.338 0 0 0-.036 2.613c.316 1.085.59 2.182.881 3.274.336 1.267-.255 2.37-1.51 2.786.024 1.169-.495 2.02-1.64 2.34-.893.25-1.91-.08-2.514-1.226" id="Fill-197" fill="#E46E7D"/><path d="M129.659 28.754l-.01.072c-.597.145-.878.685-.63 1.238.16.355.457.52.84.568 1.01.126 1.889.543 2.572 1.295.333.366.585.81.86 1.226.275.415.836.585 1.256.363.387-.204.594-.808.399-1.2-.878-1.777-2.27-2.926-4.196-3.406-.355-.089-.727-.106-1.091-.156m-.246 15.141c-.612-1.362-1.692-2.3-2.807-3.21-.941-.77-1.875-1.554-2.495-2.626-.86-1.49-1.367-3.072-.977-4.805.48-2.135 1.769-3.665 3.75-4.543 2.484-1.1 4.842-.752 6.97.917 1.227.961 1.82 2.306 2.089 3.817.312 1.742-.143 3.355-.756 4.95-.414 1.078-.815 2.162-.86 3.336-.01.276 0 .553.003.85l-4.917 1.314" id="Fill-199" fill="#EAD063"/><path d="M134.74 44.425c.029.09.055.162.075.235.029.1.054.2.084.314l-4.742 1.266-.146-.55 4.73-1.265" id="Fill-201" fill="#FEFEFE"/><path d="M130.64 48.073l4.715-1.26c.214.443.156.573-.294.695l-3.779 1.008c-.482.129-.543.089-.643-.443" id="Fill-203" fill="#FEFEFE"/><path d="M129.659 28.754c.364.05.736.067 1.09.156 1.927.48 3.319 1.63 4.197 3.405.195.393-.012.997-.4 1.201-.42.222-.98.052-1.254-.363-.276-.417-.528-.86-.861-1.226-.683-.752-1.562-1.169-2.571-1.295-.384-.049-.68-.213-.84-.568-.25-.553.032-1.093.629-1.238l.01-.072" id="Fill-205" fill="#FEFEFE"/><path d="M66.044 45.171l-.03 1.938c.667-.17 1.443-.18 1.279-1.052-.058-.305-.681-.503-1.25-.886m-.008-.722c1.043.222 1.576.035 1.68-.547.13-.732-.47-1.277-1.693-1.454-.005.362-.016.711-.014 1.062.002.32.017.64.027.94m1.444-5.526c.366-1.602.327-2.123-1.302-2.517-.227 1.988-.17 2.102 1.302 2.517m-1.324.473c-.255 1.78-.142 2.234.712 2.273.352.016.915-.357 1.05-.689.29-.719-.265-1.185-1.762-1.584m2.304-2.498c-.065.987-.402 1.94-.11 2.626.479 1.128.403 1.993-.131 2.566.034 1 .322 1.856.018 2.335-.468.738-.2 1.253-.017 1.881 1.123-.548 1.484-1.436 1.23-2.556-.127-.56-.013-1.184.027-1.778.114-1.726.7-3.53-1.017-5.074m-3.136-1.09c-1.654-.026-3.217-.083-4.78-.057-.7.012-1.13.581-1.015 1.192.08.44.584 1.102.948 1.136 1.578.148 3.175.101 4.81.125.014-.83.024-1.54.037-2.397m-.235 9.536c-1.48-.023-2.98-.076-4.478-.055-.754.012-1.23.446-1.217 1.25.012.816.528 1.165 1.272 1.201.85.042 1.704.037 2.556.05 1.79.022 2.232-.529 1.867-2.446m.176-6.365c-1.987-.03-3.906-.096-5.823-.068-.7.01-1.23.531-1.088 1.23.086.426.606 1.06.967 1.086 1.944.134 3.899.108 5.908.138l.036-2.386m-.05 3.18c-1.982-.03-3.9-.092-5.817-.07-.661.007-1.067.472-1.102 1.157-.036.696.326 1.178 1.01 1.203 1.947.073 3.897.074 5.875.104l.035-2.395m-.778-7.463l3.102 1.324c-.11-1.199-.253-2.534-.342-3.872-.046-.685.025-1.377.01-2.065-.016-.802-.434-1.295-1.24-1.387-.753-.085-1.404.438-1.444 1.278-.078 1.631-.064 3.266-.086 4.722m-5.542 10.552c-1.551-1.03-1.735-1.948-.743-3.48-.922-1.942-.786-2.572.836-3.65-.06-.22-.133-.46-.188-.705-.277-1.235.512-2.332 1.78-2.41.717-.045 1.446-.05 2.16.025.815.086 1.015-.263 1-1.005-.026-1.277.013-2.556.05-3.833.044-1.413.915-2.303 2.167-2.252 1.197.047 2.002.983 1.997 2.325-.002.491.03.988-.03 1.473-.258 2.105.225 3.921 1.762 5.482.425.433.643 1.241.645 1.88.004 1.19-.23 2.382-.34 3.576-.023.248.032.517.105.76.476 1.571-.195 3.148-1.698 3.704-2.268.837-4.525 1.62-7.05 1.4-2.37-.209-3.08-.978-2.453-3.29" id="Fill-207" fill="#231F20"/><path d="M65.215 42.159l-.036 2.395c-1.977-.031-3.927-.032-5.874-.104-.685-.025-1.046-.507-1.01-1.203.034-.686.441-1.15 1.101-1.157 1.918-.022 3.836.04 5.819.069" id="Fill-209" fill="#F3D8BF"/><path d="M65.323 35.808l-.036 2.397c-1.636-.024-3.233.023-4.811-.125-.364-.034-.867-.696-.948-1.135-.114-.612.315-1.181 1.016-1.193 1.56-.026 3.125.032 4.779.056" id="Fill-211" fill="#F3D8BF"/><path d="M64.436 34.696c.022-1.456.01-3.092.086-4.723.04-.84.691-1.362 1.445-1.277.806.092 1.223.585 1.24 1.387.015.687-.057 1.38-.01 2.064.088 1.339.233 2.674.342 3.872-.794-.34-1.842-.786-3.103-1.323" id="Fill-213" fill="#F3D8BF"/><path d="M65.263 38.979l-.036 2.387c-2.009-.031-3.964-.004-5.907-.14-.362-.024-.882-.66-.968-1.085-.14-.698.39-1.22 1.088-1.23 1.918-.028 3.836.039 5.823.068" id="Fill-215" fill="#F3D8BF"/><path d="M65.088 45.344c.365 1.917-.076 2.468-1.867 2.445-.852-.01-1.705-.007-2.556-.049-.744-.036-1.26-.385-1.272-1.2-.013-.804.463-1.239 1.217-1.25 1.499-.022 2.999.032 4.478.054" id="Fill-217" fill="#F3D8BF"/><path d="M68.458 36.899c1.718 1.543 1.132 3.349 1.017 5.074-.039.594-.154 1.217-.027 1.779.254 1.12-.107 2.007-1.229 2.555-.183-.628-.452-1.142.016-1.881.305-.478.016-1.335-.018-2.335.535-.573.61-1.437.131-2.565-.292-.687.046-1.64.11-2.627" id="Fill-219" fill="#F3D8BF"/><path d="M66.155 39.397c1.497.399 2.052.865 1.761 1.584-.134.332-.698.705-1.05.689-.854-.04-.966-.493-.711-2.273" id="Fill-221" fill="#F3D8BF"/><path d="M67.479 38.924c-1.472-.415-1.53-.529-1.302-2.517 1.629.394 1.668.915 1.302 2.517" id="Fill-223" fill="#F3D8BF"/><path d="M66.034 44.45c-.009-.301-.025-.62-.027-.94-.002-.35.01-.7.014-1.061 1.223.177 1.823.722 1.693 1.454-.103.58-.637.769-1.68.547" id="Fill-225" fill="#F3D8BF"/><path d="M66.044 45.171c.568.383 1.19.581 1.249.886.164.872-.612.882-1.278 1.052l.029-1.938" id="Fill-227" fill="#F3D8BF"/><path d="M67.521 71.058c.116 6.127-4.757 11.188-10.884 11.305-6.127.117-11.189-4.756-11.305-10.884-.117-6.127 4.756-11.189 10.884-11.305 6.127-.116 11.188 4.757 11.305 10.884" id="Fill-229" fill="#3D5875"/></g><g id="Group-241" transform="translate(91 92)"><g id="Group-234"><mask id="mask-6" fill="#fff"><use xlink:href="#path-5"/></mask><path d="M7.324 19.192c-.016-.825-.033-1.651-.047-2.477-.022-1.314.74-2.371 1.994-2.771.099-.031.264.005.277-.151.01-.116-.122-.154-.201-.215-1.172-.92-1.586-2.292-1.127-3.74.392-1.24 1.64-2.198 3.024-2.216 1.813-.025 3.282 1.365 3.372 3.065.062 1.158-.342 2.088-1.213 2.833-.067.057-.158.112-.12.219.03.087.124.078.2.086 1.257.123 2.4 1.335 2.36 2.856-.044 1.69.032 3.38.078 5.069.009.338-.08.486-.377.595-1.916.703-3.874.933-5.898.612-.64-.102-1.255-.29-1.878-.454-.282-.075-.395-.23-.396-.524-.004-.93-.03-1.857-.048-2.787" id="Fill-232" fill="#EAD063" mask="url(#mask-6)"/></g><g id="Group-237"><mask id="mask-8" fill="#fff"><use xlink:href="#path-7"/></mask><path d="M18.565 10.019c1.062-.016 2.084.65 2.483 1.607.503 1.205.154 2.268-.562 3.003-.31.318-.189.337.122.426.31.088.598.235.843.458.152.139.2.272.126.477-.887 2.473-2.456 4.387-4.71 5.738-.294.177-.356.136-.365-.246a611.44 611.44 0 0 1-.083-4.487c-.005-.39-.017-.781-.118-1.152-.102-.372.021-.543.36-.668.414-.151.406-.171.09-.452-.787-.697-1.099-1.903-.74-2.864.426-1.147 1.365-1.822 2.554-1.84" id="Fill-235" fill="#E46E7D" mask="url(#mask-8)"/></g><g id="Group-240"><mask id="mask-10" fill="#fff"><use xlink:href="#path-9"/></mask><path d="M6.525 15.159c.397.103.398.334.29.628-.103.282-.086.584-.08.882.03 1.626.063 3.252.09 4.878.01.508-.086.57-.524.323-1.978-1.115-3.481-2.681-4.474-4.732a.667.667 0 0 1 .006-.656c.275-.532.706-.885 1.256-1.09.269-.1.25-.162.049-.341-1.62-1.438-1.118-3.934.927-4.644.99-.344 2.178-.01 2.88.814.69.808.83 2.108.338 3.016a3.085 3.085 0 0 1-.758.922" id="Fill-238" fill="#F79D61" mask="url(#mask-10)"/></g></g><path d="M164.242 97.768a4.558 4.558 0 1 1-9.113.173 4.557 4.557 0 1 1 9.113-.173" id="Fill-242" fill="#3D5875"/><g id="Group-253" transform="translate(155 93)"><g id="Group-246"><mask id="mask-12" fill="#fff"><use xlink:href="#path-11"/></mask><path d="M3 8.109L2.98 7.09a1.137 1.137 0 0 1 .82-1.137c.04-.013.108.002.114-.063.004-.047-.051-.062-.083-.088-.481-.378-.651-.941-.463-1.536a1.346 1.346 0 0 1 1.242-.91c.745-.011 1.349.56 1.385 1.259a1.35 1.35 0 0 1-.498 1.163c-.027.023-.064.047-.05.09.014.036.052.033.083.036.517.05.986.548.97 1.173-.02.694.013 1.388.03 2.082.005.138-.031.2-.153.244a4.753 4.753 0 0 1-2.423.252c-.263-.042-.516-.12-.771-.187-.116-.031-.162-.093-.162-.214-.002-.382-.013-.764-.021-1.146" id="Fill-244" fill="#EAD063" mask="url(#mask-12)"/></g><g id="Group-249"><mask id="mask-14" fill="#fff"><use xlink:href="#path-13"/></mask><path d="M7.618 4.341a1.11 1.11 0 0 1 1.02.66c.206.495.063.932-.232 1.234-.127.13-.077.138.05.174a.863.863 0 0 1 .348.19c.06.055.08.11.05.194A4.404 4.404 0 0 1 6.92 9.151c-.12.072-.146.055-.15-.102a283.2 283.2 0 0 1-.034-1.843 1.856 1.856 0 0 0-.05-.472c-.041-.154.01-.224.15-.275.17-.062.167-.07.036-.186a1.11 1.11 0 0 1-.304-1.176c.175-.47.56-.749 1.05-.756" id="Fill-247" fill="#E46E7D" mask="url(#mask-14)"/></g><g id="Group-252"><mask id="mask-16" fill="#fff"><use xlink:href="#path-15"/></mask><path d="M2.672 6.452c.163.043.164.138.12.258-.043.117-.036.24-.034.362.014.668.026 1.336.038 2.003.004.21-.036.235-.216.135A4.393 4.393 0 0 1 .742 7.264a.272.272 0 0 1 .003-.269.919.919 0 0 1 .516-.447c.11-.04.103-.067.02-.14-.666-.59-.46-1.615.38-1.908a1.113 1.113 0 0 1 1.184.335c.283.332.34.865.139 1.239a1.274 1.274 0 0 1-.312.378" id="Fill-250" fill="#F79D61" mask="url(#mask-16)"/></g></g><g id="Group-362" transform="translate(71 42)"><path d="M17.869 8.09a9.975 9.975 0 0 1 2.557-1.585c6.348-2.707 13.32 1.101 14.616 7.576.719 3.593-.17 6.788-2.692 9.444-4.547 4.788-9.148 9.526-13.728 14.285-.051.053-.107.105-.13.128-4.778-4.595-9.55-9.184-14.34-13.788.082 0 .19-.003.3-.005 1.307-.026 2.615-.059 3.922-.068.267-.002.399-.1.52-.324.975-1.79 1.96-3.575 2.942-5.36.05-.093.106-.184.194-.336l3.729 10.55 4.38-8.026c.623 1.008 1.23 1.975 1.818 2.954.14.233.287.323.563.314 1.307-.04 2.615-.053 3.922-.083.704-.017 1.135-.34 1.272-.926.16-.689-.37-1.384-1.077-1.38-.962.004-1.924.02-2.885.056-.256.01-.386-.08-.511-.288-1-1.653-2.01-3.298-3.015-4.946-.061-.1-.124-.198-.217-.346l-3.781 7.017-3.693-10.525c-.167.3-.31.552-.45.805-1.514 2.748-3.031 5.495-4.54 8.247-.117.214-.243.301-.495.303-1.503.015-3.005.045-4.507.084-.237.007-.362-.065-.478-.273C-.215 17.488.5 12.316 3.827 8.986c1.738-1.739 3.832-2.758 6.28-3.043 2.813-.327 5.34.405 7.618 2.058.035.026.074.045.144.088" id="Fill-254" fill="#E46E7D"/><path d="M92.563 47.906a1.756 1.756 0 0 0 1.503-1.95c-.12-.952-.989-1.64-1.93-1.528a1.749 1.749 0 0 0-1.525 1.928c.113.979.99 1.674 1.952 1.55M78.797 37.263c1.414-.135 2.475-1.375 2.351-2.746-.14-1.538-1.362-2.601-2.837-2.468-1.436.128-2.528 1.39-2.39 2.76.162 1.594 1.343 2.602 2.876 2.454m-24.69 27.845c-1.91.253-3.282 1.987-3.03 3.836.272 2.016 1.96 3.348 3.918 3.095 1.92-.248 3.281-1.996 3.03-3.887-.26-1.96-1.983-3.3-3.918-3.044m12.608-12.201c.35 2.863 2.958 4.92 5.81 4.58a5.262 5.262 0 0 0 4.607-5.836c-.324-2.863-2.978-4.953-5.843-4.601a5.242 5.242 0 0 0-4.574 5.857m7.72-7.127c1.848.73 3.118 2.027 3.94 3.813l10.474-2.74c.001-.365-.025-.711.008-1.05.176-1.774 1.586-3.041 3.456-3.121 1.613-.07 3.143 1.182 3.47 2.84.324 1.643-.679 3.427-2.284 3.949-1.313.427-2.53.192-3.55-.776-.199-.188-.365-.25-.62-.181-3.44.917-6.88 1.828-10.319 2.74-.029.007-.053.03.03-.02-.15 1.068-.169 2.092-.46 3.03-.294.943-.859 1.8-1.338 2.764l.635.715-1.225 1.139c-.044-.012-.068-.011-.073-.021-.512-.828-1.062-.61-1.828-.255-2.487 1.157-4.869.825-7.064-.817-.138-.103-.245-.244-.373-.374L58.47 65.07c.726.856 1.174 1.808 1.305 2.897.3 2.456-1.262 4.867-3.624 5.6-2.703.84-5.472-.5-6.507-3.148-.994-2.544.195-5.446 2.736-6.617 1.438-.663 2.897-.657 4.34.012.226.106.383.117.585-.058 2.877-2.502 5.761-4.996 8.643-7.492.047-.041.087-.09.152-.157-1.255-1.912-1.493-3.962-.758-6.17l-1.012-.614.854-1.496.827.455c.765-.671 1.448-1.37 2.23-1.931 1.19-.853 2.575-1.146 4.031-1.06.324.019.496-.06.634-.378.976-2.253 1.976-4.495 2.967-6.736-1.93-1.634-2.28-4.143-.865-6.11 1.208-1.68 3.577-2.252 5.413-1.342 1.951.967 2.914 3.107 2.318 5.149-.544 1.858-2.453 3.6-5.286 3.065l-3.018 6.84" id="Fill-256" fill="#3D5875"/><path d="M88.888 67.797c-1.437.178-2.454 1.44-2.292 2.843.176 1.515 1.447 2.543 2.926 2.36 1.43-.176 2.474-1.494 2.298-2.9-.185-1.472-1.473-2.484-2.932-2.303m-3.938.1l1.2-1.112.045.112c.178-.037.388-.025.532-.117 1.891-1.22 4.28-.943 5.715.678 1.492 1.685 1.538 4.061.063 5.784-1.068 1.25-2.473 1.731-4.076 1.448-1.648-.292-2.77-1.294-3.352-2.866-.358-.966-.333-1.944.018-2.914.193-.535.19-.536-.145-1.013" id="Fill-258" fill="#3D5875"/><path d="M56.933 45.326a1.755 1.755 0 0 0 1.503-1.95c-.12-.952-.989-1.641-1.929-1.53a1.75 1.75 0 0 0-1.526 1.93c.114.979.99 1.674 1.952 1.55m3.668-.075l-.868 1.512c-.547-.633-1.027-.304-1.577-.027-1.3.657-2.782.382-3.887-.64-.974-.901-1.32-2.403-.854-3.696a3.472 3.472 0 0 1 3.12-2.292c2.252-.114 4.031 1.905 3.598 4.085-.125.635-.125.635.468 1.058" id="Fill-260" fill="#3D5875"/><path d="M81.355 64.079l-1.189-1.303 1.28-1.184 1.19 1.296-1.28 1.19" id="Fill-262" fill="#3D5875"/><path d="M61.28 47.617c.304-.542.572-1.02.862-1.534l1.516.874-.86 1.515-1.518-.855" id="Fill-264" fill="#3D5875"/><path d="M77.789 60.212c.442-.407.846-.778 1.284-1.183l1.185 1.273-1.28 1.186-1.19-1.276" id="Fill-266" fill="#3D5875"/><path d="M83.726 66.643l-1.18-1.278 1.275-1.187 1.19 1.276-1.285 1.189" id="Fill-268" fill="#3D5875"/><path d="M66.716 52.907a5.241 5.241 0 0 1 4.573-5.857c2.864-.352 5.52 1.738 5.843 4.6a5.263 5.263 0 0 1-4.607 5.837c-2.852.34-5.46-1.717-5.81-4.58" id="Fill-270" fill="#DF5042"/><path d="M54.108 65.108c1.934-.255 3.658 1.084 3.918 3.044.25 1.89-1.112 3.639-3.03 3.887-1.96.253-3.646-1.08-3.92-3.095-.251-1.85 1.12-3.583 3.032-3.836" id="Fill-272" fill="#5BC5CB"/><path d="M78.797 37.263c-1.532.147-2.715-.86-2.876-2.453-.139-1.37.953-2.633 2.39-2.762 1.474-.133 2.697.931 2.837 2.47.124 1.37-.936 2.61-2.35 2.745" id="Fill-274" fill="#EAD063"/><path d="M92.563 47.906a1.749 1.749 0 0 1-1.952-1.55 1.749 1.749 0 0 1 1.525-1.928c.941-.112 1.81.576 1.93 1.529a1.756 1.756 0 0 1-1.503 1.949" id="Fill-276" fill="#E46E7D"/><path d="M88.888 67.797c1.46-.18 2.747.831 2.932 2.303.176 1.406-.869 2.724-2.298 2.9-1.479.183-2.75-.845-2.926-2.36-.162-1.404.855-2.665 2.292-2.843" id="Fill-278" fill="#EAD063"/><path d="M56.933 45.326c-.962.124-1.838-.571-1.952-1.55a1.75 1.75 0 0 1 1.526-1.93c.94-.111 1.808.578 1.93 1.53.12.945-.56 1.827-1.504 1.95" id="Fill-280" fill="#4E0C30"/><path d="M25.007 43.148c-1.139-.284-2.838.72-3.008-1.162-.16-1.785 1.622-1.204 2.708-1.677-.282-.437-.524-.846-.798-1.232-.481-.681-.501-1.385.156-1.883.709-.536 1.405-.271 1.932.409.275.355.529.725.83 1.14.86-.826.831-2.816 2.527-2.06 1.698.757.191 2.063.162 3.152 1.07.237 2.762-.726 2.926 1.14.156 1.768-1.62 1.212-2.708 1.667.231.36.422.67.629.972.626.914.634 1.689.014 2.173-.623.486-1.377.257-2.055-.618-.23-.298-.472-.587-.824-1.024-.297.606-.507 1.072-.75 1.52-.372.69-.952.962-1.68.636-.729-.326-.913-.941-.648-1.678.173-.485.38-.958.587-1.475" id="Fill-282" fill="#EAD063"/><path d="M122.26 30.22s-.814-1.724-.28-2.48c.534-.755 3.073-3.257 3.951-3.042.88.213-.876 1.525-.876 1.525s2.4-.168 2.066.413c-.334.581-1.278 1.005-1.278 1.005s2.936.818 2.693 1.064c-.242.247-1.46.452-1.46.452s1.99 1.591 1.58 2.128c-.409.538-.927.047-.927.047s-1.018 2.12-2.07 2.385c0 0 4.202 4.54 4.211 5.221.01.681-3.23-2.918-3.23-2.918s-3.607-1.396-4.645-2.378c-1.038-.983-2.353-3.573-2.956-3.92-.602-.346-1.54-.98-1.54-.98s2.123-.907 4.76 1.477" id="Fill-284" fill="#4E0C30"/><path d="M74.374 67.298s-.197-1.458.372-1.89c.57-.432 3.024-1.683 3.62-1.32.598.362-1.001.92-1.001.92s1.807.436 1.426.785c-.382.351-1.176.443-1.176.443s1.97 1.287 1.736 1.412c-.236.126-1.182-.008-1.182-.008s1.096 1.636.669 1.936c-.427.301-.695-.18-.695-.18s-1.245 1.323-2.082 1.272c0 0 2.038 4.323 1.885 4.828-.152.504-1.7-2.903-1.7-2.903s-2.33-1.869-2.865-2.835c-.535-.966-.901-3.18-1.263-3.576a24.998 24.998 0 0 1-.905-1.082s1.774-.172 3.16 2.198" id="Fill-286" fill="#F79D61"/><path d="M92.956 39.006s-1.447-.364-1.64-1.063c-.192-.7-.445-3.48.12-3.906.569-.425.49 1.29.49 1.29s1.092-1.537 1.277-1.046c.187.492-.027 1.274-.027 1.274s1.955-1.37 1.984-1.102c.028.27-.453 1.11-.453 1.11s1.952-.415 2.075.1c.122.515-.433.585-.433.585s.778 1.67.414 2.44c0 0 4.838-.289 5.255.045.417.333-3.374.504-3.374.504s-2.636 1.49-3.747 1.63c-1.111.14-3.334-.35-3.843-.159-.51.194-1.36.444-1.36.444s.507-1.735 3.262-2.146" id="Fill-288" fill="#4E0C30"/><path d="M121.552 51.118l-1.764 3.604-1.759 3.599-2.849-1.394 3.521-7.2-6.382-3.123-.085.174-3.532 7.219c-.162.332-.116.475.211.635l14.77 7.223c.312.155.45.112.593-.182l3.572-7.301c.02-.043.038-.09.061-.144l-6.357-3.11" id="Fill-290" fill="#E46E7D"/><path d="M125.278 45.203c.785.081 1.57.161 2.355.248.1.011.214.033.291.091a.31.31 0 0 1 .107.38c-.066.172-.213.214-.377.198-.512-.05-1.022-.106-1.534-.16-.491-.05-.984-.099-1.488-.121.022.013.042.03.064.041.91.445 1.818.896 2.732 1.334.651.31 1.384.175 1.848-.32.602-.639.471-1.745-.26-2.271-.456-.33-.943-.405-1.482-.265-.897.236-1.796.459-2.694.689-.059.014-.116.035-.173.053l.001.032c.203.024.406.05.61.07m-4.423-3.295l-.497-1.148c-.45-1.041-1.793-1.36-2.584-.612-.788.744-.591 2.017.41 2.532.879.453 1.774.873 2.661 1.307.05.026.1.05.173.053-.043-.05-.084-.102-.13-.15-.653-.687-1.31-1.37-1.959-2.06a.528.528 0 0 1-.127-.288c-.013-.137.068-.245.205-.292a.337.337 0 0 1 .384.093c.639.668 1.28 1.333 1.92 1.998l.23.233.028-.014-.714-1.652m1.279 8l1.787-3.652-2.824-1.382c-.591 1.212-1.186 2.425-1.786 3.652l2.823 1.382m-5.422-7.975c-.017-.079-.037-.156-.051-.233-.118-.63-.017-1.218.389-1.72 1.178-1.456 3.232-.968 3.901.507.472 1.04.91 2.095 1.364 3.143l.537 1.23 2.137-.552c.714-.183 1.431-.352 2.14-.553.721-.206 1.41-.197 2.081.18 1.281.724 1.521 2.495.455 3.502-.213.202-.485.34-.738.514l.164.08c.828.404 1.656.81 2.483 1.215.316.155.369.305.216.617-.66 1.353-1.322 2.704-1.984 4.056-.157.322-.292.367-.618.208-5.848-2.861-11.696-5.721-17.545-8.584-.322-.157-.369-.296-.213-.616a3014.05 3014.05 0 0 1 1.976-4.038c.163-.334.307-.38.647-.213l2.467 1.207c.058.026.115.055.169.083.017-.025.024-.03.023-.034" id="Fill-292" fill="#E46E7D"/><path d="M119.311 48.525l2.823 1.382c.597-1.22 1.19-2.43 1.786-3.653l-2.823-1.38-1.786 3.65" id="Fill-294" fill="#FEFEFE"/><path d="M121.569 43.56l-.714-1.653-.497-1.149c-.45-1.041-1.793-1.359-2.584-.611-.788.743-.591 2.017.41 2.532.879.452 1.774.873 2.661 1.308.05.024.1.049.173.052-.043-.05-.084-.102-.13-.15-.653-.686-1.31-1.37-1.959-2.06a.531.531 0 0 1-.127-.288c-.013-.137.068-.246.205-.293a.34.34 0 0 1 .384.094c.639.667 1.28 1.332 1.92 1.997l.23.235.028-.014" id="Fill-296" fill="#FEFEFE"/><path d="M124.668 45.132c.203.023.406.05.61.07.786.082 1.57.162 2.356.25a.623.623 0 0 1 .29.09c.12.09.165.231.107.38-.066.171-.213.213-.377.197-.511-.05-1.022-.106-1.534-.159-.491-.05-.983-.099-1.487-.122.02.014.04.03.063.042.91.445 1.819.897 2.733 1.333.65.311 1.384.175 1.847-.318.602-.64.47-1.746-.26-2.273-.455-.329-.943-.405-1.482-.264-.896.235-1.796.46-2.694.688-.06.015-.115.035-.173.054a.342.342 0 0 1 0 .032" id="Fill-298" fill="#FEFEFE"/><path d="M107.14 67.97a7.317 7.317 0 1 0 14.632-.278 7.317 7.317 0 0 0-14.632.278" id="Fill-300" fill="#E46E7D"/><path id="Fill-302" fill="#FEFEFE" d="M114.363 62.94l-1.317 2.803-3.055.503 2.258 2.119-.466 3.06 2.713-1.492 2.766 1.388-.581-3.041 2.176-2.202-3.072-.387z"/><path d="M87.636 93.095c-.343.353-.33.495.06.751A1414.1 1414.1 0 0 0 90.96 96c.417.276.488.256.75-.217l-4.074-2.687m1.192-1.87c-.057.084-.113.171-.178.27l4.097 2.702.315-.477-4.088-2.695c-.056.076-.103.136-.146.2m9.045-1.174c1.138-.433 2.272-.88 3.2-1.703 1.286-1.14 2.267-2.48 2.446-4.248.22-2.177-.519-4.036-2.12-5.496-2.008-1.83-4.355-2.245-6.903-1.336-1.467.523-2.454 1.612-3.189 2.961-.846 1.553-.925 3.227-.849 4.933.052 1.155.09 2.31-.239 3.437-.078.266-.177.525-.27.807l4.247 2.801c1.011-1.097 2.334-1.645 3.677-2.156m-10.544 7.99c-.984-.667-1.207-1.638-.813-2.74-1.06-.792-1.272-2.025-.552-3.12.621-.944 1.228-1.899 1.872-2.828a4.337 4.337 0 0 0 .792-2.49c.008-.894-.022-1.789-.032-2.682-.025-2.293.561-4.389 1.986-6.22 1.121-1.442 2.571-2.387 4.342-2.774 2.805-.613 5.341-.01 7.542 1.86a8.218 8.218 0 0 1 2.698 4.356c.707 2.83-.022 5.303-1.96 7.446-.98 1.086-2.167 1.888-3.509 2.457-.888.377-1.788.72-2.67 1.107a4.398 4.398 0 0 0-1.977 1.712c-.596.941-1.22 1.862-1.834 2.79-.75 1.138-1.902 1.422-3.11.757-.937.896-2.006.888-2.775.368" id="Fill-304" fill="#E46E7D"/><path d="M97.67 77.57c-1.98-.154-3.663.496-5.06 1.9-.307.313-.302.952 0 1.268.329.344.914.36 1.305.054.394-.31.773-.65 1.205-.892.887-.497 1.853-.614 2.849-.415.38.075.712.013.976-.273.412-.446.317-1.046-.205-1.373l.014-.072c-.361-.067-.72-.17-1.084-.197m-7.722 11.836c.095-.281.194-.541.272-.807.329-1.127.29-2.282.239-3.436-.076-1.706.003-3.381.849-4.934.735-1.348 1.72-2.437 3.189-2.961 2.548-.91 4.895-.494 6.902 1.336 1.602 1.46 2.34 3.32 2.12 5.496-.178 1.769-1.16 3.108-2.447 4.248-.926.823-2.06 1.27-3.198 1.703-1.344.51-2.666 1.059-3.678 2.157a8244.48 8244.48 0 0 0-4.248-2.802" id="Fill-306" fill="#EAD063"/><path d="M88.974 91.025c-.056.076-.103.137-.146.2-.057.084-.113.17-.178.27l4.097 2.702c.101-.151.203-.306.315-.477l-4.088-2.695" id="Fill-308" fill="#FEFEFE"/><path d="M91.71 95.782l-4.073-2.687c-.343.353-.33.496.058.75 1.088.72 2.177 1.438 3.266 2.155.417.275.487.256.75-.218" id="Fill-310" fill="#FEFEFE"/><path d="M98.754 77.767c-.361-.067-.72-.169-1.084-.197-1.98-.155-3.663.496-5.06 1.901-.307.312-.302.95 0 1.267.329.343.915.36 1.305.053.394-.308.773-.649 1.205-.891.887-.497 1.853-.614 2.849-.415.38.075.712.012.976-.274.412-.445.317-1.046-.205-1.373a1.78 1.78 0 0 0 .014-.071" id="Fill-312" fill="#FEFEFE"/><path d="M52.01 33.783c2.075-.035 3.745-1.784 3.698-3.873a3.78 3.78 0 0 0-3.84-3.69 3.776 3.776 0 0 0-3.698 3.87 3.789 3.789 0 0 0 3.84 3.693m-.157-7.863a4.064 4.064 0 0 1 4.144 3.983c.054 2.269-1.737 4.14-3.992 4.174a4.061 4.061 0 0 1-4.125-4.003c-.046-2.248 1.738-4.113 3.973-4.154" id="Fill-314" fill="#231F20"/><path d="M47.306 27.255c.17-.003.343.006.512-.017.056-.007.102-.094.153-.145-.053-.046-.105-.13-.158-.132-.368-.004-.737.006-1.105.023-.046.002-.133.092-.125.113.024.062.08.153.132.157.195.015.394 0 .59-.003v.004" id="Fill-316" fill="#231F20"/><path d="M49.696 25.692c-.008-.436-.014-.871-.035-1.306-.001-.012-.193-.055-.227-.02-.13.138-.01 1.173.262 1.326" id="Fill-318" fill="#231F20"/><path d="M47.368 25.137c.084.116.159.242.257.346.182.191.374.374.573.55.05.043.139.062.208.057.026-.002.079-.136.062-.153-.31-.322-.627-.635-.944-.95a10.83 10.83 0 0 0-.156.15" id="Fill-320" fill="#231F20"/><path d="M54.036 28.421c-.323-.283-.801-.254-1.113.048-.25.24-.285.495-.075.78.173-.296.219-.795.65-.703.274.06.495.367.79.605.127-.286-.021-.528-.252-.73m-3.702.185c.272.06.489.375.775.612.125-.25.005-.487-.2-.693a.825.825 0 0 0-1.146-.014c-.268.254-.311.54-.08.802.155-.34.226-.8.65-.707m-.773 1.388c-.326 0-.414.128-.373.434a2.774 2.774 0 0 0 2.785 2.424c1.43-.019 2.58-1.09 2.73-2.53.033-.31-.064-.429-.387-.418-.805.032-1.612.037-2.417.051-.78.015-1.56.041-2.338.04m2.309-3.774a3.778 3.778 0 0 1 3.839 3.688c.047 2.09-1.623 3.838-3.698 3.873a3.788 3.788 0 0 1-3.84-3.693 3.774 3.774 0 0 1 3.699-3.868" id="Fill-322" fill="#F79D61"/><path d="M51.96 32.563c1.28-.01 2.294-.961 2.42-2.31-1.618.032-3.232.062-4.874.093.154 1.307 1.184 2.226 2.454 2.217m2.355-2.658c.323-.012.42.107.388.418-.15 1.439-1.301 2.51-2.731 2.529a2.773 2.773 0 0 1-2.785-2.424c-.041-.305.047-.433.373-.433.779.002 1.559-.025 2.338-.04.806-.014 1.612-.02 2.417-.05" id="Fill-324" fill="#231F20"/><path d="M49.684 29.313c.153-.341.224-.8.65-.707.272.06.49.375.775.612.125-.251.005-.487-.2-.693a.826.826 0 0 0-1.147-.014c-.267.254-.31.539-.078.802" id="Fill-326" fill="#231F20"/><path d="M54.288 29.152c.127-.286-.021-.528-.252-.73-.323-.284-.801-.254-1.113.047-.25.24-.285.496-.075.78.173-.295.219-.794.65-.702.274.058.495.367.79.605" id="Fill-328" fill="#231F20"/><path d="M49.506 30.346c.154 1.307 1.184 2.226 2.454 2.217 1.279-.009 2.294-.96 2.42-2.31l-4.874.093" id="Fill-330" fill="#FEFEFE"/><path d="M47.956 114.78c2.755-.39 4.687-2.99 4.28-5.761a5.064 5.064 0 0 0-5.717-4.272c-2.77.395-4.684 2.97-4.278 5.757.399 2.742 2.969 4.666 5.715 4.277m-1.506-10.432a5.448 5.448 0 0 1 6.17 4.614c.446 3.007-1.626 5.793-4.622 6.21-2.983.416-5.712-1.646-6.146-4.644-.432-2.981 1.633-5.757 4.598-6.18" id="Fill-332" fill="#231F20"/><path d="M40.622 106.876c.227-.033.458-.05.678-.107.074-.019.12-.143.18-.218-.077-.053-.161-.158-.232-.15-.49.055-.98.13-1.465.212-.061.011-.162.146-.148.172.042.08.133.191.2.188.264-.014.525-.066.786-.103v.006" id="Fill-334" fill="#231F20"/><path d="M43.543 104.403c-.083-.578-.163-1.157-.262-1.732-.003-.016-.266-.042-.306.012-.15.202.18 1.56.568 1.72" id="Fill-336" fill="#231F20"/><path d="M40.355 104.048c.132.14.25.296.399.417.274.225.56.437.852.637.074.05.196.06.287.042.034-.007.083-.193.057-.214-.464-.377-.94-.74-1.412-1.108l-.183.226z" id="Fill-338" fill="#231F20"/><path d="M49.766 107.315c-.476-.323-1.107-.205-1.473.248-.291.359-.298.705.029 1.049.182-.421.16-1.092.75-1.041.373.032.717.407 1.15.675.122-.403-.115-.7-.456-.931m-4.893.857c.372.035.712.418 1.132.687.125-.356-.074-.648-.381-.89a1.107 1.107 0 0 0-1.527.17c-.313.384-.325.77.028 1.08.148-.477.166-1.1.748-1.047m-.801 1.975c-.433.054-.53.239-.424.638.484 1.84 2.229 3.02 4.104 2.764 1.9-.26 3.253-1.875 3.215-3.815-.008-.418-.158-.561-.585-.491-1.066.174-2.137.313-3.207.467-1.034.148-2.066.31-3.103.437m2.447-5.4a5.064 5.064 0 0 1 5.717 4.272c.407 2.77-1.525 5.372-4.28 5.762-2.746.388-5.316-1.535-5.715-4.278-.406-2.786 1.508-5.361 4.278-5.756" id="Fill-340" fill="#F79D61"/><path d="M47.688 113.166c1.7-.224 2.893-1.656 2.837-3.47l-6.466.927c.42 1.712 1.942 2.765 3.629 2.543m2.694-3.924c.427-.069.577.073.585.491.038 1.941-1.315 3.555-3.215 3.816-1.875.257-3.62-.925-4.104-2.765-.105-.398-.01-.584.424-.638 1.037-.126 2.069-.289 3.103-.437 1.07-.153 2.14-.293 3.207-.467" id="Fill-342" fill="#231F20"/><path d="M44.125 109.22c.148-.479.166-1.102.748-1.048.372.034.711.418 1.132.687.124-.356-.074-.649-.38-.89a1.107 1.107 0 0 0-1.528.171c-.313.383-.325.768.028 1.08" id="Fill-344" fill="#231F20"/><path d="M50.221 108.246c.122-.402-.115-.7-.456-.931-.476-.323-1.107-.206-1.473.248-.29.36-.297.704.03 1.049.181-.421.161-1.093.75-1.041.373.032.717.407 1.15.675" id="Fill-346" fill="#231F20"/><path d="M44.059 110.623c.42 1.712 1.942 2.765 3.629 2.543 1.7-.224 2.893-1.656 2.837-3.47l-6.466.927" id="Fill-348" fill="#FEFEFE"/><path d="M103.749 51.358c.842-.244 2.139.456 2.21-.952.07-1.337-1.243-.853-2.066-1.175.197-.334.367-.645.559-.942.34-.521.335-1.048-.17-1.4-.544-.381-1.055-.162-1.43.36-.194.272-.374.555-.586.875-.665-.593-.701-2.08-1.945-1.467-1.245.613-.084 1.545-.031 2.357-.791.207-2.081-.464-2.151.935-.066 1.32 1.244.857 2.068 1.166-.162.274-.296.513-.441.743-.443.699-.426 1.278.05 1.62.479.346 1.036.154 1.516-.517.164-.23.336-.453.586-.79.239.445.409.788.602 1.116.298.503.739.69 1.273.426.535-.264.654-.728.435-1.271-.142-.356-.31-.704-.48-1.084" id="Fill-350" fill="#EAD063"/><path d="M52.897 57.109c.89-.26 2.26.48 2.338-1.008.073-1.413-1.316-.9-2.186-1.241.208-.354.388-.684.592-.996.36-.552.354-1.11-.18-1.481-.575-.402-1.116-.171-1.511.38-.206.288-.396.588-.621.925-.703-.626-.74-2.197-2.056-1.55-1.316.649-.088 1.633-.033 2.492-.837.219-2.2-.491-2.274.988-.07 1.398 1.314.907 2.186 1.233-.172.29-.313.542-.467.785-.467.74-.45 1.352.054 1.715.507.364 1.095.16 1.603-.55.173-.241.355-.476.619-.832.253.47.433.83.638 1.178.314.532.78.73 1.345.45.565-.278.69-.768.46-1.342-.151-.377-.328-.745-.507-1.146" id="Fill-352" fill="#EAD063"/><path d="M68.765 39.043c.891-.258 2.262.482 2.34-1.007.072-1.413-1.318-.9-2.188-1.24.21-.355.388-.685.592-.998.36-.55.355-1.108-.18-1.48-.575-.402-1.116-.17-1.51.38-.207.288-.396.588-.62.925-.705-.627-.742-2.197-2.057-1.55-1.317.65-.089 1.633-.033 2.492-.837.218-2.2-.49-2.275.988-.069 1.397 1.315.907 2.187 1.233-.172.29-.314.542-.467.785-.467.74-.45 1.352.054 1.715.506.364 1.094.161 1.602-.549.173-.242.355-.477.62-.833.252.47.432.831.637 1.178.315.532.78.731 1.345.451.565-.279.691-.77.461-1.344-.152-.377-.328-.744-.508-1.146" id="Fill-354" fill="#EAD063"/><path d="M43.207 13.205c.881-.256 2.24.478 2.315-.997.073-1.4-1.303-.893-2.165-1.23.207-.35.384-.676.587-.987.356-.546.35-1.097-.178-1.466-.57-.398-1.106-.17-1.497.376-.205.285-.392.582-.615.916-.697-.62-.734-2.175-2.036-1.535-1.305.643-.088 1.618-.033 2.47-.829.215-2.18-.487-2.253.976-.069 1.385 1.302.9 2.166 1.222-.17.288-.31.537-.463.778-.462.733-.445 1.34.054 1.7.501.36 1.084.16 1.587-.545.172-.24.351-.473.614-.824.25.463.428.822.631 1.166.311.527.773.722 1.332.447.56-.278.685-.763.456-1.33-.149-.375-.325-.739-.502-1.137" id="Fill-356" fill="#EAD063"/><path d="M95.266 7.132c-1.139-.284-2.838.72-3.007-1.162-.16-1.785 1.622-1.204 2.707-1.677-.28-.437-.523-.846-.798-1.232-.48-.68-.5-1.386.157-1.883.71-.536 1.405-.27 1.931.41.276.354.53.724.83 1.14.861-.827.832-2.818 2.528-2.06 1.698.756.191 2.062.162 3.151 1.07.237 2.761-.726 2.926 1.141.155 1.766-1.62 1.211-2.708 1.666.231.36.422.671.628.972.627.913.635 1.69.014 2.173-.623.485-1.377.257-2.054-.618-.23-.298-.472-.587-.824-1.024-.298.606-.508 1.071-.75 1.521-.372.688-.953.961-1.68.635-.73-.326-.914-.94-.649-1.678.174-.485.38-.958.587-1.475" id="Fill-358" fill="#231F20"/><path d="M65.901 84.492c-.548-.138-1.368.347-1.45-.561-.077-.861.783-.581 1.306-.808-.136-.211-.253-.408-.385-.595-.231-.328-.242-.668.076-.908.342-.26.678-.13.931.197.132.17.255.35.4.55.416-.398.401-1.358 1.22-.993.82.365.092.995.078 1.52.516.114 1.332-.35 1.41.55.077.852-.78.584-1.305.804.111.173.203.323.302.469.303.44.308.814.008 1.047-.3.235-.665.124-.992-.297-.11-.144-.227-.284-.397-.495-.143.292-.243.518-.361.734-.18.333-.46.465-.812.307-.35-.158-.44-.454-.312-.81.085-.233.184-.462.284-.711" id="Fill-360" fill="#231F20"/></g></g></g></g></g></g></svg>