<svg width="584px" height="183px" xmlns="http://www.w3.org/2000/svg" xmlns:xlink="http://www.w3.org/1999/xlink"><defs><path id="path-1" d="M0 0h584v183H0z"/><path d="M745.463 490h-17.214l-20.69-33.818c9.966-2.271 20.21-10.689 20.21-26.455 0-16.568-11.766-28.727-31.006-28.727h-43.187v89h-11.513l-35.526-89h-24.639l-35.664 89h-49.579v-31.814h23.532c19.932 0 31.005-12.96 31.005-28.46 0-15.632-10.935-28.726-31.005-28.726H477v89H0V0h964v490H824.4l-39.072-47.18 36.68-41.82h-24.223l-32.667 39.817V401h-19.655v89zm19.655 0v-27.27l7.198-8.285L800.183 490h-35.065zm-59.426 0h-32.46v-31.814h14.395L705.692 490zm-137.867 0l5.768-15.246h41.249L620.61 490h-52.785zM477 385.215h11.061V314H477v71.215zm81.722 0h10.73V314H558.39v53.385L518.24 314h-11.394v71.215h11.061V330.55l40.815 54.666zm92.894 0h11.061V314H646.86l-21.458 51.143L603.943 314h-15.817v71.215h11.061v-56.588l23.892 56.588h4.645l23.892-56.588v56.588zm82.386 0h12.167L716.858 314H703.03l-29.311 71.215h12.167l5.973-14.734h36.17l5.972 14.734zm75.196 0h10.73V314h-11.061v53.385L768.715 314h-11.393v71.215h11.061V330.55l40.815 54.666z" id="path-3"/></defs><g id="Page-1" fill="none" fill-rule="evenodd"><g id="Artboard-2" transform="translate(-592 -584)"><g id="inman-park" transform="translate(-1)"><g id="inman-park-(white-box)" transform="translate(593 584)"><g id="Box-1"><g id="inman-park-combine-shapes"><g id="Rectangle"><mask id="mask-2" fill="#fff"><use xlink:href="#path-1"/></mask><g mask="url(#mask-2)"><g transform="translate(-361 -307)"><mask id="mask-4" fill="#fff"><use xlink:href="#path-3"/></mask><use id="Mask" fill="#EBEBEB" opacity="0.85" xlink:href="#path-3"/></g></g><path id="Path" stroke="#979797" fill="#D8D8D8" mask="url(#mask-2)" d="M348.822 16L334 53.69h29.754z"/><path d="M170.466 122.292c0-7.348-5.813-12.292-13.565-12.292H136v24.585h20.901c7.752 0 13.565-4.81 13.565-12.293z" id="Path" stroke="#979797" fill="#D8D8D8" mask="url(#mask-2)"/><path id="Path" stroke="#979797" fill="#D8D8D8" mask="url(#mask-2)" d="M233.364 110L218 150.886h30.59z"/><path d="M346.466 122.292c0-7.482-5.952-12.292-13.842-12.292H312v24.585h20.624c7.89 0 13.842-4.81 13.842-12.293z" id="Path" stroke="#979797" fill="#D8D8D8" mask="url(#mask-2)"/></g></g></g></g></g></g></g></svg>