<svg width="584px" height="183px" xmlns="http://www.w3.org/2000/svg" xmlns:xlink="http://www.w3.org/1999/xlink"><defs><path id="path-1" d="M0 0h584v183H0z"/></defs><g id="Page-1" fill="none" fill-rule="evenodd"><g id="Artboard-4" transform="translate(-600 -584)"><g id="Ponce-city-market-(white-box)" transform="translate(600 584)"><mask id="mask-2" fill="#fff"><use xlink:href="#path-1"/></mask><g mask="url(#mask-2)" id="Box-1" opacity="0.85"><g transform="translate(-356 -307)"><path d="M818.948 490h-27.12v-11.597h-32.755v-14.897h32.06v-11.725h-32.06v-13.935h32.755V426.12h-46.85V490h-7.454l-27.905-33.798 26.304-30.082h-17.37l-23.426 28.64v-28.64h-14.094V490h-11.178l-14.752-24.187c7.147-1.634 14.492-7.689 14.492-19.03 0-11.917-8.437-20.663-22.234-20.663h-30.968V490h-7.06l-25.42-63.88h-17.669L540.725 490h-6.961v-63.88h-19.852l-16.08 39.981-16.08-39.98H462V490H0V0h965v490H833.142v-51.866h19.256V426.12h-52.805v12.014h19.355V490zm-123.82 0v-19.478l5.16-5.959L720.165 490h-25.037zm-41.442 0h-23.199v-22.745h10.323L653.686 490zm-97.482 0l4.085-10.828h29.579L593.952 490h-37.748zm-36.634 0H501l18.57-45.907V490zm-24.905 0h-18.57v-45.907L494.665 490zM462 415.297h7.55v-16.068h11.357c8.969 0 14.067-6.194 14.067-13.486 0-7.292-5.034-13.486-14.067-13.486H462v43.04zm39.878-21.488c0 12.84 9.098 22.262 22.004 22.262s22.004-9.421 22.004-22.262c0-12.841-9.098-22.262-22.004-22.262s-22.004 9.42-22.004 22.262zm83.886 21.488h7.292v-43.04h-7.55v30.521l-22.004-30.521h-7.743v43.04h7.55v-31.36l22.455 31.36zm39.362.774c9.034 0 14.325-4.517 17.616-9.68l-6.453-3.29c-2.065 3.613-6.195 6.26-11.163 6.26-8.195 0-14.519-6.518-14.519-15.552 0-9.034 6.324-15.551 14.519-15.551 4.968 0 9.098 2.71 11.163 6.259l6.453-3.291c-3.227-5.162-8.582-9.68-17.616-9.68-12.39 0-22.262 9.035-22.262 22.263 0 13.228 9.873 22.262 22.262 22.262zm26.263-.774h29.489v-6.647h-21.94v-11.937h21.488v-6.647h-21.488v-11.163h21.94v-6.646h-29.49v43.04zm79.304.774c9.034 0 14.325-4.517 17.616-9.68l-6.453-3.29c-2.065 3.613-6.194 6.26-11.163 6.26-8.195 0-14.519-6.518-14.519-15.552 0-9.034 6.324-15.551 14.519-15.551 4.969 0 9.098 2.71 11.163 6.259l6.453-3.291c-3.226-5.162-8.582-9.68-17.616-9.68-12.39 0-22.262 9.035-22.262 22.263 0 13.228 9.873 22.262 22.262 22.262zm26.263-.774h7.55v-43.04h-7.55v43.04zm29.553 0h7.55v-36.394h13.035v-6.646h-33.62v6.646h13.035v36.394zm41.75 0h7.55v-17.875l16.648-25.165h-8.647l-11.744 18.455-11.873-18.455h-8.647l16.713 25.165v17.875zm-253.18 22.645l10.918 29.409H564.06l11.017-29.41zm80.124 8.745c0 5.382-4.268 8.842-9.926 8.842h-14.79v-17.683h14.79c5.658 0 9.926 3.46 9.926 8.841zM487.23 385.743c0 4.13-3.097 6.84-7.356 6.84H469.55v-13.68h10.324c4.259 0 7.356 2.71 7.356 6.84zm50.913 8.066c0 8.84-5.614 15.551-14.261 15.551-8.711 0-14.26-6.71-14.26-15.551 0-8.905 5.549-15.551 14.26-15.551 8.647 0 14.26 6.646 14.26 15.55z" id="Combined-Shape" fill="#EBEBEB"/></g></g></g></g></g></svg>