<svg width="584px" height="183px" xmlns="http://www.w3.org/2000/svg" xmlns:xlink="http://www.w3.org/1999/xlink"><defs><path id="path-1" d="M0 0h584v183H0z"/></defs><g id="Page-1" fill="none" fill-rule="evenodd"><g id="Artboard-1" transform="translate(-609 -379)"><g id="SECTION-4" transform="translate(-2 -1)"><g id="Old-4-ward" transform="translate(611 380)"><g id="Path-+-Path-+-Path-+-Path-+-Path-+-Path-+-Combined-Shape-Mask"><mask id="mask-2" fill="#fff"><use xlink:href="#path-1"/></mask><path d="M184 62.5c0-9.418-6.123-16.5-15.538-16.5S153 53.082 153 62.5c0 9.342 6.047 16.5 15.462 16.5S184 71.842 184 62.5z" id="Path" stroke="#979797" fill="#D8D8D8" mask="url(#mask-2)"/><path d="M253 78h9.167c10 0 15.833-7.29 15.833-15.962C278 52.983 272.545 46 262.167 46H253v32z" id="Path" fill="#D8D8D8" mask="url(#mask-2)"/><path id="Path" fill="#D8D8D8" mask="url(#mask-2)" d="M337 46l-13 21h13z"/><path id="Path" fill="#D8D8D8" mask="url(#mask-2)" d="M271.054 123L259 156h24z"/><path d="M360 133c0-6.087-4.835-10-11.245-10H332v20h16.755c6.41 0 11.245-3.913 11.245-10z" id="Path" fill="#D8D8D8" mask="url(#mask-2)"/><path d="M403 169h13.2c14.4 0 22.8-10.48 22.8-22.945 0-13.017-7.855-23.055-22.8-23.055H403v46z" id="Path" fill="#D8D8D8" mask="url(#mask-2)"/><path d="M387 183h-12l-16.389-27.8c7.867-1.86 15.952-8.755 15.952-21.67 0-13.57-9.287-23.53-24.474-23.53H316v73h-7l-27.814-73h-19.264L234 183h-15.95L239 110h-17.642l-12.79 52.753L194.675 110h-12.24l-14.003 52.753-12.9-52.753H138l21.06 73H-370v-490h978v490H415.985C439.02 183 455 168.553 455 146.555 455 124.556 439.02 110 415.985 110H387v73zm-29.81 0h-25.675v-26.157h11.363L357.19 183zm-106.307 0l4.546-12.586h32.25L292.226 183h-41.342zm-49.482 0H175.71l12.79-50.126L201.4 183zM141 62.5c0 15.44 11.389 26.5 26.961 26.5C183.611 89 195 77.94 195 62.5S183.611 36 167.961 36C152.39 36 141 47.06 141 62.5zM201 88h33v-9.558h-21.948V37H201v51zm41 0h20.034C277.954 88 289 77.907 289 62.538S277.955 37 262.034 37H242v51zm95.494 0h10.903V77.448H355v-9.557h-6.603V37h-15.05L313 68.885v8.563h24.494V88zm36.168 0h10.752V46.558H399V37h-40v9.558h14.662V88zm68.375 0H453V37h-10.963v20.033h-24.15V37H407v51h10.887V66.59h24.15V88z" id="Combined-Shape" fill="#EBEBEB" opacity="0.85" mask="url(#mask-2)"/></g></g></g></g></g></svg>