<svg height="117" viewBox="0 0 73 117" width="73" xmlns="http://www.w3.org/2000/svg"><path d="m795.591713 157.519017c2.248182-6.158962 2.51776-11.283402 2.377884-13.545153-.005086-.045641-.007629-.088746-.010172-.136922.002543-.218062.010172-.438658.007629-.659255-.002543-.347377-.012716-.692218-.025432-1.037059-.002543-.098888-.002543-.200312-.007629-.296665-.017803-.443729-.048321-.882387-.086469-1.321045-.007629-.088746-.020345-.177492-.027975-.268773-.071209-.697289-.165307-1.389507-.292467-2.066511-.012716-.065925-.033061-.129315-.045777-.197776-.13479-.666862-.259406-1.338795-.455232-1.97523-.378935-1.257655-.770587-2.451921-1.185127-3.59801-.66123-1.965087-1.459792-3.783109-2.388056-5.481958-.953697-1.80788-2.044726-3.491516-3.336668-5.088941-.017802-.020285-.030518-.04057-.04832-.060855-1.299571-1.597425-2.576253-2.893114-4.135229-4.254729-1.111375-1.021846-2.286329-2.010728-3.52995-2.981861 0 0-.002543.268773-.038148.740394-.427256 1.815486-2.077787 7.784279-6.44699 13.593329-1.78532 2.368247-4.936334 5.426175-9.595461 2.773942-2.695783-1.539107-2.825486-5.971328-.305183-9.330993 2.683067-3.577725 5.048235-6.016969 5.778131-12.148039 1.742086-14.7444904-12.405688-22.8203632-16.431559-24.176907 0 0 1.113917 6.7269358-2.578797 13.7201092-4.542139 8.6032768-18.356755 18.0509068-22.703069 26.2104548-4.537053 8.514531-5.238974 16.144139-5.055864 19.060074.902833 14.328652 5.714551 22.409596 15.678775 29.281061.005086.002535 1.335175-7.193486 6.574149-14.151161.015259-.020284.033062-.043105.045778-.06339.386565-.479227.790932-.953384 1.218188-1.417398 1.85653-1.889019 4.587917-3.387556 8.262829-1.328652.040691.025356.078839.045641.11953.070997l.002543.002535c.142419.088746.282294.187634.427256.291594 2.217663 1.76731 2.179515 5.854691-.17548 9.001365-2.683067 3.57519-5.053321 6.014434-5.778131 12.145504-1.744629 14.74449 12.403145 22.820363 16.429017 24.176907 0 0-1.113918-6.726936 2.578796-13.720109 4.496362-8.514531 18.064288-17.855666 22.56065-25.95436.869772-1.34133 1.798036-3.372342 2.62203-5.806514" fill="#fff" fill-rule="evenodd" transform="translate(-725 -86)"/></svg>