<svg width="1440px" height="316px" xmlns="http://www.w3.org/2000/svg"><g id="Page-1" fill="none" fill-rule="evenodd"><g id="Desktop-HD" transform="translate(0 -1290)" fill="#FFF" fill-rule="nonzero"><g id="SECTION-1" transform="translate(-1)"><g id="Background-(Fisrt-Sec.)"><g id="Mission-(illustration)-08" transform="translate(-173 768)"><path d="M1612.54 619.42l2.445 1.568c-.297 3.372-2.247 5.118-5.285 4.763l-1.286-2.959h-.545a29.515 29.515 0 0 1-1.118 3.047 24.865 24.865 0 0 1-2.652 4.734 7.164 7.164 0 0 1-8.907 1.203c-.485-.335-.673-1.124-.821-1.38-1.98 2.346-3.959 5.127-6.442 7.356-4.711 4.27-11.005 4.27-16.003.355a9.922 9.922 0 0 1-3.81-6.745c-.089-.661-.198-1.332-.297-2.032-3.097.986-1.573 3.166-1.425 5.03a9.36 9.36 0 0 1-7.709-1.194c-2.078-1.489-3.72-3.58-5.66-5.512-.347 1.903-1.05 4.043-3.672 4.615-2.83.621-4.245-1.272-5.591-3.323l-.406.236.436 3.51a14.635 14.635 0 0 1-9.115.691c-3.285-.68-5.938-2.08-6.462-6.163-2.672 2.751-5.374 4.063-8.768 2.83a2.818 2.818 0 0 1-4.354.986c-1.317-.887-1.524-2.347-.179-3.698 1.103-.899 2.301-1.676 3.573-2.317-1.435-2.87-.534-5.305 2.79-7.011a9.123 9.123 0 0 1 8.224-.168l2.346.986-1.98-2.771 5.186-1.499c.446 1.164.742 1.972 1.208 3.185.465-.72.99-1.153.99-1.528-.446-3.797 1.9-6.213 4.403-8.353 3.958-3.382 8.55-5.167 13.855-3.944 1.323.43 2.605.977 3.83 1.637-1.98 1.538-2.97 3.116-2.514 5.512 2.167-1.637 3.295-4.615 6.244-4.437l1.732 2.84.653-.109c-.079-2.406.188-4.694 2.573-5.818 2.039-.986 4.167-1.696 6.314-2.564.792 4.418.99 4.783 3.286 5.72-1.98-8.668 3.879-12.356 11.45-13.54v-2.958a9.019 9.019 0 0 1 5.116-8.629 20.57 20.57 0 0 1 15.834-1.716 13.399 13.399 0 0 1 7.987 6.56 13.32 13.32 0 0 1 .92 10.274 60.169 60.169 0 0 1-2.663 6.232 5.573 5.573 0 0 0-.218 1.183c.452.023.904-.034 1.336-.167a8.34 8.34 0 0 0 1.663-1.233 2.975 2.975 0 0 1 4.948.937c2.197 4.161.643 11.547-3.384 14.032-1.752 1.085-4.167 1.144-6.294 1.588a5.193 5.193 0 0 1-1.623-.178l-.159.336z" id="Shape" opacity="0.8"/><path d="M1342.178 685.392c-6.993 3.96-13.987 9.08-22.17 2.307.8-.99 1.579-1.862 2.358-2.773-4.466 1.743-8.822 2.793-13.428 2.248-4.825-.564-7.892-3.723-10.26-7.615-.38.277-.67.396-.66.505.12 4.238-.929 5.338-5.475 5.377a26.74 26.74 0 0 1-4.216-.554c-1.599-.248-2.747-.238-3.527 1.742-1.089 2.803-6.993 4.754-9.241 2.882-1.21-.99-1.529-3.495-1.559-5.327 0-1.238 1.149-2.496 2.128-3.615-1.239-9.258 3.137-16.586 11.76-18.814l.23 2.901c1.868-2.674 3.306-5.694 5.614-7.783 2.308-2.09 5.605-3.436 8.483-5.12l-1-.91c6.325-8.913 15.926-11.973 25.827-8.358a15.887 15.887 0 0 1 7.863 6.367 20.55 20.55 0 0 0 3.397 3.149l.73-.614-.18-2.832c7.253-.357 13.817 4.11 15.665 10.685a19.77 19.77 0 0 0-2.747 1.624 29.292 29.292 0 0 0-2.738 3.02 20.929 20.929 0 0 0 2.778-.505c5.625-2.13 10.5-.664 14.177 4.248 1.499 1.98 2.568 4.951 6.104 2.406.48-.346 2.828.634 2.998 1.347.6 2.208 1.358 4.892.58 6.793-.64 1.535-3.338 2.772-5.286 3.07-2.188.326-3.996 0-5.605 2.327-.78 1.158-3.367 1.158-5.155 1.574-1.12.258-2.488 0-3.377.515-4.866 3.03-9.252 3.03-14.068-.267z" id="Shape" opacity="0.7"/><path d="M507.271 572.76l-.621.398c.801-2.641 1.072-5.088-.801-7.185-1.55-1.812-3.974-2.691-6.37-2.311-.27 1.36-.47 2.573-.761 3.757-.1.447-.431.787-.752.68.194-1.357.251-2.73.17-4.097-.49-3.04-2.503-4.117-5.378-4.739a17.039 17.039 0 0 0-4.717-.175c-3.015.154-5.733 1.811-7.181 4.38-.46.747-.902 1.466-.06 2.252.09.088.1.282.14.427-1.753-1.524-3.786-1.689-5.89-1.505-1.895.086-3.65.996-4.777 2.476a.786.786 0 0 0-.272.593c0 .226.099.441.272.592.67.684.97 1.633.812 2.563-1.523-2.747-3.756-2.97-6.11-2.136-2.606.756-4.289 3.203-4.006 5.826-.063.042-.13.078-.2.107h-1.553c.801-3.408-2.464-6.797-5.699-5.826-.36.117-.64.495-1.001.796a2.946 2.946 0 0 0-.441-.476 8.73 8.73 0 0 0-2.374-1.66c-2.774-.806-5.098.262-6.92 2.437a3.486 3.486 0 0 0 .07 4.972c.13.116.17.34.33.67-1.643-.36-2.003-1.496-2.143-2.758-2.234-.097-3.286 1.466-2.624 4.117-1.002-1.194-2.004-2.068-3.556-1.515-1.552.554-2.003 1.66-2.003 3.418a2.873 2.873 0 0 1-.27-.563c-.06-.369-.09-.748-.13-1.117-.923-.535-2.116-.269-2.705.602l.6.835a3.757 3.757 0 0 0-3.485-.136 2.03 2.03 0 0 0-1.342 1.72.886.886 0 0 1-.7.97c-1.002.35-1.072.971-.301 1.728.771.758 1.933.622 2.814-.534 2.254.971 4.497 1.224 6.68-.223 1.733 2.418 3.696 2.748 6.01 1.039l-.57-.971c.951.453 1.962.78 3.004.971.982-.07 1.95-.273 2.874-.602 0-.893-.5-1.573.11-2.282.13.175.23.253.26.35.782 2.767 3.166 3.592 5.69 2.913 1.702-.437 3.335-1.146 4.867-1.68l-.49.573a4.732 4.732 0 0 0 4.086 1.417 3.306 3.306 0 0 1 2.514.515c1.222.971 2.704.621 4.056-.058.38-.194.781-.37 1.002-.457.39.38.58.7.871.845a4.04 4.04 0 0 0 4.137-.281c.5-.32 1.001-.622 1.512-.971l.32.106-.42.835a3.98 3.98 0 0 0 3.265-.708c1.572 2.233 3.305.66 4.928.281.22.355.545.639.931.816 1.098.54 2.439.208 3.135-.777.076.12.163.234.26.34l-.8.592a9.678 9.678 0 0 0 1.702 1.554c1.861.962 4.16.56 5.558-.971a3.38 3.38 0 0 0 .892-1.33 3.884 3.884 0 0 0-.14-1.389 4.025 4.025 0 0 0 4.637-.291l.09.184-1.192 1.544c.657 1.01 1.87 1.543 3.085 1.36 1.28-.023 2.395-.849 2.754-2.04.06-.376.06-.76 0-1.136 0-.213-.05-.417-.07-.63.22 0 .48-.069.661 0 .685.44 1.606.281 2.093-.36a5.226 5.226 0 0 0 .722-5.34c-.351-.68-.732-1.33-1.102-1.942l.14-.146 1.743 1.728c1.092-.747 1.152-1.893.13-2.961z" id="Shape" opacity="0.8"/><path d="M1384.671 761.912c-11.88-2.42-23.85-4.153-35.979-6.165-1.176-1.573-2.272-4.362-3.727-4.71-3.658-.877-7.495-.538-11.242-.917-1.665-.169-3.987-.169-4.824-1.473-7.156-11.104-15.947-14.241-26.73-10.766-1.475.478-4.764-1.105-4.984-2.28-1.156-8.087-6.139-8.963-10.893-11.612-7.236-3.984-14.372-6.513-22.146-4.332-3.338.936-5.162-.09-7.275-3.864-4.884-8.744-10.385-16.322-18.657-20.993-17.402-9.84-34.823-6.802-48.158 6.523a37.095 37.095 0 0 0-10.405-11.821c-13.415-9.79-25.614-3.535-36.278 9.7-1.177-2.3-1.994-4.133-2.99-5.876a75.162 75.162 0 0 0-2.382-3.983c.275-1.548.458-3.111.548-4.681 1.076-18.175-7.973-39.954-27.02-38.42-4.145.328-5.421-2.45-6.876-6.384-6.439-17.378-19.006-25.196-31.654-21.78-9.887-12.468-22.086-16.213-34.753-14.3-1.505 9.43-2.661 17.776-4.256 25.972a33.529 33.529 0 0 0-3.578 3.983 56.13 56.13 0 0 0-.578-2.699c.628-8.723 1.834-17.059.798-24.896-2.791-21.232-14.253-28.79-30.568-33.113-8.63-2.3-17.88-1.922-26.78-1.195a47.335 47.335 0 0 0-8.401 1.464 32.308 32.308 0 0 0-13.395-4.68c-11.9-1.494-23.442-.1-33.438 12.527.26-1.205.28-2.808.817-3.535 4.774-6.513 2.273-12.518-.339-18.702-9.557-22.567-23.39-34.547-40.792-36.24-8.9-.866-18.15-1.305-26.78 1.404-16.306 5.139-27.777 14.092-30.568 39.237-1.186 10.646.568 22.029.997 33.98a39.249 39.249 0 0 0-4.375-5.976c-1.595-9.71-2.751-19.608-4.256-30.772-12.667-2.27-24.866 2.16-34.753 16.93-12.648-3.984-25.215 5.218-31.654 25.813-1.455 4.66-2.72 7.967-6.877 7.558-19.006-1.812-28.085 23.99-27.019 45.531a55.11 55.11 0 0 0 .548 5.537 93.773 93.773 0 0 0-2.382 4.7c-.996 2.062-1.813 4.233-2.99 6.972-10.664-15.675-22.863-23.094-36.278-11.492a42.436 42.436 0 0 0-10.415 14.012c-13.335-15.785-30.756-19.39-48.158-7.738-8.272 5.537-13.773 14.52-18.657 24.896-2.113 4.482-3.937 5.687-7.275 4.581-7.774-2.579-14.95.359-22.146 5.139-4.744 3.127-9.737 4.183-10.893 13.763-.17 1.384-3.459 3.256-4.934 2.699-10.734-4.123-19.574-.399-26.73 12.747-.837 1.553-3.16 1.553-4.814 1.753-3.757.448-7.594 0-11.252 1.085-1.455.408-2.551 3.715-3.727 5.587-12.13 2.37-24.1 4.432-35.98 7.3-2.292.547-4.245 4.262-6.368 6.523 2.083 2.22 3.987 5.915 6.249 6.423 10.226 2.32 20.56 3.535 30.816 5.617 2.99.597 5.79 2.669 8.651 4.182 2.86 1.514 5.721 4.93 8.143 4.193 5.322-1.633 8.292 1.613 11.9 6.792 6.329 9.072 14.392 10.695 22.534 6.602 4.415-2.22 7.465-2.37 11.292 2.988 9.588 13.295 28.524 17.219 40.703 3.296 1.585-1.802 5.283-2.061 6.977-.498 15.946 14.849 33.158 15.516 48.467 2.43a48.413 48.413 0 0 1 4.325-3.296c11.223 24.17 21.697 28.113 37.504 14.61 6.977 11.76 15.568 18.811 26.59 17.616 11.024-1.195 19.346-8.385 24.519-24.956 9.687 14.131 20.8 19.718 33.407 15.794 7.774-2.42 13.844-8.146 18.548-16.232 2.212.995 4.545 1.653 6.767 2.46 9.737 3.505 19.524 6.741 29.282 10.098.442.148.84.405 1.156.746 26.5 30.255 55.364 28.681 85.273 16.631.924.054 1.836.235 2.71.538 30.648 10.825 60.248 12.807 87.357-13.315a2.93 2.93 0 0 1 1.156-.627c9.758-2.838 19.545-5.567 29.282-8.535 2.222-.667 4.565-1.224 6.767-2.071 4.714 6.822 10.774 11.662 18.548 13.703 12.607 3.316 23.72-1.404 33.408-13.325 5.182 13.943 13.504 20.047 24.517 21.053 11.013 1.006 19.604-4.98 26.59-14.858 15.808 11.393 26.282 8.066 37.505-12.34a49.36 49.36 0 0 1 4.335 2.79c15.299 11.044 32.51 10.476 48.457-2.052 1.684-1.325 5.382-1.106 6.977.418 12.179 11.751 31.115 8.435 40.703-2.778 3.827-4.482 6.877-4.352 11.292-2.49 8.142 3.456 16.205 2.091 22.534-5.567 3.608-4.372 6.578-7.11 11.9-5.736 2.422.627 5.392-2.31 8.143-3.535 2.75-1.225 5.7-2.988 8.65-3.536 10.256-1.753 20.591-2.778 30.817-4.74 2.242-.428 4.166-3.545 6.249-5.418-2.053-1.991-4.046-5.128-6.329-5.596zm-454.9-41.688h-.499c.05-.487.1-.995.14-1.444.08.528.239.986.359 1.444zm-82.652 16.632a41.046 41.046 0 0 0-4.715 2.987c-.986-5.119 4.057-4.501 4.715-2.987zm161.576 18.224a40.675 40.675 0 0 0-4.714-2.49c.668-1.255 5.711-1.772 4.714 2.49z" id="Shape"/><path d="M1632.309 821.747c4.038-1.14 7.957-3.437 11.548-2.927 3.591.509 6.496 3.876 9.659 5.994.318-3.877 3.282-2.478 5.829-1.16a57.428 57.428 0 0 1 5.968 3.917c3.252-1.309 5.968-2.617 8.773-3.477 3.163-.999 6.028-.589 6.803 3.437.697 3.637-1.989 8.172-5.44 7.583-4.556-.77-8.177.999-12.235 1.848a9.294 9.294 0 0 1-10.066-4.326c-4.297 5.765-10.017 5.615-15.915 3.796-1.85-.569-3.372-2.217-4.745-3.996-8.226 1.848-17.029 9.521-25.006-1.418-5.143 3.207-10.295 4.995-16.582 3.476.995-1.798 1.691-3.217 2.427-4.645l-.696-.67c-2.984 1.749-5.968 3.477-8.952 5.255-6.774 4.066-13.806 4.836-21.008 1.369-1.432-.68-2.437-2.238-4.396-4.126-.995.43-2.985 1.299-4.914 2.258-6.854 3.327-14.364 4.855-20.58.29-4.427-3.237-8.246-2.708-12.772-2.518-7.63.33-14.92-.69-20.75-6.943a452.704 452.704 0 0 1 2.497-2.818c-7.768 2.628-16.084 6.075-24.727 8.232-12.822 3.207-24.868-.799-28.846-14.366-.14-.47-.657-.839-1.353-1.698-3.094 3.447-.468 6.803-.547 11.16-4.675.998-9.708 3.196-14.602 2.936-4.894-.26-9.728-2.937-15.06-4.715l2.915 4.566c-11.937 8.331-21.883 6.713-30.746-5.106-11.051 7.054-22.47 5.995-33.929 1.09-4.436 5.664-9.847 6.623-14.264 2.607-3.919-3.557-3.401-6.764 1.542-8.462 2.457-.85 3.492-1.888 3.531-4.775.06-4.236 3.303-6.664 6.804-8.442 5.968-2.997 11.668-1.938 17.705.69a731.128 731.128 0 0 0-2.984-4.107c4.079-4.425 7.51-5.155 13.707-2.927.209 1.808.358 3.637.657 5.435.366.969.833 1.896 1.392 2.767-.418-8.601 2.368-14.076 9.897-16.704 7.799-2.727 12.862 1.519 18.054 7.393-3.342-12.987 1.99-20.64 13.349-20.17.716 6.214 2.556 11.758 10.871 13.517-.795-1.609-.994-2.698-1.66-3.267-8.217-7.083-6.247-17.563-.369-24.337 9.29-10.69 21.058-15.904 35.162-11.938 4.427 1.249 8.097 5.275 12.036 8.142.833.68 1.584 1.454 2.238 2.308 1.89-1.469 3.332-3.347 5.153-3.876 16.502-4.776 33.162 11.738 28.925 28.492a13.724 13.724 0 0 0-.298 2.378c5.122.58 10.613-.21 14.323 1.998 3.71 2.208 5.362 7.383 7.719 10.99 1.81-3.138 6.595-4.596 12.93-2.798 3.065.869 5.91 2.507 8.844 3.796a1034.34 1034.34 0 0 1-.577 5.715l.885.36c.855-1.1 1.69-2.199 2.556-3.288 4.715-5.924 10.753-9.61 18.352-10.22 8.485-.679 16.005 6.614 17.268 16.424.14 1.09.16 2.198.318 4.396l3.163-5.175c2.238 2.148 4.377 4.196 6.715 6.454 2.984-5.745 8.206-6.853 14.054-5.814 4.556.789 7.759 4.445 9.45 10.14z" id="Shape" opacity="0.5"/><path d="M398.606 791.264c-8.052-1.425-16.153-2.455-24.373-3.633-.797-.93-1.545-2.573-2.531-2.781-2.481-.515-5.082-.307-7.623-.535-1.126-.099-2.69-.099-3.268-.87-4.843-6.534-10.832-8.385-18.106-6.336-.996.277-3.228-.654-3.348-1.337-.777-4.761-4.165-5.286-7.383-6.84-4.903-2.376-9.735-3.84-15.007-2.554-2.261.545-3.497-.06-4.932-2.277-3.308-5.147-7.035-9.612-12.645-12.363-11.788-5.791-23.595-3.96-32.633 3.85a23.154 23.154 0 0 0-7.055-6.93c-9.097-5.76-17.358-2.078-24.592 5.713-.787-1.356-1.375-2.435-1.993-3.455a43.769 43.769 0 0 0-1.614-2.336c.182-.91.308-1.828.379-2.752.717-10.711-5.431-23.53-18.315-22.63-2.82.189-3.677-1.445-4.663-3.761-4.365-10.236-12.884-14.849-21.454-12.869-6.696-7.335-14.946-9.543-23.546-8.414-.996 5.553-1.803 10.473-2.89 15.294a20.649 20.649 0 0 0-2.989 2.97c.3-5.94 1.485-11.602.688-16.888-1.893-12.503-9.665-16.947-20.716-19.501-5.85-1.346-12.117-1.129-18.145-.703-11.798.841-21.174 6.8-27.651 18.016-1.774 3.069-3.458 6.058-.22 9.286.36.366.37 1.168.549 1.762-6.776-6.276-14.598-6.93-22.66-6.227-7.303.673-13.71 3.574-18.424 10.196-1.235 1.732-1.454 3.059.08 4.95a12.536 12.536 0 0 1 3.129 10.542c-5.84-11.305-14.449-12.215-23.486-8.79-9.965 3.771-16.133 11.483-15.565 23.926-.398.227-.578.425-.767.435l-6.756.179c-3.734.075-6.915 2.717-7.652 6.355A12.811 12.811 0 0 0 3.757 762.3a9.407 9.407 0 0 0 10.96 2.613 15.716 15.716 0 0 0 2.053-1.118c.608 1.494.797 2.97 1.575 3.692 3.786 3.376 12.236 5.019 18.324.336-.568-5.87.339-8.097 4.404-10.384-.179.733-.289 1.277-.448 1.802-2.192 7.523 1.754 13.71 8.868 13.859 2.71.079 5.291.069 4.723-4.326-.06-.436.449-.99.927-1.98a14.8 14.8 0 0 1 1.096 2.435c1.455 6.86 5.61 10.275 11.579 11.71 7.254 1.753 13.233-1.662 19.211-5.157 1.903-1.118 2.93-2.415 2.67-4.95a26.163 26.163 0 0 1 .39-4.949c4.413 16.205 15.185 16.423 27.232 13.661l.18 1.119-5.053 4.038a56.672 56.672 0 0 0-6.048-.524 40.757 40.757 0 0 0-13.153 1.633c-3.886 1.218-8.43-1.435-11.768 2.673-.428.524-1.644.317-2.501.346-5.306-.021-10.157 2.975-12.485 7.712-.568 1.039-2.292 1.673-3.548 1.811-4.842.525-9.735.594-14.568 1.178-4.085.485-8.44.624-12.096 2.396-4.205 1.98-4.753 6.672-3.279 10.889l19.67 4.454c-.28 5.702 2.272 8.474 7.134 9.078a61.281 61.281 0 0 1 10.483 2.623c2.342.732 4.524 2.494 6.875 2.752 3.478.376 7.284-1.148 10.523-.159 20.766 6.375 40.854 7.544 59.198-7.84.233-.176.502-.301.787-.366 6.607-1.673 13.243-3.276 19.84-5.019 1.504-.406 3.089-.732 4.583-1.227a21.936 21.936 0 0 0 12.585 8.048c8.55 1.98 16.083-.822 22.65-7.85 3.507 8.236 9.147 11.81 16.61 12.403 7.463.594 13.272-2.91 18.006-8.75 10.711 6.711 17.806 4.751 25.419-7.266a31.415 31.415 0 0 1 2.93 1.643c10.372 6.504 22.03 6.167 32.882-1.208a4.72 4.72 0 0 1 4.713.248c8.26 6.93 21.095 4.95 27.591-1.644 2.591-2.633 4.664-2.563 7.653-1.455 5.52 1.98 10.96 1.228 15.265-3.286 2.452-2.574 4.464-4.187 8.072-3.376 1.644.367 3.656-1.366 5.52-2.088a29.113 29.113 0 0 1 5.859-2.07c6.975-.99 13.95-1.643 20.925-2.79 1.515-.258 2.82-2.09 4.225-3.198-1.505-1.119-2.84-2.97-4.394-3.208zm-257.5-13.561a14.223 14.223 0 0 0 5.979 2.366 23.15 23.15 0 0 0-3.259 7.157 28.677 28.677 0 0 0-3.198-1.465c.44-.736.776-1.529.996-2.356.518-1.723-.299-3.88-.518-5.702z" id="Shape" opacity="0.8"/><path d="M1585.223 751.772c17.676 10.012 35.202 23.067 55.87 5.837l-5.965-7.04c11.244 4.445 22.21 7.11 33.8 5.727 12.15-1.441 19.884-9.465 25.848-19.367.994.716 1.69.994 1.68 1.272-.308 10.788 2.327 13.581 13.78 13.69 3.538 0 7.087-.874 10.616-1.42 3.977-.617 6.96-.607 8.878 4.433 2.764 7.109 17.666 12.07 23.293 7.328 3.052-2.565 3.847-8.889 3.976-13.542.06-3.151-2.903-6.363-5.368-9.206 3.121-23.514-7.894-42.155-29.605-47.723-.2 2.496-.388 4.971-.587 7.367-4.692-6.8-8.34-14.466-14.137-19.775-6.024-5.508-14.136-8.749-21.383-13.014.387-.348 1.441-1.323 2.485-2.317-15.906-22.618-40.113-30.443-65.046-21.256-8.55 3.151-14.793 8.7-19.823 16.186-2.128 3.151-5.657 5.368-8.56 7.953l-1.819-1.56.457-7.199c-18.282-.894-34.794 10.44-39.477 27.163 2.257 1.312 4.842 2.425 6.96 4.136 2.117 1.71 3.628 3.976 6.889 7.685-3.858-.696-5.528-.736-6.96-1.303-14.186-5.408-26.463-1.67-35.709 10.808-3.777 5.09-6.481 12.706-15.399 6.124-1.193-.875-7.118 1.6-7.605 3.41-1.53 5.608-3.45 12.448-1.461 17.27 1.6 3.897 8.4 7.069 13.311 7.815 5.508.835 10.16 0 14.107 5.915 1.988 2.983 8.48 2.983 13.003 3.977 2.794.656 6.253-.07 8.5 1.303 12.278 7.605 23.313 7.615 35.45-.677z" id="Shape" opacity="0.5"/></g></g></g></g></g></svg>