<svg width="272px" height="272px" xmlns="http://www.w3.org/2000/svg" xmlns:xlink="http://www.w3.org/1999/xlink"><defs><path id="path-1" d="M.132.601h271.335v271.335H.132z"/><path d="M135.8.601C60.872.601.132 61.341.132 136.269c0 74.927 60.74 135.667 135.668 135.667 74.927 0 135.667-60.74 135.667-135.667C271.467 61.341 210.727.601 135.8.601z" id="path-3"/><path d="M135.8.601C60.872.601.132 61.341.132 136.269c0 74.927 60.74 135.667 135.668 135.667 74.927 0 135.667-60.74 135.667-135.667C271.467 61.341 210.727.601 135.8.601z" id="path-5"/><path d="M135.8.601C60.872.601.132 61.341.132 136.269c0 74.927 60.74 135.667 135.668 135.667 74.927 0 135.667-60.74 135.667-135.667C271.467 61.341 210.727.601 135.8.601z" id="path-7"/><path d="M135.8.601C60.872.601.132 61.341.132 136.269c0 74.927 60.74 135.667 135.668 135.667 74.927 0 135.667-60.74 135.667-135.667C271.467 61.341 210.727.601 135.8.601z" id="path-9"/><path d="M135.8.601C60.872.601.132 61.341.132 136.269c0 74.927 60.74 135.667 135.668 135.667 74.927 0 135.667-60.74 135.667-135.667" id="path-11"/><path d="M135.8.601C60.872.601.132 61.341.132 136.269c0 74.927 60.74 135.667 135.668 135.667 74.927 0 135.667-60.74 135.667-135.667C271.467 61.341 210.727.601 135.8.601z" id="path-13"/><path d="M135.8.601C60.872.601.132 61.341.132 136.269c0 74.927 60.74 135.667 135.668 135.667 74.927 0 135.667-60.74 135.667-135.667C271.467 61.341 210.727.601 135.8.601z" id="path-15"/><path d="M135.8.601C60.872.601.132 61.341.132 136.269c0 74.927 60.74 135.667 135.668 135.667 74.927 0 135.667-60.74 135.667-135.667C271.467 61.341 210.727.601 135.8.601z" id="path-17"/><path id="path-19" d="M.437 36.888l13.671-7.835L17.712.344z"/><path d="M135.8.601C60.872.601.132 61.341.132 136.269c0 74.927 60.74 135.667 135.668 135.667 74.927 0 135.667-60.74 135.667-135.667C271.467 61.341 210.727.601 135.8.601z" id="path-21"/><path d="M135.8.601C60.872.601.132 61.341.132 136.269c0 74.927 60.74 135.667 135.668 135.667 74.927 0 135.667-60.74 135.667-135.667C271.467 61.341 210.727.601 135.8.601z" id="path-23"/><path d="M135.8.601C60.872.601.132 61.341.132 136.269c0 74.927 60.74 135.667 135.668 135.667 74.927 0 135.667-60.74 135.667-135.667C271.467 61.341 210.727.601 135.8.601z" id="path-25"/><path d="M135.8.601C60.872.601.132 61.341.132 136.269c0 74.927 60.74 135.667 135.668 135.667 74.927 0 135.667-60.74 135.667-135.667C271.467 61.341 210.727.601 135.8.601z" id="path-27"/><path d="M135.8.601C60.872.601.132 61.341.132 136.269c0 74.927 60.74 135.667 135.668 135.667 74.927 0 135.667-60.74 135.667-135.667C271.467 61.341 210.727.601 135.8.601z" id="path-29"/><path d="M135.8.601C60.872.601.132 61.341.132 136.269c0 74.927 60.74 135.667 135.668 135.667 74.927 0 135.667-60.74 135.667-135.667C271.467 61.341 210.727.601 135.8.601z" id="path-31"/><path d="M135.8.601C60.872.601.132 61.341.132 136.269c0 74.927 60.74 135.667 135.668 135.667 74.927 0 135.667-60.74 135.667-135.667C271.467 61.341 210.727.601 135.8.601z" id="path-33"/><path d="M135.8.601C60.872.601.132 61.341.132 136.269c0 74.927 60.74 135.667 135.668 135.667 74.927 0 135.667-60.74 135.667-135.667" id="path-35"/><path d="M135.8.601C60.872.601.132 61.341.132 136.269c0 74.927 60.74 135.667 135.668 135.667 74.927 0 135.667-60.74 135.667-135.667" id="path-37"/><path d="M135.8.601C60.872.601.132 61.341.132 136.269c0 74.927 60.74 135.667 135.668 135.667 74.927 0 135.667-60.74 135.667-135.667" id="path-39"/><path d="M135.8.601C60.872.601.132 61.341.132 136.269c0 74.927 60.74 135.667 135.668 135.667 74.927 0 135.667-60.74 135.667-135.667" id="path-41"/><path d="M135.8.601C60.872.601.132 61.341.132 136.269c0 74.927 60.74 135.667 135.668 135.667 74.927 0 135.667-60.74 135.667-135.667" id="path-43"/><path d="M135.8.601C60.872.601.132 61.341.132 136.269c0 74.927 60.74 135.667 135.668 135.667 74.927 0 135.667-60.74 135.667-135.667" id="path-45"/><path d="M135.8.601C60.872.601.132 61.341.132 136.269c0 74.927 60.74 135.667 135.668 135.667 74.927 0 135.667-60.74 135.667-135.667" id="path-47"/><path d="M135.8.601C60.872.601.132 61.341.132 136.269c0 74.927 60.74 135.667 135.668 135.667 74.927 0 135.667-60.74 135.667-135.667C271.467 61.341 210.727.601 135.8.601z" id="path-49"/><path d="M135.8.601C60.872.601.132 61.341.132 136.269c0 74.927 60.74 135.667 135.668 135.667 74.927 0 135.667-60.74 135.667-135.667" id="path-51"/><path d="M135.8.601C60.872.601.132 61.341.132 136.269c0 74.927 60.74 135.667 135.668 135.667 74.927 0 135.667-60.74 135.667-135.667" id="path-53"/><path d="M135.8.601C60.872.601.132 61.341.132 136.269c0 74.927 60.74 135.667 135.668 135.667 74.927 0 135.667-60.74 135.667-135.667" id="path-55"/><path d="M135.8.601C60.872.601.132 61.341.132 136.269c0 74.927 60.74 135.667 135.668 135.667 74.927 0 135.667-60.74 135.667-135.667" id="path-57"/><path d="M135.8.601C60.872.601.132 61.341.132 136.269c0 74.927 60.74 135.667 135.668 135.667 74.927 0 135.667-60.74 135.667-135.667" id="path-59"/><path d="M135.8.601C60.872.601.132 61.341.132 136.269c0 74.927 60.74 135.667 135.668 135.667 74.927 0 135.667-60.74 135.667-135.667" id="path-61"/><path d="M135.8.601C60.872.601.132 61.341.132 136.269c0 74.927 60.74 135.667 135.668 135.667 74.927 0 135.667-60.74 135.667-135.667" id="path-63"/><path d="M135.8.601C60.872.601.132 61.341.132 136.269c0 74.927 60.74 135.667 135.668 135.667 74.927 0 135.667-60.74 135.667-135.667" id="path-65"/><path d="M135.8.601C60.872.601.132 61.341.132 136.269c0 74.927 60.74 135.667 135.668 135.667 74.927 0 135.667-60.74 135.667-135.667" id="path-67"/><path d="M135.8.601C60.872.601.132 61.341.132 136.269c0 74.927 60.74 135.667 135.668 135.667 74.927 0 135.667-60.74 135.667-135.667" id="path-69"/><path d="M135.8.601C60.872.601.132 61.341.132 136.269c0 74.927 60.74 135.667 135.668 135.667 74.927 0 135.667-60.74 135.667-135.667" id="path-71"/><path d="M135.8.601C60.872.601.132 61.341.132 136.269c0 74.927 60.74 135.667 135.668 135.667 74.927 0 135.667-60.74 135.667-135.667" id="path-73"/><path d="M135.8.601C60.872.601.132 61.341.132 136.269c0 74.927 60.74 135.667 135.668 135.667 74.927 0 135.667-60.74 135.667-135.667" id="path-75"/><path d="M135.8.601C60.872.601.132 61.341.132 136.269c0 74.927 60.74 135.667 135.668 135.667 74.927 0 135.667-60.74 135.667-135.667" id="path-77"/><path d="M135.8.601C60.872.601.132 61.341.132 136.269c0 74.927 60.74 135.667 135.668 135.667 74.927 0 135.667-60.74 135.667-135.667" id="path-79"/><path d="M135.8.601C60.872.601.132 61.341.132 136.269c0 74.927 60.74 135.667 135.668 135.667 74.927 0 135.667-60.74 135.667-135.667C271.467 61.341 210.727.601 135.8.601z" id="path-81"/><path d="M135.8.601C60.872.601.132 61.341.132 136.269c0 74.927 60.74 135.667 135.668 135.667 74.927 0 135.667-60.74 135.667-135.667" id="path-83"/><path d="M135.8.601C60.872.601.132 61.341.132 136.269c0 74.927 60.74 135.667 135.668 135.667 74.927 0 135.667-60.74 135.667-135.667" id="path-85"/><path d="M135.8.601C60.872.601.132 61.341.132 136.269c0 74.927 60.74 135.667 135.668 135.667 74.927 0 135.667-60.74 135.667-135.667" id="path-87"/><path d="M135.8.601C60.872.601.132 61.341.132 136.269c0 74.927 60.74 135.667 135.668 135.667 74.927 0 135.667-60.74 135.667-135.667C271.467 61.341 210.727.601 135.8.601z" id="path-89"/></defs><g id="Page-1" fill="none" fill-rule="evenodd"><g id="Desktop-HD" transform="translate(-188 -2756)"><g id="SECTION-2" transform="translate(139 2565)"><g id="icons/-accountable" transform="translate(0 191)"><g id="accountable" transform="translate(49)"><g id="Group-3"><mask id="mask-2" fill="#fff"><use xlink:href="#path-1"/></mask><path d="M271.467 136.269c0 74.927-60.74 135.667-135.667 135.667-74.928 0-135.668-60.74-135.668-135.667C.132 61.34 60.872.6 135.8.6c74.927 0 135.667 60.74 135.667 135.668" id="Fill-1" fill="#F79D61" mask="url(#mask-2)"/></g><g id="Group-28"><g id="Group-6"><mask id="mask-4" fill="#fff"><use xlink:href="#path-3"/></mask><path id="Fill-4" fill="#FEFEFE" mask="url(#mask-4)" d="M97.774 77.618l4.89 4.887-5.884-4.13-5.196 4.967 4.157-5.518-4.994-5.563 5.857 4.21 5.224-5.046z"/></g><g id="Group-9"><mask id="mask-6" fill="#fff"><use xlink:href="#path-5"/></mask><path id="Fill-7" fill="#FEFEFE" mask="url(#mask-6)" d="M242.855 182.994l4.89 4.887-5.885-4.13-5.196 4.966 4.157-5.518-4.994-5.562 5.858 4.21 5.222-5.047z"/></g><g id="Group-12"><mask id="mask-8" fill="#fff"><use xlink:href="#path-7"/></mask><path id="Fill-10" fill="#FEFEFE" mask="url(#mask-8)" d="M64.514 166.415l4.89 4.888-5.883-4.13-5.197 4.967 4.157-5.519-4.993-5.562 5.857 4.21 5.223-5.047z"/></g><g id="Group-15"><mask id="mask-10" fill="#fff"><use xlink:href="#path-9"/></mask><path id="Fill-13" fill="#FEFEFE" mask="url(#mask-10)" d="M203.629 150.34l4.89 4.887-5.883-4.13-5.197 4.967 4.157-5.519-4.994-5.562 5.857 4.21 5.224-5.047z"/></g><g id="Group-18"><mask id="mask-12" fill="#fff"><use xlink:href="#path-11"/></mask><path d="M271.467 187.28c0 54.52-78.8 98.72-133.32 98.72C83.625 286 .132 241.8.132 187.28c0-54.521 83.493-98.721 138.015-98.721 54.52 0 133.32 44.2 133.32 98.72" id="Fill-16" fill="#EAD063" mask="url(#mask-12)"/></g><g id="Group-21"><mask id="mask-14" fill="#fff"><use xlink:href="#path-13"/></mask><path id="Fill-19" fill="#7D2572" mask="url(#mask-14)" d="M19.343 263.418l11.818-36.547 10.206 3.223 4.297-10.206h4.774l17.274-36.544 39.525-19.427 39.228-43.966 16.31 3.28 5.47-3.98 11.176 22.21 19.905 49.472 10.536-4.875 20.054 33.293 8.595 1.431 26.858 42.636-121.227 17.51z"/></g><g id="Group-24"><mask id="mask-16" fill="#fff"><use xlink:href="#path-15"/></mask><path id="Fill-22" fill="#50246A" mask="url(#mask-16)" d="M146.465 119.951l.9 25.823-40.13 18.143z"/></g><g id="Group-27"><mask id="mask-18" fill="#fff"><use xlink:href="#path-17"/></mask><path id="Fill-25" fill="#50246A" mask="url(#mask-18)" d="M77.377 198.785l18.979-7.852 10.88-27.016-39.524 19.428-17.274 36.543h-4.774l-4.297 10.207-10.206-3.224-11.818 36.547H49.34l21.95-24.887z"/></g></g><g id="Group-31" transform="translate(50 183)"><mask id="mask-20" fill="#fff"><use xlink:href="#path-19"/></mask><path id="Fill-29" mask="url(#mask-20)" d="M.437 36.888l13.671-7.835L17.712.344z"/></g><g id="Group-136"><g id="Group-34"><mask id="mask-22" fill="#fff"><use xlink:href="#path-21"/></mask><path id="Fill-32" fill="#E46E7D" mask="url(#mask-22)" d="M146.465 119.951l11.244 7.834 5.066-4.555z"/></g><g id="Group-37"><mask id="mask-24" fill="#fff"><use xlink:href="#path-23"/></mask><path id="Fill-35" fill="#E46E7D" mask="url(#mask-24)" d="M168.245 119.251l-4.392 34.352-1.079 10.314 12.514 3.218.398 13.718v23.852l23.64-13.772-19.905-49.472z"/></g><g id="Group-40"><mask id="mask-26" fill="#fff"><use xlink:href="#path-25"/></mask><path id="Fill-38" fill="#7D2572" mask="url(#mask-26)" d="M49.34 263.418l-21.947.758 116.749 16.751 121.227-17.509-26.858-42.636-27.396-3.58-1.254-31.144-10.535 4.875-23.103 26.036-50.221-3.302-10.901-28.449-1.721 28.45-17.024-22.735-18.98 7.851-6.086 39.747z"/></g><g id="Group-43"><mask id="mask-28" fill="#fff"><use xlink:href="#path-27"/></mask><path id="Fill-41" fill="#E46E7D" mask="url(#mask-28)" d="M209.861 186.058l1.254 31.145 18.801 2.148z"/></g><g id="Group-46"><mask id="mask-30" fill="#fff"><use xlink:href="#path-29"/></mask><path id="Fill-44" fill="#50246A" mask="url(#mask-30)" d="M199.326 190.933l-23.64 6.637.536 19.399z"/></g><g id="Group-49"><mask id="mask-32" fill="#fff"><use xlink:href="#path-31"/></mask><path id="Fill-47" fill="#50246A" mask="url(#mask-32)" d="M115.1 185.218l10.902 28.45-21.484 31.477-27.93 7.81-9.935 10.463 17.724-28.188 19.872-8.359 9.13-13.204z"/></g><g id="Group-52"><mask id="mask-34" fill="#fff"><use xlink:href="#path-33"/></mask><path id="Fill-50" fill="#A02173" mask="url(#mask-34)" d="M209.861 186.058l-10.535 4.875-23.104 26.036v37.563h-19.39l-12.69 26.395 121.227-17.509-26.859-42.635-27.395-3.58z"/></g><g id="Group-55"><mask id="mask-36" fill="#fff"><use xlink:href="#path-35"/></mask><path d="M78.799 203.621c-5.397-.413-10.705-1.118-15.117-5.69-4.181-4.333-9.902-10.08-15.83-7.23-1.777.856-2.878-2.788-3.546-6.84.092-.825.14-1.67.14-2.531 0-2.464-.388-4.794-1.082-6.877-1.782-5.34-5.574-9.029-9.964-9.029-4.622 0-8.578 4.087-10.227 9.885a10.022 10.022 0 0 0-4.024-.856c-5.897 0-10.843 5.237-12.21 12.303a9.903 9.903 0 0 0-2.716-.383c-5.268 0-9.777 4.18-11.653 10.11-.078.246-.151.496-.222.75L-13 206.95h32.149l74.174.003c-4.534-2.869-9.587-2.952-14.524-3.33" id="Fill-53" fill="#FEFEFE" mask="url(#mask-36)"/></g><g id="Group-58"><mask id="mask-38" fill="#fff"><use xlink:href="#path-37"/></mask><path d="M136.137 161.877c-1.982-.227-3.928-.558-5.491-2.303-1.481-1.653-3.51-3.847-5.733-2.879-.666.29-1.022-1.067-1.213-2.568.045-.303.076-.613.087-.93a8.039 8.039 0 0 0-.305-2.549c-.583-1.992-1.93-3.402-3.547-3.46-1.702-.065-3.216 1.386-3.902 3.5a3.699 3.699 0 0 0-1.471-.37c-2.172-.08-4.067 1.781-4.666 4.366a3.65 3.65 0 0 0-.995-.179c-1.941-.072-3.66 1.406-4.431 3.565-.032.09-.062.181-.093.274l-2.101 3.506 1.876.07 8.935.33 1.03.038 27.325 1.015c-1.631-1.119-3.492-1.219-5.305-1.426" id="Fill-56" fill="#FEFEFE" mask="url(#mask-38)"/></g><g id="Group-61"><mask id="mask-40" fill="#fff"><use xlink:href="#path-39"/></mask><path d="M149.298 240.055c-3.427-.263-6.797-.71-9.6-3.613-2.653-2.75-6.286-6.4-10.05-4.59-1.127.542-1.828-1.772-2.25-4.344.057-.523.088-1.059.088-1.607 0-1.564-.247-3.044-.687-4.366-1.131-3.39-3.54-5.733-6.327-5.733-2.934 0-5.446 2.595-6.493 6.275a6.38 6.38 0 0 0-2.556-.542c-3.743 0-6.885 3.325-7.751 7.812a6.302 6.302 0 0 0-1.726-.244c-3.344 0-6.208 2.654-7.398 6.42-.05.156-.097.315-.142.476l-3.395 6.17h20.412l47.098.001c-2.88-1.82-6.088-1.875-9.223-2.115" id="Fill-59" fill="#FEFEFE" mask="url(#mask-40)"/></g><g id="Group-64"><mask id="mask-42" fill="#fff"><use xlink:href="#path-41"/></mask><path d="M299.71 226.12c-3.153-2.823-6.67-2.906-10.104-3.28-3.756-.407-7.45-1.1-10.518-5.602-2.91-4.264-6.89-9.923-11.015-7.117-1.235.843-2.003-2.745-2.466-6.733.063-.813.097-1.644.097-2.494 0-2.423-.27-4.718-.753-6.768-1.24-5.257-3.878-8.888-6.933-8.888-3.215 0-5.967 4.023-7.115 9.73-.88-.542-1.821-.841-2.8-.841-2.87 0-5.412 2.52-7.008 6.413-1.395-2.042-3.334-3.314-5.481-3.314-3.215 0-5.967 2.843-7.115 6.876a6.993 6.993 0 0 0-2.8-.593c-4.102 0-7.544 3.643-8.494 8.56a6.86 6.86 0 0 0-1.89-.267c-3.666 0-6.803 2.907-8.108 7.034-.055.171-.105.346-.155.522l-3.721 6.76H225.699l51.609.002-.002-.001 22.405.001" id="Fill-62" fill="#FEFEFE" mask="url(#mask-42)"/></g><g id="Group-67"><mask id="mask-44" fill="#fff"><use xlink:href="#path-43"/></mask><path d="M47.01 82.193c-2.89-.222-5.731-.6-8.095-3.047-2.238-2.32-5.301-5.397-8.476-3.871-.951.457-1.542-1.494-1.9-3.663.05-.442.076-.895.076-1.357 0-1.318-.208-2.566-.58-3.681-.954-2.86-2.985-4.835-5.336-4.835-2.474 0-4.593 2.187-5.476 5.292a5.368 5.368 0 0 0-2.155-.457c-3.158 0-5.807 2.804-6.538 6.588a5.323 5.323 0 0 0-1.456-.205c-2.82 0-5.235 2.238-6.24 5.414-.041.132-.081.266-.12.402l-2.862 5.202h17.216l39.72.002c-2.427-1.536-5.133-1.581-7.777-1.784" id="Fill-65" fill="#FEFEFE" mask="url(#mask-44)"/></g><g id="Group-70"><mask id="mask-46" fill="#fff"><use xlink:href="#path-45"/></mask><path d="M199.541 148.43c-1.519-.116-3.013-.314-4.254-1.602-1.177-1.218-2.786-2.835-4.455-2.034-.5.24-.81-.785-.998-1.925.026-.232.04-.469.04-.712 0-.693-.109-1.349-.305-1.935-.501-1.503-1.568-2.54-2.804-2.54-1.3 0-2.413 1.148-2.877 2.78a2.833 2.833 0 0 0-1.133-.24c-1.659 0-3.052 1.474-3.437 3.462a2.787 2.787 0 0 0-.764-.108c-1.483 0-2.751 1.176-3.279 2.845-.022.07-.043.14-.063.211l-1.505 2.735H203.629c-1.276-.807-2.698-.83-4.088-.937" id="Fill-68" fill="#FEFEFE" mask="url(#mask-46)"/></g><g id="Group-73"><mask id="mask-48" fill="#fff"><use xlink:href="#path-47"/></mask><path d="M277.212 258.926c-2.891-.222-5.733-.599-8.096-3.047-2.24-2.32-5.302-5.397-8.476-3.87-.952.456-1.542-1.495-1.9-3.664.049-.442.076-.895.076-1.357 0-1.318-.208-2.567-.581-3.68-.953-2.86-2.984-4.836-5.335-4.836-2.475 0-4.593 2.187-5.476 5.292a5.368 5.368 0 0 0-2.155-.457c-3.158 0-5.807 2.804-6.538 6.588a5.323 5.323 0 0 0-1.456-.205c-2.821 0-5.235 2.238-6.24 5.414a11.15 11.15 0 0 0-.12.402l-2.862 5.202h17.216l39.72.002c-2.427-1.536-5.133-1.58-7.777-1.784" id="Fill-71" fill="#FEFEFE" mask="url(#mask-48)"/></g><g id="Group-76"><mask id="mask-50" fill="#fff"><use xlink:href="#path-49"/></mask><path id="Fill-74" fill="#62A7DB" mask="url(#mask-50)" d="M116.993 69.55l-18.887.396.4 3.803z"/></g><g id="Group-79"><mask id="mask-52" fill="#fff"><use xlink:href="#path-51"/></mask><path d="M107.72 75.21c-1.16.768-.271 1.45-.031 2.104.086.233.535.323.648.034.328-.843-.25-1.444-.616-2.138m2.994 13.613c.397-.589 1.483-.203 1.616-1.223.22-1.673.623-3.326.772-5.003.16-1.805-.67-3.14-2.408-3.797-1.725-.652-3.246-.214-4.353 1.191-1.151 1.463-1.397 3.103-.054 4.623 1.467 1.66 2.564 3.554 3.585 5.49.412.778.759 1.113 1.705.855 1.536-.418-.45-1.54.486-2.009-.386-.723-.944.396-1.35-.127m.487-17.659c1.318-.265 2.657-.45 3.945-.815 1.334-.377 1.926-.126 2.137 1.384.474 3.41 1.15 6.788 1.747 10.178-.838.496-2.32-.757-2.698.912-.578 2.562 1.583 6.128 4.104 6.9.297 1.768.493 3.562.923 5.3.304 1.23-.161 1.711-1.228 1.945-3.484.446-6.91 1.184-10.308 2.058-1.903-.019-3.721.537-5.57.868-1.16.207-1.815.02-1.951-1.26-.077-.734-.3-1.45-.434-2.18-.446-2.423-.554-2.455-3.061-1.615-.848.284-1.274.583-.935 1.568 1.252 3.628 2.453 7.274 3.674 10.912.009 2.788-.27 5.532-1.277 8.161a36.435 36.435 0 0 1-7.186 9.92c-1.82 1.793-3.723 2.821-6.3 2.145-1.883-.829-2.843-2.347-3.424-4.272-2.267-7.523-4.604-15.025-6.91-22.536-.678-2.21-1.093-2.39-2.83-.925-3.18 2.682-5.497 6.011-6.635 10.017-1.13 3.973-1.854 8.045-2.32 12.154-1.883.525-3.787.048-5.681.096-.724-1.38-.144-2.786.009-4.145.913-8.056 2.939-15.783 6.93-22.923 3.023-5.406 7.365-9.405 12.748-12.353.058 1.275 1.05 1.752 1.937 2.384 2.95 2.106 5.857 4.272 8.942 6.531l-.28-9.23c2.704.56 5.406 1.13 8.113 1.675 1.509.304 1.934-.26 1.54-1.76-.544-2.085-.832-4.237-1.41-6.31-.32-1.153.1-1.72.994-2.199 4.319-.432 8.466-1.713 12.695-2.585" id="Fill-77" fill="#5BC5CB" mask="url(#mask-52)"/></g><g id="Group-82"><mask id="mask-54" fill="#fff"><use xlink:href="#path-53"/></mask><path d="M100.269 115.48c1.008-2.63 1.286-5.372 1.277-8.16 7.4-3.801 14.794-7.611 22.202-11.396 2.458-1.256 2.625-1.445 3.267 1.39 2.236 9.892 4.675 19.737 7.044 29.599.094.389.272.758.408 1.138l-.087.492c-2.168 1.242-3.665 3.132-5.01 5.17-.853.34-1.237-.125-1.515-.845-2.37-6.131-4.75-12.26-7.125-18.388l2.924-13.186a86.658 86.658 0 0 1-.728-.201c-3.432 3.538-4.787 8.022-5.538 12.782-5.08 4.507-10.293 8.85-15.78 12.859-.154-1.138-.354-2.271-.452-3.411-.228-2.623-.097-5.284-.887-7.843" id="Fill-80" fill="#3B5874" mask="url(#mask-54)"/></g><g id="Group-85"><mask id="mask-56" fill="#fff"><use xlink:href="#path-55"/></mask><path d="M100.269 115.48c.79 2.559.659 5.22.887 7.843.098 1.14.298 2.273.452 3.41.424 6.4.81 12.803 1.304 19.196.08 1.037-.137 1.81-.724 2.61-5.711 7.77-11.42 15.545-17.077 23.354-.601.829-1.11.82-1.84.37-.667-2.468-2.44-4.256-3.856-6.262-.248-1.303.759-2.134 1.269-3.11 2.934-5.62 5.957-11.193 8.973-16.77.477-.884.577-1.744.37-2.727-1.105-5.277-2.166-10.564-3.243-15.85 2.576.677 4.479-.35 6.299-2.143a36.425 36.425 0 0 0 7.186-9.921" id="Fill-83" fill="#3B5874" mask="url(#mask-56)"/></g><g id="Group-88"><mask id="mask-58" fill="#fff"><use xlink:href="#path-57"/></mask><path d="M89.269 82.343l.28 9.23c-3.085-2.259-5.992-4.424-8.942-6.53-.886-.633-1.88-1.11-1.937-2.385.14-2.223.353-4.446.083-6.675.87.5 1.58.602 2.14-.504.49-.967.109-1.33-.653-1.925-.931-.724-1.614-1.727-1.554-3.112.038-.889.063-1.68 1.029-1.912.948-.228 1.517.301 1.76 1.23.113.436.238 1.087.846.872.665-.235.237-.86.052-1.187-1.51-2.675-.812-5.172.519-7.638 2.034.782 3.89 1.825 5.248 3.595-.954.523-1.463 1.386-1.96 2.377 1.034.15 1.879.084 2.644-.439.46.07.923.134 1.382.21 1.303.21 1.754.791.963 2.034-.192.302-.13.767-.181 1.156-2.291.99-4.578 1.953-7.176 1.231-.395-.109-1-.36-1.268.168-.244.481.19.891.502 1.225 1.924 2.056 3.867 4.096 5.802 6.141l.42 2.838" id="Fill-86" fill="#F3D8BF" mask="url(#mask-58)"/></g><g id="Group-91"><mask id="mask-60" fill="#fff"><use xlink:href="#path-59"/></mask><path d="M82.106 173.577c.499 1.208-.555 2.012-.813 3.023-.647 2.516-.583 5.106-.983 7.642-.112.714-.037 1.686-.874 1.889-.818.196-1.268-.67-1.687-1.249-.998-1.382-1.76-2.92-2.153-4.567-.837-3.51-2.026-6.879-3.728-10.05-.631-1.18-.393-1.848.808-2.355 1.754-.74 3.305-2.221 5.457-1.41-.353 3.22 1.014 5.659 3.973 7.077" id="Fill-89" fill="#5BC5CB" mask="url(#mask-60)"/></g><g id="Group-94"><mask id="mask-62" fill="#fff"><use xlink:href="#path-61"/></mask><path d="M134.38 128.543l.087-.492c2.832-.233 4.884-2.025 7.066-3.544 1.202-.837 2.315-1.827 3.846-2.037.66 2.33-.441 4.283-1.544 6.106-1.994 3.3-4.287 6.421-5.527 10.128-.244.731-.773 1.08-1.533 1.096-1.822-1.023-4.086-1.357-5.257-3.387 2.799-1.952 3.499-4.668 2.862-7.87" id="Fill-92" fill="#5BC5CB" mask="url(#mask-62)"/></g><g id="Group-97"><mask id="mask-64" fill="#fff"><use xlink:href="#path-63"/></mask><path d="M82.892 61.807c-1.331 2.466-2.03 4.963-.52 7.638.186.327.614.952-.051 1.187-.608.215-.733-.436-.846-.872-.243-.929-.812-1.458-1.76-1.23-.966.231-.991 1.023-1.03 1.912-.06 1.386.624 2.388 1.555 3.112.762.594 1.144.958.654 1.925-.561 1.106-1.272 1.004-2.141.504-.527-1.739-1.957-2.712-3.256-3.777-1.87-1.531-2.307-2.922-1.442-5.169 1.158-3.005 2.857-5.682 5.116-7.98.74-.752 1.519-1.865 2.715-1.323 1.093.495 1.063 1.784 1.119 2.865.02.399-.072.805-.113 1.208" id="Fill-95" fill="#3B5874" mask="url(#mask-64)"/></g><g id="Group-100"><mask id="mask-66" fill="#fff"><use xlink:href="#path-65"/></mask><path d="M58.982 122.08c1.895-.049 3.798.428 5.683-.096.426 2.463 1.782 4.467 3.167 6.462.315.454 1.002.946.29 1.548-.643.544-1.334.482-2.013-.083-2.142-1.778-2.233-1.79-2.98 1.016-.374 1.401-1.09 2.365-2.236 3.197-2.002 1.453-2.707 1.323-2.969-1.084-.402-3.698-1.456-7.521 1.058-10.96" id="Fill-98" fill="#F3D8BF" mask="url(#mask-66)"/></g><g id="Group-103"><mask id="mask-68" fill="#fff"><use xlink:href="#path-67"/></mask><path d="M88.848 79.505c-1.936-2.045-3.878-4.085-5.802-6.142-.312-.334-.746-.743-.502-1.224.268-.529.873-.278 1.268-.168 2.598.722 4.885-.24 7.176-1.23 1.253.755 1.988 1.641 1.329 3.264-.406 1 .34 1.943.734 2.842.527 1.205.099 1.73-1.071 1.96-1.05.205-2.088.463-3.132.698" id="Fill-101" fill="#3B5874" mask="url(#mask-68)"/></g><g id="Group-106"><mask id="mask-70" fill="#fff"><use xlink:href="#path-69"/></mask><path d="M117.388 113.874c.75-4.76 2.105-9.243 5.538-12.78l.728.2-2.924 13.185c-.835-1.738-1.992-1.704-3.342-.605" id="Fill-104" fill="#3B5874" mask="url(#mask-70)"/></g><g id="Group-109"><mask id="mask-72" fill="#fff"><use xlink:href="#path-71"/></mask><path d="M134.38 128.543c.637 3.202-.063 5.918-2.862 7.87-1.287-.444-.817-2.292-2.15-2.698 1.347-2.04 2.844-3.93 5.012-5.172" id="Fill-107" fill="#F3D8BF" mask="url(#mask-72)"/></g><g id="Group-112"><mask id="mask-74" fill="#fff"><use xlink:href="#path-73"/></mask><path d="M82.106 173.577c-2.959-1.418-4.326-3.857-3.972-7.077l1.28-.5c1.416 2.007 3.19 3.796 3.858 6.263-.665.194-1.037.647-1.166 1.314" id="Fill-110" fill="#F3D8BF" mask="url(#mask-74)"/></g><g id="Group-115"><mask id="mask-76" fill="#fff"><use xlink:href="#path-75"/></mask><path d="M88.823 67.34c-.765.522-1.609.588-2.644.438.498-.99 1.006-1.853 1.96-2.376l.684 1.938" id="Fill-113" fill="#7498AA" mask="url(#mask-76)"/></g><g id="Group-118"><mask id="mask-78" fill="#fff"><use xlink:href="#path-77"/></mask><path d="M110.716 88.825c.404.52.962-.598 1.348.126-.936.469 1.049 1.59-.486 2.009-.946.258-1.293-.077-1.705-.857-1.021-1.934-2.118-3.828-3.585-5.488-1.343-1.52-1.097-3.16.054-4.623 1.106-1.405 2.628-1.843 4.353-1.191 1.738.656 2.568 1.992 2.408 3.796-.15 1.678-.552 3.33-.772 5.003-.134 1.02-1.22.635-1.615 1.225" id="Fill-116" fill="#A53470" mask="url(#mask-78)"/></g><g id="Group-121"><mask id="mask-80" fill="#fff"><use xlink:href="#path-79"/></mask><path d="M107.72 75.21c.368.694.945 1.295.617 2.138-.113.29-.562.2-.648-.034-.24-.654-1.128-1.336.032-2.104" id="Fill-119" fill="#F0F7F8" mask="url(#mask-80)"/></g><g id="Group-124"><mask id="mask-82" fill="#fff"><use xlink:href="#path-81"/></mask><path id="Fill-122" fill="#3B5874" mask="url(#mask-82)" d="M122.21 96.393l-19.994 3.886-5.217-26.843 19.994-3.886z"/></g><g id="Group-127"><mask id="mask-84" fill="#fff"><use xlink:href="#path-83"/></mask><path d="M120.436 89.722c-2.522-.771-4.683-4.337-4.105-6.898.379-1.669 1.86-.416 2.698-.913 1.809-.29 2.593.601 2.739 2.312.08.935.172 1.885.418 2.784.44 1.616-.207 2.43-1.75 2.715" id="Fill-125" fill="#F3D8BF" mask="url(#mask-84)"/></g><g id="Group-130"><mask id="mask-86" fill="#fff"><use xlink:href="#path-85"/></mask><path d="M158.513 41.53l-.866 37.96s14.288-3.354 23.233 0c8.945 3.355 21.617 4.626 25.345 4.923v-38.84s-13.355 4.846-22.704 1.49c-9.35-3.353-25.008-5.532-25.008-5.532" id="Fill-128" fill="#5BC5CB" mask="url(#mask-86)"/></g><g id="Group-133"><mask id="mask-88" fill="#fff"><use xlink:href="#path-87"/></mask><path d="M188.808 65.473c.428-1.176.479-2.153.452-2.585a.246.246 0 0 1-.002-.026l.002-.126-.005-.199-.002-.056a4.173 4.173 0 0 0-.016-.251l-.005-.052a4.5 4.5 0 0 0-.056-.394l-.01-.039c-.024-.126-.048-.255-.085-.376-.072-.24-.147-.468-.226-.687a6.384 6.384 0 0 0-.454-1.046 5.926 5.926 0 0 0-.635-.972l-.01-.011a6.37 6.37 0 0 0-.787-.813 10.229 10.229 0 0 0-.671-.568s-.001.051-.008.14a7.313 7.313 0 0 1-1.226 2.595c-.34.452-.94 1.036-1.825.529-.514-.292-.538-1.139-.06-1.781.51-.682.962-1.147 1.1-2.318.332-2.815-2.361-4.356-3.126-4.614 0 0 .212 1.284-.491 2.618-.865 1.642-3.494 3.446-4.321 5.003-.863 1.625-.997 3.081-.962 3.638.172 2.735 1.087 4.278 2.984 5.589 0 0 .255-1.374 1.25-2.701a6.287 6.287 0 0 1 .241-.283c.354-.36.874-.647 1.573-.253a.267.267 0 0 1 .023.013v.001c.027.017.054.035.082.055.422.337.415 1.117-.035 1.718-.51.683-.96 1.148-1.098 2.318-.333 2.815 2.36 4.356 3.126 4.615 0 0-.212-1.284.49-2.619.856-1.625 3.439-3.408 4.294-4.954.165-.255.342-.643.499-1.108" id="Fill-131" fill="#FEFEFE" mask="url(#mask-88)"/></g><mask id="mask-90" fill="#fff"><use xlink:href="#path-89"/></mask><path id="Fill-134" fill="#C9223F" mask="url(#mask-90)" d="M157.573 122.293h.94V41.53h-.94z"/></g></g></g></g></g></g></svg>