<svg width="273px" height="272px" xmlns="http://www.w3.org/2000/svg" xmlns:xlink="http://www.w3.org/1999/xlink"><defs><path id="path-1" d="M.782 0h272v272h-272z"/><path d="M136.782 0c-75.111 0-136 60.89-136 136 0 75.111 60.889 136 136 136 75.11 0 136-60.889 136-136 0-75.11-60.89-136-136-136z" id="path-3"/><path d="M136.782 0c-75.111 0-136 60.89-136 136 0 75.111 60.889 136 136 136 75.11 0 136-60.889 136-136 0-75.11-60.89-136-136-136z" id="path-5"/><path d="M136.782 0c-75.111 0-136 60.89-136 136 0 75.111 60.889 136 136 136 75.11 0 136-60.889 136-136 0-75.11-60.89-136-136-136z" id="path-7"/><path d="M136.782 0c-75.111 0-136 60.89-136 136 0 75.111 60.889 136 136 136 75.11 0 136-60.889 136-136 0-75.11-60.89-136-136-136z" id="path-9"/><path d="M136.782 0c-75.111 0-136 60.89-136 136 0 75.111 60.889 136 136 136 75.11 0 136-60.889 136-136 0-75.11-60.89-136-136-136z" id="path-11"/><path d="M136.782 0c-75.111 0-136 60.89-136 136 0 75.111 60.889 136 136 136 75.11 0 136-60.889 136-136 0-75.11-60.89-136-136-136z" id="path-13"/><path d="M136.782 0c-75.111 0-136 60.89-136 136 0 75.111 60.889 136 136 136 75.11 0 136-60.889 136-136 0-75.11-60.89-136-136-136z" id="path-15"/><path d="M136.782 0c-75.111 0-136 60.89-136 136 0 75.111 60.889 136 136 136 75.11 0 136-60.889 136-136 0-75.11-60.89-136-136-136z" id="path-17"/><path d="M136.782 0c-75.111 0-136 60.89-136 136 0 75.111 60.889 136 136 136 75.11 0 136-60.889 136-136 0-75.11-60.89-136-136-136z" id="path-19"/><path d="M136.782 0c-75.111 0-136 60.89-136 136 0 75.111 60.889 136 136 136 75.11 0 136-60.889 136-136 0-75.11-60.89-136-136-136z" id="path-21"/><path d="M136.782 0c-75.111 0-136 60.89-136 136 0 75.111 60.889 136 136 136 75.11 0 136-60.889 136-136 0-75.11-60.89-136-136-136z" id="path-23"/><path d="M136.782 0c-75.111 0-136 60.89-136 136 0 75.111 60.889 136 136 136 75.11 0 136-60.889 136-136 0-75.11-60.89-136-136-136z" id="path-25"/><path d="M136.782 0c-75.111 0-136 60.89-136 136 0 75.111 60.889 136 136 136 75.11 0 136-60.889 136-136 0-75.11-60.89-136-136-136z" id="path-27"/><path d="M136.782 0c-75.111 0-136 60.89-136 136 0 75.111 60.889 136 136 136 75.11 0 136-60.889 136-136 0-75.11-60.89-136-136-136z" id="path-29"/><path d="M136.782 0c-75.111 0-136 60.89-136 136 0 75.111 60.889 136 136 136 75.11 0 136-60.889 136-136 0-75.11-60.89-136-136-136z" id="path-31"/><path d="M136.782 0c-75.111 0-136 60.89-136 136 0 75.111 60.889 136 136 136 75.11 0 136-60.889 136-136 0-75.11-60.89-136-136-136z" id="path-33"/><path d="M136.782 0c-75.111 0-136 60.89-136 136 0 75.111 60.889 136 136 136 75.11 0 136-60.889 136-136 0-75.11-60.89-136-136-136z" id="path-35"/><path d="M136.782 0c-75.111 0-136 60.89-136 136 0 75.111 60.889 136 136 136 75.11 0 136-60.889 136-136 0-75.11-60.89-136-136-136z" id="path-37"/><path d="M136.782 0c-75.111 0-136 60.89-136 136 0 75.111 60.889 136 136 136 75.11 0 136-60.889 136-136 0-75.11-60.89-136-136-136z" id="path-39"/><path d="M136.782 0c-75.111 0-136 60.89-136 136 0 75.111 60.889 136 136 136 75.11 0 136-60.889 136-136 0-75.11-60.89-136-136-136z" id="path-41"/><path d="M136.782 0c-75.111 0-136 60.89-136 136 0 75.111 60.889 136 136 136 75.11 0 136-60.889 136-136 0-75.11-60.89-136-136-136z" id="path-43"/><path d="M136.782 0c-75.111 0-136 60.89-136 136 0 75.111 60.889 136 136 136 75.11 0 136-60.889 136-136 0-75.11-60.89-136-136-136z" id="path-45"/><path d="M136.782 0c-75.111 0-136 60.89-136 136 0 75.111 60.889 136 136 136 75.11 0 136-60.889 136-136 0-75.11-60.89-136-136-136z" id="path-47"/><path d="M136.782 0c-75.111 0-136 60.89-136 136 0 75.111 60.889 136 136 136 75.11 0 136-60.889 136-136 0-75.11-60.89-136-136-136z" id="path-49"/><path d="M136.782 0c-75.111 0-136 60.89-136 136 0 75.111 60.889 136 136 136 75.11 0 136-60.889 136-136 0-75.11-60.89-136-136-136z" id="path-51"/><path d="M136.782 0c-75.111 0-136 60.89-136 136 0 75.111 60.889 136 136 136 75.11 0 136-60.889 136-136 0-75.11-60.89-136-136-136z" id="path-53"/><path d="M136.782 0c-75.111 0-136 60.89-136 136 0 75.111 60.889 136 136 136 75.11 0 136-60.889 136-136 0-75.11-60.89-136-136-136z" id="path-55"/><path d="M136.782 0c-75.111 0-136 60.89-136 136 0 75.111 60.889 136 136 136 75.11 0 136-60.889 136-136 0-75.11-60.89-136-136-136z" id="path-57"/><path d="M136.782 0c-75.111 0-136 60.89-136 136 0 75.111 60.889 136 136 136 75.11 0 136-60.889 136-136 0-75.11-60.89-136-136-136z" id="path-59"/><path d="M136.782 0c-75.111 0-136 60.89-136 136 0 75.111 60.889 136 136 136 75.11 0 136-60.889 136-136 0-75.11-60.89-136-136-136z" id="path-61"/><path d="M136.782 0c-75.111 0-136 60.89-136 136 0 75.111 60.889 136 136 136 75.11 0 136-60.889 136-136 0-75.11-60.89-136-136-136z" id="path-63"/></defs><g id="Page-1" fill="none" fill-rule="evenodd"><g id="Desktop-HD" transform="translate(-193 -3626)"><g id="collaborative-icon" transform="translate(193 3626)"><g id="Group-3"><mask id="mask-2" fill="#fff"><use xlink:href="#path-1"/></mask><path d="M272.782 136c0 75.11-60.89 136-136 136s-136-60.89-136-136 60.89-136 136-136 136 60.89 136 136" id="Fill-1" fill="#3D5875" mask="url(#mask-2)"/></g><g id="Group-190"><g id="Group-52"><mask id="mask-4" fill="#fff"><use xlink:href="#path-3"/></mask><path id="Fill-4" fill="#E46E7D" mask="url(#mask-4)" d="M63.387 238.623h137.408V33.378H63.387z"/><path d="M121.76 47.237H48.195c3.811 0 6.93 3.12 6.93 6.931s-3.119 6.93-6.93 6.93h73.565c3.811 0 6.93-3.119 6.93-6.93 0-3.812-3.119-6.93-6.93-6.93" id="Fill-6" fill="#E46E7D" mask="url(#mask-4)"/><path d="M114.563 74.958H40.998c3.811 0 6.93 3.118 6.93 6.93 0 3.81-3.119 6.929-6.93 6.929h73.565c3.812 0 6.931-3.118 6.931-6.93 0-3.811-3.119-6.93-6.931-6.93" id="Fill-7" fill="#E46E7D" mask="url(#mask-4)"/><path d="M128.423 102.678H54.858c3.811 0 6.93 3.118 6.93 6.93 0 3.81-3.119 6.93-6.93 6.93h73.565c3.812 0 6.93-3.12 6.93-6.93 0-3.812-3.118-6.93-6.93-6.93" id="Fill-8" fill="#E46E7D" mask="url(#mask-4)"/><path d="M118.028 130.397H44.464c3.81 0 6.929 3.12 6.929 6.931s-3.118 6.93-6.93 6.93h73.565c3.812 0 6.93-3.119 6.93-6.93 0-3.812-3.118-6.93-6.93-6.93" id="Fill-9" fill="#E46E7D" mask="url(#mask-4)"/><path d="M111.098 33.378H37.533c3.811 0 6.93 3.118 6.93 6.93 0 3.81-3.119 6.929-6.93 6.929h73.565c3.812 0 6.93-3.118 6.93-6.93 0-3.811-3.118-6.93-6.93-6.93" id="Fill-10" fill="#E46E7D" mask="url(#mask-4)"/><path d="M44.463 40.307c0-3.812-3.119-6.93-6.93-6.93h-20.79c-3.812 0-6.93 3.118-6.93 6.93 0 3.813 3.118 6.93 6.93 6.93h20.79c3.811 0 6.93-3.117 6.93-6.93" id="Fill-11" fill="#E46E7D" mask="url(#mask-4)"/><path d="M124.959 61.098H51.394c3.81 0 6.929 3.118 6.929 6.93 0 3.81-3.118 6.93-6.93 6.93h73.566c3.812 0 6.93-3.12 6.93-6.93 0-3.812-3.118-6.93-6.93-6.93" id="Fill-12" fill="#E46E7D" mask="url(#mask-4)"/><path d="M58.323 68.027c0-3.812-3.118-6.93-6.93-6.93h-20.79c-3.811 0-6.93 3.118-6.93 6.93s3.119 6.931 6.93 6.931h20.79c3.812 0 6.93-3.119 6.93-6.93" id="Fill-13" fill="#E46E7D" mask="url(#mask-4)"/><path d="M114.563 88.817H40.998c3.811 0 6.93 3.12 6.93 6.931s-3.119 6.93-6.93 6.93h73.565c3.812 0 6.931-3.119 6.931-6.93 0-3.812-3.119-6.93-6.931-6.93" id="Fill-14" fill="#E46E7D" mask="url(#mask-4)"/><path d="M47.928 95.748c0-3.812-3.119-6.931-6.93-6.931h-20.79c-3.812 0-6.93 3.119-6.93 6.931s3.118 6.93 6.93 6.93h20.79c3.811 0 6.93-3.118 6.93-6.93" id="Fill-15" fill="#E46E7D" mask="url(#mask-4)"/><path d="M124.425 143.594H50.86c3.811 0 6.93 3.119 6.93 6.93 0 3.812-3.119 6.93-6.93 6.93h73.565c3.812 0 6.93-3.118 6.93-6.93 0-3.811-3.118-6.93-6.93-6.93" id="Fill-16" fill="#E46E7D" mask="url(#mask-4)"/><path d="M57.79 150.524c0-3.812-3.118-6.93-6.93-6.93H30.07c-3.811 0-6.93 3.118-6.93 6.93s3.119 6.93 6.93 6.93h20.79c3.812 0 6.93-3.118 6.93-6.93" id="Fill-17" fill="#E46E7D" mask="url(#mask-4)"/><path d="M111.631 157.454H38.066c3.811 0 6.93 3.118 6.93 6.93 0 3.811-3.119 6.93-6.93 6.93h73.565c3.812 0 6.93-3.119 6.93-6.93 0-3.812-3.118-6.93-6.93-6.93" id="Fill-18" fill="#E46E7D" mask="url(#mask-4)"/><path d="M118.028 170.65H44.464c3.81 0 6.929 3.118 6.929 6.93 0 3.811-3.118 6.93-6.93 6.93h73.565c3.812 0 6.93-3.119 6.93-6.93 0-3.812-3.118-6.93-6.93-6.93" id="Fill-19" fill="#E46E7D" mask="url(#mask-4)"/><path d="M51.393 177.58c0-3.812-3.118-6.93-6.93-6.93h-20.79c-3.812 0-6.93 3.118-6.93 6.93s3.118 6.93 6.93 6.93h20.79c3.812 0 6.93-3.118 6.93-6.93" id="Fill-20" fill="#E46E7D" mask="url(#mask-4)"/><path d="M129.223 184.51H55.658c3.811 0 6.93 3.119 6.93 6.93 0 3.812-3.119 6.93-6.93 6.93h73.565c3.812 0 6.93-3.118 6.93-6.93 0-3.811-3.118-6.93-6.93-6.93" id="Fill-21" fill="#E46E7D" mask="url(#mask-4)"/><path d="M135.62 197.706H62.056c3.81 0 6.929 3.119 6.929 6.931 0 3.811-3.118 6.929-6.93 6.929h73.565c3.812 0 6.93-3.118 6.93-6.929 0-3.812-3.118-6.931-6.93-6.931" id="Fill-22" fill="#E46E7D" mask="url(#mask-4)"/><path d="M68.985 204.637c0-3.812-3.118-6.931-6.93-6.931H41.264c-3.811 0-6.93 3.119-6.93 6.93 0 3.813 3.119 6.93 6.93 6.93h20.79c3.813 0 6.93-3.117 6.93-6.93" id="Fill-23" fill="#E46E7D" mask="url(#mask-4)"/><path d="M113.23 211.566H39.666c3.811 0 6.929 3.118 6.929 6.93 0 3.811-3.118 6.93-6.929 6.93h73.564c3.812 0 6.931-3.119 6.931-6.93 0-3.812-3.119-6.93-6.931-6.93" id="Fill-24" fill="#E46E7D" mask="url(#mask-4)"/><path d="M91.641 224.763H18.076c3.811 0 6.93 3.118 6.93 6.93 0 3.81-3.119 6.93-6.93 6.93h73.565c3.812 0 6.93-3.12 6.93-6.93 0-3.812-3.118-6.93-6.93-6.93" id="Fill-25" fill="#E46E7D" mask="url(#mask-4)"/><path d="M25.005 231.692c0-3.812-3.118-6.93-6.93-6.93h-20.79c-3.81 0-6.93 3.118-6.93 6.93s3.12 6.931 6.93 6.931h20.79c3.812 0 6.93-3.119 6.93-6.93" id="Fill-26" fill="#E46E7D" mask="url(#mask-4)"/><path d="M135.62 116.538H62.056c3.81 0 6.929 3.118 6.929 6.93 0 3.811-3.118 6.929-6.93 6.929h73.565c3.812 0 6.93-3.118 6.93-6.929 0-3.812-3.118-6.93-6.93-6.93" id="Fill-27" fill="#E46E7D" mask="url(#mask-4)"/><path d="M68.985 123.468c0-3.812-3.118-6.93-6.93-6.93H41.264c-3.811 0-6.93 3.118-6.93 6.93s3.119 6.93 6.93 6.93h20.79c3.813 0 6.93-3.118 6.93-6.93" id="Fill-28" fill="#E46E7D" mask="url(#mask-4)"/><path d="M160.808 47.237h73.565c-3.81 0-6.93 3.12-6.93 6.931s3.12 6.93 6.93 6.93h-73.565c-3.812 0-6.93-3.119-6.93-6.93 0-3.812 3.118-6.93 6.93-6.93" id="Fill-29" fill="#E46E7D" mask="url(#mask-4)"/><path d="M168.005 74.958h73.565c-3.811 0-6.93 3.118-6.93 6.93 0 3.81 3.119 6.929 6.93 6.929h-73.565c-3.813 0-6.93-3.118-6.93-6.93 0-3.811 3.118-6.93 6.93-6.93" id="Fill-30" fill="#E46E7D" mask="url(#mask-4)"/><path d="M154.144 102.678h73.565c-3.81 0-6.929 3.118-6.929 6.93 0 3.81 3.118 6.93 6.93 6.93h-73.566c-3.812 0-6.93-3.12-6.93-6.93 0-3.812 3.118-6.93 6.93-6.93" id="Fill-31" fill="#E46E7D" mask="url(#mask-4)"/><path d="M164.54 130.397h73.565c-3.811 0-6.93 3.12-6.93 6.931s3.119 6.93 6.93 6.93H164.54c-3.812 0-6.93-3.119-6.93-6.93 0-3.812 3.118-6.93 6.93-6.93" id="Fill-32" fill="#E46E7D" mask="url(#mask-4)"/><path d="M171.47 33.378h73.564c-3.81 0-6.929 3.118-6.929 6.93 0 3.81 3.118 6.929 6.93 6.929h-73.566c-3.812 0-6.93-3.118-6.93-6.93 0-3.811 3.118-6.93 6.93-6.93" id="Fill-33" fill="#E46E7D" mask="url(#mask-4)"/><path d="M238.105 40.307c0-3.812 3.118-6.93 6.93-6.93h20.79c3.811 0 6.93 3.118 6.93 6.93 0 3.813-3.119 6.93-6.93 6.93h-20.79c-3.812 0-6.93-3.117-6.93-6.93" id="Fill-34" fill="#E46E7D" mask="url(#mask-4)"/><path d="M157.61 61.098h73.564c-3.811 0-6.93 3.118-6.93 6.93 0 3.81 3.119 6.93 6.93 6.93H157.61c-3.812 0-6.931-3.12-6.931-6.93 0-3.812 3.119-6.93 6.93-6.93" id="Fill-35" fill="#E46E7D" mask="url(#mask-4)"/><path d="M224.245 68.027c0-3.812 3.118-6.93 6.93-6.93h20.79c3.81 0 6.93 3.118 6.93 6.93s-3.12 6.931-6.93 6.931h-20.79c-3.812 0-6.93-3.119-6.93-6.93" id="Fill-36" fill="#E46E7D" mask="url(#mask-4)"/><path d="M168.005 88.817h73.565c-3.811 0-6.93 3.12-6.93 6.931s3.119 6.93 6.93 6.93h-73.565c-3.813 0-6.93-3.119-6.93-6.93 0-3.812 3.118-6.93 6.93-6.93" id="Fill-37" fill="#E46E7D" mask="url(#mask-4)"/><path d="M234.64 95.748c0-3.812 3.118-6.931 6.93-6.931h20.79c3.811 0 6.93 3.119 6.93 6.931s-3.119 6.93-6.93 6.93h-20.79c-3.812 0-6.93-3.118-6.93-6.93" id="Fill-38" fill="#E46E7D" mask="url(#mask-4)"/><path d="M158.142 143.594h73.565c-3.81 0-6.929 3.119-6.929 6.93 0 3.812 3.118 6.93 6.93 6.93h-73.566c-3.812 0-6.93-3.118-6.93-6.93 0-3.811 3.118-6.93 6.93-6.93" id="Fill-39" fill="#E46E7D" mask="url(#mask-4)"/><path d="M224.778 150.524c0-3.812 3.118-6.93 6.93-6.93h20.79c3.81 0 6.93 3.118 6.93 6.93s-3.12 6.93-6.93 6.93h-20.79c-3.812 0-6.93-3.118-6.93-6.93" id="Fill-40" fill="#E46E7D" mask="url(#mask-4)"/><path d="M170.937 157.454h73.564c-3.81 0-6.929 3.118-6.929 6.93 0 3.811 3.118 6.93 6.93 6.93h-73.565c-3.812 0-6.93-3.119-6.93-6.93 0-3.812 3.118-6.93 6.93-6.93" id="Fill-41" fill="#E46E7D" mask="url(#mask-4)"/><path d="M164.54 170.65h73.565c-3.811 0-6.93 3.118-6.93 6.93 0 3.811 3.119 6.93 6.93 6.93H164.54c-3.812 0-6.93-3.119-6.93-6.93 0-3.812 3.118-6.93 6.93-6.93" id="Fill-42" fill="#E46E7D" mask="url(#mask-4)"/><path d="M231.174 177.58c0-3.812 3.12-6.93 6.931-6.93h20.79c3.811 0 6.93 3.118 6.93 6.93s-3.119 6.93-6.93 6.93h-20.79c-3.812 0-6.93-3.118-6.93-6.93" id="Fill-43" fill="#E46E7D" mask="url(#mask-4)"/><path d="M153.345 184.51h73.565c-3.81 0-6.93 3.119-6.93 6.93 0 3.812 3.12 6.93 6.93 6.93h-73.565c-3.812 0-6.93-3.118-6.93-6.93 0-3.811 3.118-6.93 6.93-6.93" id="Fill-44" fill="#E46E7D" mask="url(#mask-4)"/><path d="M146.948 197.706h73.565c-3.811 0-6.93 3.119-6.93 6.931 0 3.811 3.119 6.929 6.93 6.929h-73.565c-3.812 0-6.93-3.118-6.93-6.929 0-3.812 3.118-6.931 6.93-6.931" id="Fill-45" fill="#E46E7D" mask="url(#mask-4)"/><path d="M213.583 204.637c0-3.812 3.119-6.931 6.93-6.931h20.79c3.812 0 6.93 3.119 6.93 6.93 0 3.813-3.118 6.93-6.93 6.93h-20.79c-3.811 0-6.93-3.117-6.93-6.93" id="Fill-46" fill="#E46E7D" mask="url(#mask-4)"/><path d="M169.338 211.566h73.565c-3.811 0-6.93 3.118-6.93 6.93 0 3.811 3.118 6.93 6.93 6.93h-73.565c-3.813 0-6.93-3.119-6.93-6.93 0-3.812 3.118-6.93 6.93-6.93" id="Fill-47" fill="#E46E7D" mask="url(#mask-4)"/><path d="M190.927 224.763h73.564c-3.81 0-6.929 3.118-6.929 6.93 0 3.81 3.12 6.93 6.93 6.93h-73.565c-3.812 0-6.93-3.12-6.93-6.93 0-3.812 3.118-6.93 6.93-6.93" id="Fill-48" fill="#E46E7D" mask="url(#mask-4)"/><path d="M257.562 231.692c0-3.812 3.12-6.93 6.93-6.93h20.791c3.811 0 6.93 3.118 6.93 6.93s-3.119 6.931-6.93 6.931h-20.79c-3.812 0-6.93-3.119-6.93-6.93" id="Fill-49" fill="#E46E7D" mask="url(#mask-4)"/><path d="M146.948 116.538h73.565c-3.811 0-6.93 3.118-6.93 6.93 0 3.811 3.119 6.929 6.93 6.929h-73.565c-3.812 0-6.93-3.118-6.93-6.929 0-3.812 3.118-6.93 6.93-6.93" id="Fill-50" fill="#E46E7D" mask="url(#mask-4)"/><path d="M213.583 123.468c0-3.812 3.119-6.93 6.93-6.93h20.79c3.812 0 6.93 3.118 6.93 6.93s-3.118 6.93-6.93 6.93h-20.79c-3.811 0-6.93-3.118-6.93-6.93" id="Fill-51" fill="#E46E7D" mask="url(#mask-4)"/></g><g id="Group-102"><mask id="mask-6" fill="#fff"><use xlink:href="#path-5"/></mask><path id="Fill-53" fill="#5BC5CB" mask="url(#mask-6)" d="M94.323 205.337h82.839V61.798H94.323z"/><path d="M129.513 71.491h-44.35c2.298 0 4.178 2.181 4.178 4.847 0 2.666-1.88 4.846-4.178 4.846h44.35c2.298 0 4.178-2.18 4.178-4.846s-1.88-4.847-4.178-4.847" id="Fill-55" fill="#5BC5CB" mask="url(#mask-6)"/><path d="M125.174 90.878h-44.35c2.298 0 4.178 2.18 4.178 4.846s-1.88 4.846-4.178 4.846h44.35c2.298 0 4.18-2.18 4.18-4.846 0-2.665-1.882-4.846-4.18-4.846" id="Fill-56" fill="#5BC5CB" mask="url(#mask-6)"/><path d="M133.53 110.264H89.18c2.298 0 4.178 2.18 4.178 4.847 0 2.665-1.88 4.846-4.178 4.846h44.35c2.299 0 4.179-2.181 4.179-4.846 0-2.666-1.88-4.847-4.178-4.847" id="Fill-57" fill="#5BC5CB" mask="url(#mask-6)"/><path d="M127.264 129.65h-44.35c2.297 0 4.177 2.181 4.177 4.846 0 2.666-1.88 4.846-4.178 4.846h44.351c2.298 0 4.178-2.18 4.178-4.846 0-2.665-1.88-4.847-4.178-4.847" id="Fill-58" fill="#5BC5CB" mask="url(#mask-6)"/><path d="M123.085 61.798h-44.35c2.299 0 4.178 2.182 4.178 4.847 0 2.666-1.88 4.846-4.177 4.846h44.35c2.297 0 4.178-2.18 4.178-4.846 0-2.665-1.88-4.847-4.178-4.847" id="Fill-59" fill="#5BC5CB" mask="url(#mask-6)"/><path d="M82.914 66.644c0-2.665-1.88-4.847-4.178-4.847H66.202c-2.298 0-4.178 2.182-4.178 4.847 0 2.666 1.88 4.847 4.178 4.847h12.534c2.298 0 4.178-2.18 4.178-4.847" id="Fill-60" fill="#5BC5CB" mask="url(#mask-6)"/><path d="M131.442 81.184H87.091c2.298 0 4.178 2.181 4.178 4.847 0 2.665-1.88 4.846-4.178 4.846h44.351c2.298 0 4.178-2.18 4.178-4.846s-1.88-4.847-4.178-4.847" id="Fill-61" fill="#5BC5CB" mask="url(#mask-6)"/><path d="M91.27 86.031c0-2.666-1.88-4.847-4.179-4.847H74.558c-2.298 0-4.179 2.181-4.179 4.847 0 2.665 1.881 4.847 4.18 4.847H87.09c2.298 0 4.178-2.182 4.178-4.847" id="Fill-62" fill="#5BC5CB" mask="url(#mask-6)"/><path d="M125.174 100.57h-44.35c2.298 0 4.178 2.182 4.178 4.847 0 2.666-1.88 4.846-4.178 4.846h44.35c2.298 0 4.18-2.18 4.18-4.846 0-2.665-1.882-4.847-4.18-4.847" id="Fill-63" fill="#5BC5CB" mask="url(#mask-6)"/><path d="M85.002 105.417c0-2.665-1.88-4.847-4.177-4.847H68.29c-2.297 0-4.178 2.182-4.178 4.847 0 2.666 1.88 4.847 4.178 4.847h12.534c2.299 0 4.178-2.181 4.178-4.847" id="Fill-64" fill="#5BC5CB" mask="url(#mask-6)"/><path d="M131.12 138.879H86.77c2.298 0 4.178 2.18 4.178 4.846s-1.88 4.846-4.178 4.846h44.35c2.299 0 4.179-2.18 4.179-4.846 0-2.665-1.88-4.846-4.178-4.846" id="Fill-65" fill="#5BC5CB" mask="url(#mask-6)"/><path d="M90.948 143.725c0-2.665-1.88-4.846-4.178-4.846H74.237c-2.298 0-4.18 2.18-4.18 4.846s1.882 4.846 4.18 4.846H86.77c2.298 0 4.178-2.18 4.178-4.846" id="Fill-66" fill="#5BC5CB" mask="url(#mask-6)"/><path d="M123.407 148.571h-44.35c2.298 0 4.178 2.182 4.178 4.847 0 2.666-1.88 4.846-4.178 4.846h44.35c2.298 0 4.178-2.18 4.178-4.846 0-2.665-1.88-4.847-4.178-4.847" id="Fill-67" fill="#5BC5CB" mask="url(#mask-6)"/><path d="M127.264 157.8h-44.35c2.297 0 4.177 2.182 4.177 4.847 0 2.666-1.88 4.846-4.178 4.846h44.351c2.298 0 4.178-2.18 4.178-4.846 0-2.665-1.88-4.846-4.178-4.846" id="Fill-68" fill="#5BC5CB" mask="url(#mask-6)"/><path d="M87.091 162.646c0-2.665-1.88-4.846-4.178-4.846H70.38c-2.298 0-4.178 2.181-4.178 4.846 0 2.666 1.88 4.847 4.178 4.847h12.534c2.298 0 4.178-2.18 4.178-4.847" id="Fill-69" fill="#5BC5CB" mask="url(#mask-6)"/><path d="M134.012 167.493h-44.35c2.298 0 4.178 2.182 4.178 4.847 0 2.666-1.88 4.846-4.178 4.846h44.35c2.298 0 4.18-2.18 4.18-4.846 0-2.665-1.882-4.847-4.18-4.847" id="Fill-70" fill="#5BC5CB" mask="url(#mask-6)"/><path d="M137.87 176.723H93.519c2.298 0 4.178 2.18 4.178 4.846s-1.88 4.846-4.178 4.846h44.35c2.299 0 4.179-2.18 4.179-4.846 0-2.665-1.88-4.846-4.178-4.846" id="Fill-71" fill="#5BC5CB" mask="url(#mask-6)"/><path d="M97.697 181.568c0-2.665-1.88-4.846-4.178-4.846H80.985c-2.298 0-4.178 2.181-4.178 4.846 0 2.666 1.88 4.847 4.178 4.847h12.534c2.298 0 4.178-2.18 4.178-4.847" id="Fill-72" fill="#5BC5CB" mask="url(#mask-6)"/><path d="M124.372 186.415H80.02c2.298 0 4.178 2.182 4.178 4.847 0 2.666-1.88 4.846-4.178 4.846h44.35c2.299 0 4.179-2.18 4.179-4.846 0-2.665-1.88-4.847-4.178-4.847" id="Fill-73" fill="#5BC5CB" mask="url(#mask-6)"/><path d="M111.356 195.644H67.005c2.298 0 4.178 2.181 4.178 4.846 0 2.666-1.88 4.846-4.178 4.846h44.351c2.298 0 4.178-2.18 4.178-4.846 0-2.665-1.88-4.846-4.178-4.846" id="Fill-74" fill="#5BC5CB" mask="url(#mask-6)"/><path d="M71.183 200.49c0-2.665-1.88-4.846-4.178-4.846H54.471c-2.298 0-4.178 2.181-4.178 4.846 0 2.666 1.88 4.847 4.178 4.847h12.534c2.298 0 4.178-2.18 4.178-4.847" id="Fill-75" fill="#5BC5CB" mask="url(#mask-6)"/><path d="M137.87 119.957H93.519c2.298 0 4.178 2.18 4.178 4.846s-1.88 4.846-4.178 4.846h44.35c2.299 0 4.179-2.18 4.179-4.846 0-2.665-1.88-4.846-4.178-4.846" id="Fill-76" fill="#5BC5CB" mask="url(#mask-6)"/><path d="M97.697 124.803c0-2.665-1.88-4.846-4.178-4.846H80.985c-2.298 0-4.178 2.18-4.178 4.846s1.88 4.847 4.178 4.847h12.534c2.298 0 4.178-2.181 4.178-4.847" id="Fill-77" fill="#5BC5CB" mask="url(#mask-6)"/><path d="M153.054 71.491h44.351c-2.298 0-4.178 2.181-4.178 4.847 0 2.666 1.88 4.846 4.178 4.846h-44.35c-2.299 0-4.179-2.18-4.179-4.846s1.88-4.847 4.178-4.847" id="Fill-78" fill="#5BC5CB" mask="url(#mask-6)"/><path d="M157.393 90.878h44.351c-2.298 0-4.179 2.18-4.179 4.846s1.881 4.846 4.18 4.846h-44.352c-2.298 0-4.178-2.18-4.178-4.846 0-2.665 1.88-4.846 4.178-4.846" id="Fill-79" fill="#5BC5CB" mask="url(#mask-6)"/><path d="M149.038 110.264h44.35c-2.298 0-4.178 2.18-4.178 4.847 0 2.665 1.88 4.846 4.178 4.846h-44.35c-2.298 0-4.18-2.181-4.18-4.846 0-2.666 1.882-4.847 4.18-4.847" id="Fill-80" fill="#5BC5CB" mask="url(#mask-6)"/><path d="M155.304 129.65h44.35c-2.298 0-4.178 2.181-4.178 4.846 0 2.666 1.88 4.846 4.178 4.846h-44.35c-2.298 0-4.178-2.18-4.178-4.846 0-2.665 1.88-4.847 4.178-4.847" id="Fill-81" fill="#5BC5CB" mask="url(#mask-6)"/><path d="M159.482 61.798h44.351c-2.298 0-4.179 2.182-4.179 4.847 0 2.666 1.881 4.846 4.179 4.846h-44.351c-2.298 0-4.178-2.18-4.178-4.846 0-2.665 1.88-4.847 4.178-4.847" id="Fill-82" fill="#5BC5CB" mask="url(#mask-6)"/><path d="M199.654 66.644c0-2.665 1.88-4.847 4.179-4.847h12.533c2.298 0 4.178 2.182 4.178 4.847 0 2.666-1.88 4.847-4.178 4.847h-12.533c-2.298 0-4.18-2.18-4.18-4.847" id="Fill-83" fill="#5BC5CB" mask="url(#mask-6)"/><path d="M151.126 81.184h44.35c-2.297 0-4.178 2.181-4.178 4.847 0 2.665 1.88 4.846 4.178 4.846h-44.35c-2.298 0-4.179-2.18-4.179-4.846s1.881-4.847 4.18-4.847" id="Fill-84" fill="#5BC5CB" mask="url(#mask-6)"/><path d="M191.298 86.031c0-2.666 1.88-4.847 4.178-4.847h12.534c2.298 0 4.178 2.181 4.178 4.847 0 2.665-1.88 4.847-4.178 4.847h-12.534c-2.298 0-4.178-2.182-4.178-4.847" id="Fill-85" fill="#5BC5CB" mask="url(#mask-6)"/><path d="M157.393 100.57h44.351c-2.298 0-4.179 2.182-4.179 4.847 0 2.666 1.881 4.846 4.18 4.846h-44.352c-2.298 0-4.178-2.18-4.178-4.846 0-2.665 1.88-4.847 4.178-4.847" id="Fill-86" fill="#5BC5CB" mask="url(#mask-6)"/><path d="M197.565 105.417c0-2.665 1.881-4.847 4.179-4.847h12.533c2.298 0 4.178 2.182 4.178 4.847 0 2.666-1.88 4.847-4.178 4.847h-12.533c-2.298 0-4.179-2.181-4.179-4.847" id="Fill-87" fill="#5BC5CB" mask="url(#mask-6)"/><path d="M151.448 138.879h44.35c-2.298 0-4.178 2.18-4.178 4.846s1.88 4.846 4.178 4.846h-44.35c-2.298 0-4.18-2.18-4.18-4.846 0-2.665 1.882-4.846 4.18-4.846" id="Fill-88" fill="#5BC5CB" mask="url(#mask-6)"/><path d="M191.62 143.725c0-2.665 1.88-4.846 4.178-4.846h12.534c2.298 0 4.178 2.18 4.178 4.846s-1.88 4.846-4.178 4.846h-12.534c-2.298 0-4.178-2.18-4.178-4.846" id="Fill-89" fill="#5BC5CB" mask="url(#mask-6)"/><path d="M159.16 148.571h44.352c-2.298 0-4.178 2.182-4.178 4.847 0 2.666 1.88 4.846 4.178 4.846H159.16c-2.298 0-4.178-2.18-4.178-4.846 0-2.665 1.88-4.847 4.178-4.847" id="Fill-90" fill="#5BC5CB" mask="url(#mask-6)"/><path d="M155.304 157.8h44.35c-2.298 0-4.178 2.182-4.178 4.847 0 2.666 1.88 4.846 4.178 4.846h-44.35c-2.298 0-4.178-2.18-4.178-4.846 0-2.665 1.88-4.846 4.178-4.846" id="Fill-91" fill="#5BC5CB" mask="url(#mask-6)"/><path d="M195.476 162.646c0-2.665 1.88-4.846 4.178-4.846h12.534c2.298 0 4.178 2.181 4.178 4.846 0 2.666-1.88 4.847-4.178 4.847h-12.534c-2.298 0-4.178-2.18-4.178-4.847" id="Fill-92" fill="#5BC5CB" mask="url(#mask-6)"/><path d="M148.555 167.493h44.351c-2.298 0-4.179 2.182-4.179 4.847 0 2.666 1.881 4.846 4.18 4.846h-44.352c-2.298 0-4.178-2.18-4.178-4.846 0-2.665 1.88-4.847 4.178-4.847" id="Fill-93" fill="#5BC5CB" mask="url(#mask-6)"/><path d="M144.699 176.723h44.35c-2.298 0-4.178 2.18-4.178 4.846s1.88 4.846 4.178 4.846h-44.35c-2.298 0-4.178-2.18-4.178-4.846 0-2.665 1.88-4.846 4.178-4.846" id="Fill-94" fill="#5BC5CB" mask="url(#mask-6)"/><path d="M184.87 181.568c0-2.665 1.88-4.846 4.179-4.846h12.534c2.298 0 4.178 2.181 4.178 4.846 0 2.666-1.88 4.847-4.178 4.847h-12.534c-2.298 0-4.178-2.18-4.178-4.847" id="Fill-95" fill="#5BC5CB" mask="url(#mask-6)"/><path d="M158.197 186.415h44.35c-2.298 0-4.178 2.182-4.178 4.847 0 2.666 1.88 4.846 4.178 4.846h-44.35c-2.298 0-4.178-2.18-4.178-4.846 0-2.665 1.88-4.847 4.178-4.847" id="Fill-96" fill="#5BC5CB" mask="url(#mask-6)"/><path d="M171.213 195.644h44.35c-2.298 0-4.178 2.181-4.178 4.846 0 2.666 1.88 4.846 4.178 4.846h-44.35c-2.298 0-4.178-2.18-4.178-4.846 0-2.665 1.88-4.846 4.178-4.846" id="Fill-97" fill="#5BC5CB" mask="url(#mask-6)"/><path d="M211.384 200.49c0-2.665 1.88-4.846 4.178-4.846h12.534c2.298 0 4.178 2.181 4.178 4.846 0 2.666-1.88 4.847-4.178 4.847h-12.534c-2.298 0-4.178-2.18-4.178-4.847" id="Fill-98" fill="#5BC5CB" mask="url(#mask-6)"/><path d="M144.699 119.957h44.35c-2.298 0-4.178 2.18-4.178 4.846s1.88 4.846 4.178 4.846h-44.35c-2.298 0-4.178-2.18-4.178-4.846 0-2.665 1.88-4.846 4.178-4.846" id="Fill-99" fill="#5BC5CB" mask="url(#mask-6)"/><path d="M184.87 124.803c0-2.665 1.88-4.846 4.179-4.846h12.534c2.298 0 4.178 2.18 4.178 4.846s-1.88 4.847-4.178 4.847h-12.534c-2.298 0-4.178-2.181-4.178-4.847" id="Fill-100" fill="#5BC5CB" mask="url(#mask-6)"/><path id="Fill-101" fill="#5BC5CB" mask="url(#mask-6)" d="M155.748 145.122l7.4-7.384-6.438 9.1 6.438 9.099-7.326-7.469-8.362 7.469 6.55-9.046-6.55-9.153z"/></g><g id="Group-105"><mask id="mask-8" fill="#fff"><use xlink:href="#path-7"/></mask><path id="Fill-103" fill="#FEFEFE" mask="url(#mask-8)" d="M174.502 160.156l14.674-12.62-12.767 15.554 12.768 15.553-14.528-12.767-16.58 12.767 12.988-15.464-12.988-15.643z"/></g><g id="Group-108"><mask id="mask-10" fill="#fff"><use xlink:href="#path-9"/></mask><path id="Fill-106" fill="#FEFEFE" mask="url(#mask-10)" d="M110.857 61.224l14.674-12.62-12.768 15.553 12.768 15.553-14.528-12.766-16.58 12.766 12.988-15.462-12.988-15.645z"/></g><g id="Group-111"><mask id="mask-12" fill="#fff"><use xlink:href="#path-11"/></mask><path id="Fill-109" fill="#FEFEFE" mask="url(#mask-12)" d="M75.522 139.842l10.772-9.266-9.373 11.418 9.373 11.419-10.665-9.373-12.17 9.373 9.534-11.351-9.534-11.486z"/></g><g id="Group-114"><mask id="mask-14" fill="#fff"><use xlink:href="#path-13"/></mask><path id="Fill-112" fill="#FEFEFE" mask="url(#mask-14)" d="M89.594 234.507l10.771-9.266-9.372 11.418 9.372 11.418-10.664-9.372-12.17 9.372 9.533-11.351-9.534-11.485z"/></g><g id="Group-117"><mask id="mask-16" fill="#fff"><use xlink:href="#path-15"/></mask><path id="Fill-115" fill="#FEFEFE" mask="url(#mask-16)" d="M108.585 187.161l5.586-4.805-4.86 5.921 4.86 5.92-5.53-4.859-6.312 4.859 4.944-5.886-4.944-5.955z"/></g><g id="Group-120"><mask id="mask-18" fill="#fff"><use xlink:href="#path-17"/></mask><path id="Fill-118" fill="#FEFEFE" mask="url(#mask-18)" d="M232.185 41.469l5.585-4.804-4.859 5.92 4.86 5.92-5.53-4.86-6.31 4.86 4.942-5.885-4.943-5.955z"/></g><g id="Group-123"><mask id="mask-20" fill="#fff"><use xlink:href="#path-19"/></mask><path id="Fill-121" fill="#FEFEFE" mask="url(#mask-20)" d="M200.264 229.623l5.585-4.804-4.859 5.92 4.86 5.92-5.53-4.859-6.312 4.859 4.944-5.886-4.944-5.954z"/></g><g id="Group-126"><mask id="mask-22" fill="#fff"><use xlink:href="#path-21"/></mask><path id="Fill-124" fill="#FEFEFE" mask="url(#mask-22)" d="M194.343 80.525l5.586-4.804-4.86 5.92 4.86 5.92-5.529-4.859-6.312 4.86 4.943-5.886-4.943-5.955z"/></g><g id="Group-129"><mask id="mask-24" fill="#fff"><use xlink:href="#path-23"/></mask><path id="Fill-127" fill="#FEFEFE" mask="url(#mask-24)" d="M148.257 173.018l-7.788 7.803 6.578-9.386-7.924-8.281 8.803 6.623 8.864-7.97-6.707 9.345 8.054 8.323z"/></g><g id="Group-132"><mask id="mask-26" fill="#fff"><use xlink:href="#path-25"/></mask><path id="Fill-130" fill="#FEFEFE" mask="url(#mask-26)" d="M179.805 144.947l-5.717 5.73 4.83-6.892-5.818-6.079 6.462 4.861 6.508-5.849-4.924 6.86 5.912 6.11z"/></g><g id="Group-135"><mask id="mask-28" fill="#fff"><use xlink:href="#path-27"/></mask><path id="Fill-133" fill="#FEFEFE" mask="url(#mask-28)" d="M167.717 91.793L162 97.52l4.83-6.891-5.818-6.08 6.463 4.863 6.507-5.85-4.924 6.86 5.912 6.109z"/></g><g id="Group-138"><mask id="mask-30" fill="#fff"><use xlink:href="#path-29"/></mask><path id="Fill-136" fill="#FEFEFE" mask="url(#mask-30)" d="M141.55 115.886l-2.966 2.97 2.504-3.573-3.016-3.152 3.351 2.52 3.374-3.033-2.553 3.557 3.065 3.168z"/></g><g id="Group-141"><mask id="mask-32" fill="#fff"><use xlink:href="#path-31"/></mask><path id="Fill-139" fill="#FEFEFE" mask="url(#mask-32)" d="M95.088 207.597l-2.965 2.97 2.503-3.573-3.016-3.152 3.352 2.522 3.373-3.034-2.552 3.557 3.064 3.168z"/></g><g id="Group-144"><mask id="mask-34" fill="#fff"><use xlink:href="#path-33"/></mask><path id="Fill-142" fill="#FEFEFE" mask="url(#mask-34)" d="M105.075 99.355l-2.965 2.97 2.504-3.573-3.016-3.152 3.35 2.521 3.375-3.034-2.554 3.557 3.066 3.168z"/></g><g id="Group-147"><mask id="mask-36" fill="#fff"><use xlink:href="#path-35"/></mask><path id="Fill-145" fill="#FEFEFE" mask="url(#mask-36)" d="M128.292 147.528l-2.965 2.97 2.505-3.574-3.016-3.15 3.35 2.52 3.375-3.034-2.554 3.557 3.066 3.168z"/></g><g id="Group-150"><mask id="mask-38" fill="#fff"><use xlink:href="#path-37"/></mask><path d="M126.18 109.886l-22.259 22.247a8.991 8.991 0 0 0 12.711 12.718l16.31-16.301a6.07 6.07 0 0 1 4.297-1.778h.816a6.075 6.075 0 0 1 6.074 6.077v3.653a6.07 6.07 0 0 0 1.778 4.297l44.277 44.3a8.989 8.989 0 0 1-.004 12.714 8.99 8.99 0 0 1-12.715-.003l3.778 3.78a8.99 8.99 0 0 1-12.718 12.71l-1.96-1.962a8.991 8.991 0 0 1-12.719 12.712l-3.632-3.634a8.989 8.989 0 0 1-.004 12.714 8.989 8.989 0 0 1-12.714-.003l-56.27-56.3a6.077 6.077 0 0 1-1.779-4.295l.001-4.047a6.073 6.073 0 0 0-1.779-4.297l-11.607-11.614 43.962-43.94 16.156.252z" id="Fill-148" fill="#F3D8BF" mask="url(#mask-38)"/></g><g id="Group-153"><mask id="mask-40" fill="#fff"><use xlink:href="#path-39"/></mask><path d="M84.523 181.127l-2.036 2.035a8.989 8.989 0 0 0-.003 12.714 8.989 8.989 0 0 0 12.714.004l2.036-2.035-2.036 2.035a8.992 8.992 0 0 0 12.712 12.718l2.036-2.035-2.036 2.035a8.99 8.99 0 1 0 12.711 12.717l2.044-2.027-2.044 2.027a8.991 8.991 0 0 0 12.712 12.718l2.036-2.035-50.846-50.871z" id="Fill-151" fill="#E5B7AF" mask="url(#mask-40)"/></g><g id="Group-156"><mask id="mask-42" fill="#fff"><use xlink:href="#path-41"/></mask><path d="M186.24 181.152l-40.333-40.354a6.067 6.067 0 0 1-1.778-4.296v-3.654a6.076 6.076 0 0 0-6.074-6.077h-.816a6.077 6.077 0 0 0-4.297 1.778l-16.31 16.301a8.989 8.989 0 0 1-12.713-.003c-3.511-3.51-3.51-9.204.003-12.715l22.258-22.247 34.167.19 43.94 43.962-11.613 11.607a6.076 6.076 0 0 0-1.781 4.296l-.001 4.047a6.08 6.08 0 0 1-1.781 4.296l-2.871 2.87z" id="Fill-154" fill="#E5B7AF" mask="url(#mask-42)"/></g><g id="Group-159"><mask id="mask-44" fill="#fff"><use xlink:href="#path-43"/></mask><path id="Fill-157" fill="#50276B" mask="url(#mask-44)" d="M209.431 159.166l-54.36-54.361 72.95-72.952 54.361 54.362z"/></g><g id="Group-162"><mask id="mask-46" fill="#fff"><use xlink:href="#path-45"/></mask><path id="Fill-160" fill="#020303" mask="url(#mask-46)" d="M209.431 159.166l-17.546-17.545 72.952-72.952 17.545 17.546z"/></g><g id="Group-165"><mask id="mask-48" fill="#fff"><use xlink:href="#path-47"/></mask><path id="Fill-163" fill="#5BC5CB" mask="url(#mask-48)" d="M210.194 146.575l-4.702-4.7 5.322-5.323 4.7 4.702z"/></g><g id="Group-168"><mask id="mask-50" fill="#fff"><use xlink:href="#path-49"/></mask><path id="Fill-166" fill="#5BC5CB" mask="url(#mask-50)" d="M220.78 135.992l-4.702-4.7 5.322-5.323 4.7 4.702z"/></g><g id="Group-171"><mask id="mask-52" fill="#fff"><use xlink:href="#path-51"/></mask><path id="Fill-169" fill="#EAD063" mask="url(#mask-52)" d="M60.462 159.166l54.36-54.361L43.36 33.343-11 87.703z"/></g><g id="Group-174"><mask id="mask-54" fill="#fff"><use xlink:href="#path-53"/></mask><path id="Fill-172" fill="#9A7A2D" mask="url(#mask-54)" d="M60.462 159.166l17.544-17.545-71.46-71.462-17.547 17.545z"/></g><g id="Group-177"><mask id="mask-56" fill="#fff"><use xlink:href="#path-55"/></mask><path id="Fill-175" fill="#5BC5CB" mask="url(#mask-56)" d="M59.699 146.575l4.7-4.7-5.32-5.323-4.702 4.702z"/></g><g id="Group-180"><mask id="mask-58" fill="#fff"><use xlink:href="#path-57"/></mask><path id="Fill-178" fill="#5BC5CB" mask="url(#mask-58)" d="M49.113 135.992l4.7-4.7-5.32-5.323-4.702 4.702z"/></g><g id="Group-183"><mask id="mask-60" fill="#fff"><use xlink:href="#path-59"/></mask><path id="Fill-181" fill="#B7927D" mask="url(#mask-60)" d="M177.601 197.928l-9.039-8.653-8.653-9.04 9.04 8.654z"/></g><g id="Group-186"><mask id="mask-62" fill="#fff"><use xlink:href="#path-61"/></mask><path id="Fill-184" fill="#B7927D" mask="url(#mask-62)" d="M150.532 221.787l-8.318-7.934-7.933-8.318 8.318 7.933z"/></g><g id="Group-189"><mask id="mask-64" fill="#fff"><use xlink:href="#path-63"/></mask><path id="Fill-187" fill="#B7927D" mask="url(#mask-64)" d="M166.59 212.374l-9.629-9.242-9.242-9.628 9.628 9.242z"/></g></g></g></g></g></svg>