<svg width="272px" height="275px" xmlns="http://www.w3.org/2000/svg" xmlns:xlink="http://www.w3.org/1999/xlink"><defs><path id="path-1" d="M0 .024h271.767v273.38H0z"/><path d="M0 136.714c0 75.492 60.837 136.69 135.884 136.69 75.046 0 135.883-61.198 135.883-136.69 0-75.491-60.837-136.69-135.883-136.69C60.837.025 0 61.224 0 136.715" id="path-3"/><path d="M0 136.714c0 75.492 60.837 136.69 135.884 136.69 75.046 0 135.883-61.198 135.883-136.69 0-75.491-60.837-136.69-135.883-136.69C60.837.025 0 61.224 0 136.715" id="path-5"/><path d="M0 136.714c0 75.492 60.837 136.69 135.884 136.69 75.046 0 135.883-61.198 135.883-136.69 0-75.491-60.837-136.69-135.883-136.69C60.837.025 0 61.224 0 136.715" id="path-7"/><path d="M0 136.714c0 75.492 60.837 136.69 135.884 136.69 75.046 0 135.883-61.198 135.883-136.69 0-75.491-60.837-136.69-135.883-136.69C60.837.025 0 61.224 0 136.715" id="path-9"/><path d="M0 136.714c0 75.492 60.837 136.69 135.884 136.69 75.046 0 135.883-61.198 135.883-136.69 0-75.491-60.837-136.69-135.883-136.69C60.837.025 0 61.224 0 136.715" id="path-11"/><path d="M0 136.714c0 75.492 60.837 136.69 135.884 136.69 75.046 0 135.883-61.198 135.883-136.69 0-75.491-60.837-136.69-135.883-136.69C60.837.025 0 61.224 0 136.715" id="path-13"/><path d="M0 136.714c0 75.492 60.837 136.69 135.884 136.69 75.046 0 135.883-61.198 135.883-136.69 0-75.491-60.837-136.69-135.883-136.69C60.837.025 0 61.224 0 136.715" id="path-15"/><path d="M0 136.714c0 75.492 60.837 136.69 135.884 136.69 75.046 0 135.883-61.198 135.883-136.69 0-75.491-60.837-136.69-135.883-136.69C60.837.025 0 61.224 0 136.715" id="path-17"/><path d="M0 136.714c0 75.492 60.837 136.69 135.884 136.69 75.046 0 135.883-61.198 135.883-136.69 0-75.491-60.837-136.69-135.883-136.69C60.837.025 0 61.224 0 136.715" id="path-19"/><path d="M0 136.714c0 75.492 60.837 136.69 135.884 136.69 75.046 0 135.883-61.198 135.883-136.69 0-75.491-60.837-136.69-135.883-136.69C60.837.025 0 61.224 0 136.715" id="path-21"/><path d="M0 136.714c0 75.492 60.837 136.69 135.884 136.69 75.046 0 135.883-61.198 135.883-136.69 0-75.491-60.837-136.69-135.883-136.69C60.837.025 0 61.224 0 136.715" id="path-23"/><path d="M0 136.714c0 75.492 60.837 136.69 135.884 136.69 75.046 0 135.883-61.198 135.883-136.69 0-75.491-60.837-136.69-135.883-136.69C60.837.025 0 61.224 0 136.715" id="path-25"/><path d="M0 136.714c0 75.492 60.837 136.69 135.884 136.69 75.046 0 135.883-61.198 135.883-136.69 0-75.491-60.837-136.69-135.883-136.69C60.837.025 0 61.224 0 136.715" id="path-27"/><path d="M0 136.714c0 75.492 60.837 136.69 135.884 136.69 75.046 0 135.883-61.198 135.883-136.69 0-75.491-60.837-136.69-135.883-136.69C60.837.025 0 61.224 0 136.715" id="path-29"/><path d="M0 136.714c0 75.492 60.837 136.69 135.884 136.69 75.046 0 135.883-61.198 135.883-136.69 0-75.491-60.837-136.69-135.883-136.69C60.837.025 0 61.224 0 136.715" id="path-31"/><path d="M0 136.714c0 75.492 60.837 136.69 135.884 136.69 75.046 0 135.883-61.198 135.883-136.69 0-75.491-60.837-136.69-135.883-136.69C60.837.025 0 61.224 0 136.715" id="path-33"/><path d="M0 136.714c0 75.492 60.837 136.69 135.884 136.69 75.046 0 135.883-61.198 135.883-136.69 0-75.491-60.837-136.69-135.883-136.69C60.837.025 0 61.224 0 136.715" id="path-35"/><path d="M0 136.714c0 75.492 60.837 136.69 135.884 136.69 75.046 0 135.883-61.198 135.883-136.69 0-75.491-60.837-136.69-135.883-136.69C60.837.025 0 61.224 0 136.715z" id="path-37"/><path d="M0 136.714c0 75.492 60.837 136.69 135.884 136.69 75.046 0 135.883-61.198 135.883-136.69 0-75.491-60.837-136.69-135.883-136.69C60.837.025 0 61.224 0 136.715" id="path-39"/><path d="M0 136.714c0 75.492 60.837 136.69 135.884 136.69 75.046 0 135.883-61.198 135.883-136.69 0-75.491-60.837-136.69-135.883-136.69C60.837.025 0 61.224 0 136.715" id="path-41"/><path d="M0 136.714c0 75.492 60.837 136.69 135.884 136.69 75.046 0 135.883-61.198 135.883-136.69 0-75.491-60.837-136.69-135.883-136.69C60.837.025 0 61.224 0 136.715" id="path-43"/><path d="M0 136.714c0 75.492 60.837 136.69 135.884 136.69 75.046 0 135.883-61.198 135.883-136.69 0-75.491-60.837-136.69-135.883-136.69C60.837.025 0 61.224 0 136.715" id="path-45"/><path d="M0 136.714c0 75.492 60.837 136.69 135.884 136.69 75.046 0 135.883-61.198 135.883-136.69 0-75.491-60.837-136.69-135.883-136.69C60.837.025 0 61.224 0 136.715" id="path-47"/><path d="M135.884 273.404c75.046 0 135.883-61.198 135.883-136.69 0-75.491-60.837-136.69-135.883-136.69C60.837.025 0 61.224 0 136.715c0 75.492 60.837 136.69 135.884 136.69z" id="path-49"/></defs><g id="Page-1" fill="none" fill-rule="evenodd"><g id="Desktop-HD" transform="translate(-980 -3420)"><g id="SECTION-2" transform="translate(139 2565)"><g id="icons/entrepreneurial-" transform="translate(768 855)"><g id="icons/entrepreneur" transform="translate(73)"><g id="Group-10"><g id="Group-3" transform="translate(0 1.387)"><mask id="mask-2" fill="#fff"><use xlink:href="#path-1"/></mask><path d="M271.767 136.714c0 75.492-60.837 136.69-135.883 136.69C60.837 273.404 0 212.206 0 136.714 0 61.223 60.837.024 135.884.024c75.046 0 135.883 61.199 135.883 136.69" id="Fill-1" fill="#EAD063" mask="url(#mask-2)"/></g><g id="Group-76" transform="translate(0 1.387)"><g id="Group-6"><mask id="mask-4" fill="#fff"><use xlink:href="#path-3"/></mask><path d="M188.837 279.75h-71.44c1.277-7 2.758-13.5 3.597-20.08 1.407-11.04-1.52-13.738-12.297-12.002-9.712 1.565-13.412-1.572-14.03-11.273-.152-2.398-2.811-4.947-2.373-7.007 1.019-4.775-5.137-7.663-2.238-13.02 2.41-4.454.648-6.078-4.353-5.352-6.368.925-8.112-1.092-5.553-6.96 1.88-4.31 4.526-8.275 6.492-12.55 2.18-4.743 3.963-9.591-1.223-13.885-.746-.618-1.044-2.636-.653-3.661 5.22-13.74 9.115-28.086 18.903-39.686 19.038-22.56 54.076-27.994 78.288-11.943 25.368 16.82 33.32 47.931 18.956 75.948-5.279 10.299-11.705 19.997-17.429 30.072-12.206 21.48-11.473 29.978 3.931 49.071.45.558.758 1.231 1.422 2.328" id="Fill-4" fill="#E46E7D" mask="url(#mask-4)"/></g><g id="Group-9"><mask id="mask-6" fill="#fff"><use xlink:href="#path-5"/></mask><path d="M32.775 45.648l75.422 151.253 176.468-81.74S275.43 22.586 187.78-3.96C93.783-32.427 32.775 45.648 32.775 45.648" id="Fill-7" fill="#5BC5CB" mask="url(#mask-6)"/></g><g id="Group-12"><mask id="mask-8" fill="#fff"><use xlink:href="#path-7"/></mask><path d="M86.788 180.398c-15.59 1.665-27.55-17.602-16.883-30.67-8.547-4.277-11.565-11.36-10.274-20.257-2.615-1.259-5.242-2.166-7.477-3.677-4.268-2.889-6.744-7.183-8.213-12.11-.163-.544-.647-1.278-1.111-1.403-5.495-1.48-9.145-4.91-11.802-10.04-3.137-6.058-2.756-11.696.25-17.418 2.488-4.738 8.337-6.103 13.398-3.786 2.05.938 3.865 2.417 5.482 3.454-1.618-4.948-8.28-9.732-14.9-7.274-1.235.458-2.31 1.337-3.532 1.844-.611.253-1.512.37-2.074.097-8.882-4.315-12.572-15.655-8.04-24.455 2.862-5.56 6.923-9.582 13.308-10.535 11.128-1.661 21.343 7.263 21.474 18.703l.018 1.583c8.064-.43 14.198 2.922 18.068 10.037 3.835 7.05 3.373 14.011-1.345 20.605 6 4.066 7.585 10.05 7.514 16.97 3.272-2.753 6.715-4.408 10.961-3.454 3.023.68 5.19 2.547 6.934 5.032 3.334 4.752 2.303 11.144-2.35 15.51.22 1.795.463 3.452.61 5.117.104 1.175-.376 1.854-1.56 2.394-7.45 3.402-9.713 11.184-5.33 18.41-.043-.477-.02-.817-.107-1.128-1.417-5.099.03-9.317 3.953-12.515 3.88-3.165 8.32-2.823 12.645-.925 8.768 3.847 13.157 13.587 10.375 22.818-.363 1.207-.194 1.868.76 2.724 8.652 7.767 7.889 21.707-1.5 28.372-8.521 6.051-19.013 4.512-25.633-3.812-1.985-2.495-2.933-5.458-3.424-8.576-.086-.542-.132-1.09-.195-1.635" id="Fill-10" fill="#EAD063" mask="url(#mask-8)"/></g><g id="Group-15"><mask id="mask-10" fill="#fff"><use xlink:href="#path-9"/></mask><path d="M94.631 103.488c-3.81 2.114-8.559.717-10.706-3.149-2.164-3.898-.77-8.853 3.08-10.942 3.762-2.04 8.646-.538 10.712 3.296 2.09 3.878.715 8.687-3.086 10.795" id="Fill-13" fill="#FEFEFE" mask="url(#mask-10)"/></g><g id="Group-18"><mask id="mask-12" fill="#fff"><use xlink:href="#path-11"/></mask><path d="M106.256 108.235c-1.378-2.575-.487-5.805 1.981-7.182 2.523-1.408 5.798-.39 7.207 2.241 1.367 2.552.463 5.805-1.998 7.19-2.514 1.416-5.774.396-7.19-2.249" id="Fill-16" fill="#FEFEFE" mask="url(#mask-12)"/></g><g id="Group-21"><mask id="mask-14" fill="#fff"><use xlink:href="#path-13"/></mask><path d="M122.373 134.02c-2.563 1.437-5.818.48-7.221-2.124-1.377-2.555-.471-5.737 2.035-7.15 2.586-1.458 5.801-.516 7.208 2.112 1.376 2.574.477 5.76-2.022 7.162" id="Fill-19" fill="#FEFEFE" mask="url(#mask-14)"/></g><g id="Group-24"><mask id="mask-16" fill="#fff"><use xlink:href="#path-15"/></mask><path d="M82.86 76.48c-1.466-2.626-.584-5.883 1.973-7.29 2.508-1.38 5.635-.44 7.071 2.127 1.494 2.669.635 5.834-1.969 7.264-2.534 1.391-5.64.468-7.075-2.101" id="Fill-22" fill="#FEFEFE" mask="url(#mask-16)"/></g><g id="Group-27"><mask id="mask-18" fill="#fff"><use xlink:href="#path-17"/></mask><path d="M111.674 79.86c1.73-.922 3.773-.27 4.708 1.503.924 1.756.295 3.847-1.433 4.76-1.697.898-3.862.218-4.749-1.493a3.555 3.555 0 0 1 1.474-4.77" id="Fill-25" fill="#FEFEFE" mask="url(#mask-18)"/></g><g id="Group-30"><mask id="mask-20" fill="#fff"><use xlink:href="#path-19"/></mask><path d="M133.734 116.549c-.971-1.765-.401-3.818 1.326-4.778 1.686-.936 3.854-.312 4.779 1.377.903 1.649.263 3.964-1.344 4.864-1.645.921-3.816.254-4.761-1.463" id="Fill-28" fill="#FEFEFE" mask="url(#mask-20)"/></g><g id="Group-33"><mask id="mask-22" fill="#fff"><use xlink:href="#path-21"/></mask><path d="M119.621 59.452c-.34.753-.5 1.857-1.074 2.155-.518.269-1.73-.113-2.207-.621-.777-.83-.382-1.943.568-2.348.636-.27 1.53.071 2.31.14l.403.674" id="Fill-31" fill="#FEFEFE" mask="url(#mask-22)"/></g><g id="Group-36"><mask id="mask-24" fill="#fff"><use xlink:href="#path-23"/></mask><path d="M255.35 145.658c.325 15.837-20.266 26.668-32.59 15.067-5.085 8.349-12.533 10.94-21.446 9.066-1.506 2.557-2.655 5.15-4.385 7.308-3.303 4.121-7.876 6.344-13.002 7.51-.566.13-1.353.571-1.52 1.032-1.984 5.448-5.781 8.912-11.218 11.264-6.42 2.776-12.106 2.03-17.646-1.37-4.588-2.815-5.46-8.804-2.668-13.761 1.13-2.009 2.79-3.746 3.983-5.311-5.16 1.316-10.595 7.731-8.682 14.568.356 1.275 1.154 2.415 1.56 3.682.204.633.244 1.55-.082 2.099-5.155 8.684-16.981 11.68-25.51 6.544-5.389-3.245-9.115-7.6-9.522-14.105-.71-11.335 9.236-21.069 20.851-20.466l1.607.083c.271-8.164 4.208-14.139 11.764-17.587 7.488-3.418 14.508-2.504 20.783 2.679 4.65-5.792 10.859-7.009 17.871-6.492-2.506-3.479-3.883-7.059-2.543-11.282.953-3.006 3.038-5.073 5.71-6.673 5.113-3.058 11.507-1.61 15.527 3.367 1.84-.106 3.543-.246 5.245-.288 1.201-.03 1.848.499 2.292 1.727 2.799 7.737 10.494 10.519 18.209 6.56-.489.012-.832-.032-1.155.036-5.296 1.102-9.448-.629-12.35-4.792-2.868-4.118-2.134-8.576.17-12.818 4.67-8.6 14.935-12.404 24.055-9.005 1.191.445 1.877.316 2.83-.592 8.635-8.231 22.708-6.566 28.648 3.333 5.391 8.987 2.912 19.475-6.111 25.62-2.705 1.842-5.794 2.61-9 2.906-.557.05-1.117.061-1.675.091" id="Fill-34" fill="#EAD063" mask="url(#mask-24)"/></g><g id="Group-39"><mask id="mask-26" fill="#fff"><use xlink:href="#path-25"/></mask><path d="M189.597 125.336c1.81 3.98-.022 8.682-4.13 10.6-4.145 1.935-9.048.21-10.83-3.809-1.742-3.927.21-8.758 4.28-10.596 4.117-1.86 8.874-.165 10.68 3.805" id="Fill-37" fill="#FEFEFE" mask="url(#mask-26)"/></g><g id="Group-42"><mask id="mask-28" fill="#fff"><use xlink:href="#path-27"/></mask><path d="M195.43 113.912c-2.732 1.225-5.93.118-7.112-2.46-1.207-2.637.113-5.875 2.905-7.128 2.708-1.216 5.928-.095 7.119 2.478 1.215 2.626-.105 5.851-2.912 7.11" id="Fill-40" fill="#FEFEFE" mask="url(#mask-28)"/></g><g id="Group-45"><mask id="mask-30" fill="#fff"><use xlink:href="#path-29"/></mask><path d="M222.996 99.304c1.234 2.678-.023 5.901-2.787 7.15-2.711 1.225-5.86.107-7.074-2.512-1.253-2.703-.016-5.887 2.774-7.137 2.73-1.224 5.885-.111 7.087 2.5" id="Fill-43" fill="#FEFEFE" mask="url(#mask-30)"/></g><g id="Group-48"><mask id="mask-32" fill="#fff"><use xlink:href="#path-31"/></mask><path d="M161.17 135.48c-2.79 1.31-6.018.212-7.221-2.457-1.18-2.62.048-5.715 2.777-7 2.837-1.335 5.973-.266 7.195 2.454 1.19 2.646-.018 5.72-2.75 7.003" id="Fill-46" fill="#FEFEFE" mask="url(#mask-32)"/></g><g id="Group-51"><mask id="mask-34" fill="#fff"><use xlink:href="#path-33"/></mask><path d="M167.122 106.625c-.784-1.805.057-3.825 1.937-4.654 1.861-.82 3.927-.052 4.703 1.75.762 1.77-.118 3.912-1.93 4.697-1.831.793-3.936-.008-4.71-1.793" id="Fill-49" fill="#FEFEFE" mask="url(#mask-34)"/></g><g id="Group-54"><mask id="mask-36" fill="#fff"><use xlink:href="#path-35"/></mask><path d="M206.268 86.72c-1.875.866-3.907.16-4.73-1.645-.802-1.76.022-3.908 1.815-4.733 1.752-.806 4.045-.012 4.817 1.668.79 1.719-.077 3.867-1.902 4.71" id="Fill-52" fill="#FEFEFE" mask="url(#mask-36)"/></g><g id="Group-57"><mask id="mask-38" fill="#fff"><use xlink:href="#path-37"/></mask><path d="M147.117 97.296c.733.392 1.839.624 2.091 1.223.227.54-.266 1.738-.824 2.186-.91.732-2.003.26-2.331-.724-.218-.658.206-1.54.343-2.32l.72-.365z" id="Fill-55" fill="#FEFEFE" mask="url(#mask-38)"/></g><g id="Group-60"><mask id="mask-40" fill="#fff"><use xlink:href="#path-39"/></mask><path d="M280.917 128.753c0 16.248-13.093 29.418-29.244 29.418-16.152 0-29.245-13.17-29.245-29.418 0-16.247 13.093-29.417 29.245-29.417 16.15 0 29.244 13.17 29.244 29.417" id="Fill-58" fill="#FEFEFE" mask="url(#mask-40)"/></g><g id="Group-63"><mask id="mask-42" fill="#fff"><use xlink:href="#path-41"/></mask><path d="M257.758 126.498c1.018-.011 1.814-.827 1.765-1.86-.051-1.09-.696-1.665-1.73-1.75-.961-.08-1.859.824-1.87 1.788-.012.984.844 1.833 1.835 1.822m-5.172-3.624c-.996.038-1.775.9-1.73 1.911.045 1.007.917 1.82 1.912 1.703 1.043-.122 1.64-.763 1.674-1.82.03-.977-.9-1.832-1.856-1.794m10.3 3.633c1.007-.023 1.819-.88 1.776-1.876-.044-1.008-.908-1.837-1.896-1.743-1.052.102-1.653.727-1.698 1.794-.041.999.837 1.846 1.818 1.825m4.566 11.195c-2.357.424-4.215-.312-5.837-1.574-1.168-.91-2.366-1.194-3.809-1.165-5.497.11-10.186-3.124-11.53-7.839-1.288-4.514.662-9.097 4.955-11.646 6.111-3.628 14.478-1.247 17.146 4.95 1.6 3.716 1.031 7.238-1.495 10.357-2.4 2.964-2.437 3.607.155 6.337.117.124.201.279.415.58" id="Fill-61" fill="#E46E7D" mask="url(#mask-42)"/></g><g id="Group-66"><mask id="mask-44" fill="#fff"><use xlink:href="#path-43"/></mask><path d="M254.25 137.439c-1.585 1.538-3.32 2.623-5.317 2.885-3.378.444-6.718.722-9.635 2.852-.776.568-2.09.395-3.156.562-.06-.114-.12-.228-.182-.342.483-.558.993-1.096 1.443-1.68 1.187-1.54 1.17-2.902-.1-4.203-2.962-3.031-4.036-6.58-2.597-10.618 1.5-4.205 4.798-6.304 9.287-7.25-.573 1.684-.284 3.316-2.315 4.23-3.144 1.414-4.588 4.684-3.904 7.753.705 3.173 3.672 5.722 7.142 5.875 1.38.06 2.885-.11 4.142-.635 1.262-.528 2.294-.623 3.473-.018.475.244 1.018.354 1.72.589" id="Fill-64" fill="#E46E7D" mask="url(#mask-44)"/></g><g id="Group-69"><mask id="mask-46" fill="#fff"><use xlink:href="#path-45"/></mask><path d="M262.886 126.507c-.98.021-1.86-.826-1.818-1.825.044-1.067.646-1.692 1.698-1.793.988-.095 1.852.734 1.896 1.742.043.996-.769 1.853-1.776 1.876" id="Fill-67" fill="#FEFEFE" mask="url(#mask-46)"/></g><g id="Group-72"><mask id="mask-48" fill="#fff"><use xlink:href="#path-47"/></mask><path d="M252.587 122.874c.955-.038 1.884.817 1.854 1.793-.032 1.058-.63 1.699-1.673 1.82-.995.117-1.867-.695-1.912-1.702-.045-1.011.735-1.873 1.73-1.911" id="Fill-70" fill="#FEFEFE" mask="url(#mask-48)"/></g><g id="Group-75"><mask id="mask-50" fill="#fff"><use xlink:href="#path-49"/></mask><path d="M257.758 126.498c-.99.011-1.847-.838-1.834-1.822.01-.964.908-1.867 1.868-1.788 1.035.085 1.68.66 1.731 1.75.049 1.033-.747 1.849-1.765 1.86" id="Fill-73" fill="#FEFEFE" mask="url(#mask-50)"/></g></g><g id="Group-135" transform="translate(31.35)"><path d="M225.072 22.253c.363-1.519.868-3.13 1.116-4.78.472-3.139.969-6.291 1.127-9.454.111-2.245-.567-2.801-2.75-2.758-2.209.043-4.434.203-6.614.553-2.595.416-5.148 1.088-7.621 1.63l14.742 14.81m-77.653 67.368l16.566 18.127 6.894-4.465-18.008-19.467-5.452 5.805m1.752-9.582c-6.308-5.877-12.705-11.836-19.258-17.943-1.67 2.62-3.145 4.93-4.436 6.954l18.06 16.683 5.634-5.694m-5.223 13.27L127.8 109.529c2.532 2.568 5.163 5.271 7.847 7.919.328.323.98.572 1.412.488 2.97-.573 5.97-1.075 8.866-1.922 4.591-1.344 8.97-3.267 13.502-5.745-5.277-5.782-10.439-11.436-15.48-16.957m-21.052-19.692c-3.779 7.301-6.555 14.51-7.562 22.318-.053.415-.045 1.011.2 1.266 2.73 2.84 5.512 5.63 8.287 8.44l16.071-16.398-16.996-15.626M89.12 80.091l.286.437c.487.072.972.17 1.462.21 7.227.602 14.457 1.173 21.68 1.824.888.08 1.084-.327 1.32-.958 2.841-7.631 6.709-14.725 11.358-21.374 2.913-4.164 6.059-8.164 9.145-12.297-2.484-.594-5.043-.484-7.59-.176-4.603.557-8.462 2.826-12.084 5.552-6.562 4.937-12.414 10.673-17.912 16.743C93.97 73.16 91.66 76.73 89.12 80.09m63.46 64.332c2.575-1.808 4.96-3.3 7.145-5.047 7.06-5.645 13.157-12.27 18.83-19.287 3.136-3.879 5.797-8.063 6.54-13.15.395-2.688.354-5.39-.163-8.159-.268.136-.402.174-.498.256-9.997 8.552-20.765 15.838-33.127 20.541-.337.129-.703.777-.682 1.163.133 2.547.357 5.09.572 7.632.443 5.217.898 10.434 1.382 16.05m-19.828-86.628l20.245 18.878c.606-.652 1.264-1.4 1.962-2.105 2.145-2.165 4.28-4.34 6.47-6.458 1.093-1.057 2.571-1.02 3.538-.05.928.934.947 2.5-.009 3.586-.6.68-1.263 1.308-1.91 1.947-2.247 2.222-4.5 4.44-6.62 6.53l18.53 20.109c8.217-6.378 15.91-13.552 22.337-22.02 10.91-14.378 18.953-30.294 25.093-47.24.57-1.57.37-2.672-.587-3.97-3.339-4.53-7.232-8.537-11.357-12.317-1.767-1.619-3.77-2.977-5.67-4.451-.748-.581-1.504-.59-2.41-.268-10.132 3.602-19.879 8.048-29.22 13.388-10.04 5.74-19.576 12.212-27.74 20.483-4.455 4.515-8.541 9.399-12.652 13.958m-21.126 29.767c-1.539-.15-3.104-.326-4.673-.455-7.048-.58-14.098-1.14-21.145-1.72-2.776-.228-3.73-1.876-2.54-4.41 3.395-7.236 8.288-13.39 14.015-18.832 4.969-4.723 10.132-9.257 15.419-13.617 3.525-2.909 7.654-4.848 12.222-5.638 4.074-.704 8.138-.375 12.176.276 1.151.185 1.898-.016 2.725-.884 9.482-9.934 20.711-17.517 32.603-24.157C184.325 11.48 196.718 5.98 209.89 2.38c4.604-1.258 9.269-2.118 14.063-2.087.227.002.454.004.68.012 5.107.174 7.532 2.6 7.679 7.741.148 5.204-.928 10.238-2.32 15.196-5.927 21.12-15.432 40.49-28.619 57.965-3.33 4.412-7.36 8.287-11.017 12.456-.412.47-.778 1.308-.662 1.869 2.177 10.469-.388 19.665-7.207 27.756-6.902 8.189-13.998 16.195-22.815 22.392-2.51 1.763-5.248 3.227-7.985 4.623-2.053 1.048-3.597.131-3.825-2.162-.489-4.943-.873-9.896-1.288-14.846-.305-3.634-.59-7.268-.892-10.902-.021-.257-.116-.51-.16-.698-2.8.473-5.519.888-8.217 1.402-1.938.37-3.454-.058-4.852-1.577-2.679-2.91-5.527-5.664-8.445-8.623-1.341 1.345-2.58 2.652-3.896 3.875-.544.506-1.204 1.016-1.896 1.197-1.097.286-2.068-.172-2.631-1.214-.598-1.105-.337-2.159.49-3.005 1.398-1.43 2.868-2.787 4.392-4.256-.44-.48-.723-.811-1.03-1.12-2.628-2.647-5.236-5.318-7.908-7.921-1.14-1.113-1.615-2.319-1.33-3.92.52-2.906.933-5.829 1.426-8.972" id="Fill-77" fill="#3B5874"/><path d="M112.51 123.768c-.378.53-.825 1.374-1.468 2.026-5.617 5.697-11.27 11.36-16.911 17.032-5.963 5.996-11.92 11.997-17.899 17.975a7.25 7.25 0 0 1-1.84 1.335c-1.037.522-1.983.12-2.665-.71-.726-.884-.813-1.911-.173-2.912.219-.34.507-.643.794-.931 11.762-11.833 23.528-23.662 35.29-35.493.868-.872 1.79-1.561 3.116-1.085 1.115.4 1.596 1.264 1.756 2.763" id="Fill-79" fill="#E46E7D"/><path d="M114.902 135.076c-.52.917-.755 1.642-1.232 2.125a4399.141 4399.141 0 0 1-19.924 20.01c-1.298 1.296-2.803 1.358-3.874.305-1.08-1.062-.983-2.535.322-3.853 6.562-6.621 13.142-13.224 19.7-19.85.91-.921 1.983-1.516 3.14-.866.761.427 1.234 1.375 1.868 2.129" id="Fill-81" fill="#E46E7D"/><path d="M100.791 121.315c-.379.64-.648 1.39-1.154 1.904a4834.075 4834.075 0 0 1-19.9 20.048c-1.173 1.176-2.761 1.226-3.76.225-1.08-1.083-1.025-2.605.225-3.867 6.565-6.623 13.149-13.227 19.717-19.847.92-.928 1.986-1.296 3.21-.833.978.37 1.481 1.16 1.662 2.37" id="Fill-83" fill="#E46E7D"/><path d="M107.766 150.78c.487-.824.723-1.485 1.17-1.937 6.67-6.755 13.36-13.49 20.065-20.21 1.205-1.207 2.685-1.24 3.726-.196 1.054 1.058 1.035 2.483-.208 3.76-2.945 3.03-5.944 6.005-8.921 9-3.586 3.61-7.168 7.223-10.762 10.823-1.332 1.334-2.36 1.64-3.448.819-.653-.492-1.057-1.318-1.622-2.059" id="Fill-85" fill="#E46E7D"/><path d="M103.05 99.529c.785.637 1.73 1.05 2.027 1.743.3.703.006 1.69-.126 2.538-.04.261-.392.482-.616.707-6.436 6.48-12.86 12.977-19.341 19.412-.617.613-1.59 1.158-2.422 1.197-1.894.09-2.967-2.091-1.95-3.713.215-.343.493-.653.78-.942 6.437-6.48 12.87-12.964 19.338-19.414.572-.572 1.369-.917 2.31-1.528" id="Fill-87" fill="#E46E7D"/><path d="M152.58 144.423c-.485-5.618-.94-10.834-1.383-16.052-.215-2.541-.44-5.084-.573-7.63-.02-.387.346-1.035.683-1.164 12.362-4.703 23.13-11.99 33.127-20.541.096-.082.23-.12.498-.256.517 2.769.558 5.471.164 8.159-.744 5.088-3.405 9.272-6.54 13.15-5.674 7.018-11.77 13.641-18.831 19.287-2.185 1.746-4.57 3.24-7.146 5.047" id="Fill-89" fill="#F79D61"/><path d="M89.12 80.09c2.539-3.36 4.85-6.93 7.665-10.039 5.498-6.07 11.35-11.805 17.912-16.743 3.622-2.725 7.48-4.994 12.085-5.55 2.546-.31 5.105-.42 7.589.174-3.086 4.134-6.232 8.134-9.144 12.298-4.65 6.649-8.517 13.743-11.36 21.374-.235.63-.432 1.038-1.32.958-7.222-.652-14.452-1.222-21.68-1.823-.489-.041-.974-.14-1.46-.211l-.287-.437" id="Fill-91" fill="#F79D61"/><path d="M122.896 73.62c5.83 5.358 11.496 10.568 16.997 15.625l-16.072 16.398c-2.775-2.81-5.557-5.6-8.287-8.44-.244-.255-.253-.851-.2-1.266 1.007-7.808 3.784-15.017 7.562-22.318" id="Fill-93" fill="#E46E7D"/><path d="M143.948 93.31c5.04 5.523 10.203 11.176 15.48 16.958-4.533 2.478-8.911 4.401-13.502 5.745-2.897.847-5.897 1.349-8.866 1.922-.432.084-1.085-.165-1.412-.488-2.684-2.648-5.315-5.35-7.847-7.919l16.147-16.217" id="Fill-95" fill="#E46E7D"/><path d="M149.17 80.04l-5.632 5.694-18.06-16.683 4.435-6.954L149.17 80.04" id="Fill-97" fill="#E46E7D"/><path d="M147.419 89.622l5.452-5.806 18.008 19.468-6.894 4.465-16.566-18.127" id="Fill-99" fill="#E46E7D"/><path d="M221.8 27.002c-3.34-4.53-7.232-8.538-11.357-12.317-1.767-1.62-3.771-2.978-5.67-4.452-.748-.581-1.504-.589-2.41-.267-10.132 3.6-19.879 8.047-29.22 13.387-10.04 5.74-19.575 12.211-27.74 20.483-4.455 4.515-8.541 9.399-12.652 13.958l20.245 18.878c.606-.652 1.263-1.4 1.963-2.105 2.144-2.165 4.28-4.34 6.47-6.458 1.092-1.057 2.57-1.02 3.536-.049.929.933.948 2.499-.007 3.584-.6.682-1.264 1.309-1.91 1.948-2.248 2.223-4.501 4.44-6.621 6.53l18.53 20.11c8.218-6.38 15.91-13.553 22.337-22.02 10.91-14.378 18.953-30.294 25.093-47.241.569-1.57.37-2.671-.587-3.97" id="Fill-101" fill="#EAD062"/><path d="M206.447 37.178c3.73 5.86 3.833 18.63-5.097 26.964-8.751 8.168-22.322 8.438-31.372.582-9.11-7.908-10.763-21.52-3.82-31.457 6.508-9.317 19.564-12.885 28.71-7.849-1.475 2.907-2.819 3.573-5.934 2.945-9.75-1.967-19.571 4.391-21.797 14.11-2.3 10.034 3.646 20.022 13.465 22.618 9.733 2.575 20.072-3.174 22.604-12.905.726-2.786.689-5.894.405-8.794-.349-3.563-.411-4.005 2.836-6.214" id="Fill-103" fill="#E46E7D"/><path d="M200.056 47.25c.048 8.195-6.651 15.027-14.762 15.055-8.339.027-14.984-6.673-15.015-15.145-.03-8.19 6.641-14.89 14.857-14.918 8.271-.029 14.871 6.61 14.92 15.008" id="Fill-105" fill="#FEFEFE"/><path d="M176.922 54.555l1.885-1.79c-1.004-1.106-1.725-2.553-1.875-3.653l1.672-.736c.189 1.1.75 2.415 1.738 3.466 1.25 1.331 2.864 1.505 3.928.495 1.026-.975.974-2.31.228-4.23-1.05-2.624-1.302-4.623.321-6.165 1.549-1.47 3.765-1.482 5.667-.02l1.887-1.792 1.094 1.165-1.812 1.72c1.022 1.162 1.444 2.215 1.64 3.06l-1.674.701a6.264 6.264 0 0 0-1.586-2.968c-1.358-1.445-2.728-1.174-3.476-.464-.97.92-.805 2.077.058 4.349 1.034 2.676.979 4.574-.683 6.152-1.475 1.4-3.825 1.681-5.959.049l-1.942 1.844-1.11-1.183z" id="Fill-107" fill="#E46E7D"/><path d="M207.638 19.857c-.016 2.528 1.169 3.887 4.153 3.837-1.13 1.158-1.933 1.914-2.661 2.737-2.383 2.69-5.064 4.955-8.443 6.308-.57.228-1.077.687-1.529 1.128-1.696 1.654-3.32 3.384-5.062 4.986-.348.32-1.094.203-1.657.287.029-.612-.18-1.42.13-1.798 1.027-1.257 2.19-2.415 3.396-3.506 1.674-1.513 2.899-3.281 3.883-5.33.728-1.517 1.857-2.875 2.972-4.16 1.379-1.589 2.927-3.03 4.403-4.534l.415.045z" id="Fill-109" fill="#E46E7D"/><path d="M40.261 137.862c0 11.119-8.965 20.133-20.023 20.133S.215 148.98.215 137.862c0-11.12 8.965-20.133 20.023-20.133s20.023 9.014 20.023 20.133" id="Fill-111" fill="#FEFEFE"/><path d="M26.134 148.501c-3.113-.05-4.5-1.389-4.918-4.434-.123-.898-.714-1.756-1.187-2.576-.98-1.702-2.231-3.277-2.995-5.066-1.355-3.172-1.43-6.417.56-9.434 1.909-2.892 5.67-4.22 9.02-3.264 3.183.908 5.565 3.952 5.767 7.362.047.787-.21 1.404-1.039 1.539-.814.133-1.3-.315-1.48-1.105-.101-.438-.166-.886-.284-1.32-.756-2.768-2.783-4.303-5.52-4.19-2.593.107-4.72 1.996-5.215 4.658-.501 2.696.398 5.052 1.825 7.258.525.811 1.118 1.579 1.684 2.363.86 1.192 1.53 2.422 1.525 3.986-.004 1.231.744 1.68 2.36 1.673 1.273-.004 1.586-.307 1.708-1.67.034-.38-.09-.855.094-1.12.3-.427.797-.991 1.206-.987.412.004 1.086.569 1.184.995.716 3.122-1.149 5.383-4.295 5.332" id="Fill-113" fill="#E46E7D"/><path d="M27.862 134.37c-1.078-.083-1.689.163-1.986.965-.315.852.025 1.912.797 2.36.593.344 1.292.532 1.824.944.292.226.338.775.495 1.177-.378-.057-.773-.06-1.126-.184-.484-.17-.937-.43-1.401-.656-1.439-.698-2.123-1.953-1.888-3.451.232-1.478 1.052-2.2 2.762-2.448.194-.028.383-.093.564-.139-.19-1.496-1.438-2.545-2.846-2.448-1.45.099-2.779 1.45-2.563 2.966.174 1.226.8 2.387 1.228 3.577.188.525 1.13 1.045.384 1.567-.778.545-1.098-.43-1.42-.925-.88-1.35-1.523-2.807-1.455-4.469.093-2.29 2.02-4.054 4.229-3.912 2.266.146 4.045 2.086 3.728 4.346-.129.915-.81 1.766-1.323 2.595-.09.146-.585.04-.892.05.02-.28-.033-.596.079-.832.154-.327.432-.593.81-1.083" id="Fill-115" fill="#E46E7D"/><path d="M16.199 142.318c-.05 2.056-.877 4.314-2.594 6.222-.524.582-1.127 1.048-1.849.365-.663-.628-.303-1.221.192-1.806 2.809-3.312 2.808-7.407-.002-10.788-.489-.589-.852-1.186-.186-1.81.727-.68 1.314-.196 1.846.381 1.676 1.819 2.617 4.32 2.593 7.436" id="Fill-117" fill="#E46E7D"/><path d="M12.066 141.731c.013 1.514-.496 2.839-1.456 3.993-.384.462-.912.838-1.368.286-.2-.24-.079-.985.157-1.31 1.428-1.976 1.41-3.987-.048-6.02-.226-.314-.087-.89-.117-1.347.446.105 1.025.068 1.314.341 1.006.948 1.52 2.498 1.518 4.057" id="Fill-119" fill="#E46E7D"/><path d="M8.937 141.708c-.36.782-.645 1.508-1.031 2.175-.098.169-.515.15-.785.217.002-.275-.106-.628.023-.813.751-1.075.743-2.096-.006-3.167-.129-.186-.02-.538-.022-.813.269.069.683.052.78.22.388.668.676 1.393 1.04 2.181" id="Fill-121" fill="#E46E7D"/><path d="M100.3 40.13c0 16.202-13.063 29.336-29.176 29.336-16.114 0-29.176-13.134-29.176-29.336 0-16.201 13.062-29.335 29.176-29.335 16.113 0 29.176 13.134 29.176 29.335" id="Fill-123" fill="#FEFEFE"/><path d="M90.319 44.645l-6.615 2.752-9.296-22.585 6.615-2.753 9.296 22.586" id="Fill-125" fill="#E46E7D"/><path d="M80.826 48.594l-6.62 2.754-6.504-15.802 6.62-2.754 6.504 15.802" id="Fill-127" fill="#E46E7D"/><path d="M62.679 58.602l.402-.168L90.873 46.87c.116-.048.23-.1.349-.141.384-.135.752.018.918.377.164.354.045.738-.304.948-.125.076-.259.137-.394.193-9.525 3.964-19.05 7.928-28.575 11.89a2.941 2.941 0 0 1-.415.141.692.692 0 0 1-.816-.367c-.113-.224-.204-.46-.3-.694L49.655 30.836c-.055-.136-.114-.272-.157-.412a.721.721 0 0 1 .422-.903c.359-.147.75 0 .93.356.06.12.11.25.161.376L62.5 58.167l.179.435" id="Fill-129" fill="#E46E7D"/><path d="M64.718 55.296c-1.345-3.27-2.68-6.511-4.022-9.77l6.621-2.756 4.022 9.771c-2.21.919-4.4 1.83-6.62 2.755" id="Fill-131" fill="#E46E7D"/><path d="M67.43 25.086c-.065.15-.132.299-.194.45-2.191 5.325-4.383 10.65-6.573 15.977-.119.291-.254.543-.589.64-.502.143-.998-.26-.927-.782.022-.163.086-.324.15-.479 2.215-5.37 4.433-10.74 6.65-16.11.038-.093.07-.188.136-.364l-.347.145c-.841.35-1.68.705-2.524 1.048-.547.221-.953.056-1.119-.432a.702.702 0 0 1 .266-.805c.102-.07.214-.133.329-.181 1.43-.598 2.857-1.2 4.294-1.78.22-.088.499-.136.72-.08.18.044.38.243.456.423.658 1.547 1.293 3.105 1.93 4.661.171.42.025.811-.349.984-.402.185-.8.053-.987-.377-.378-.867-.728-1.746-1.09-2.62l-.129-.314-.104-.004" id="Fill-133" fill="#E46E7D"/></g></g></g></g></g></g></g></svg>