<svg width="308px" height="315px" xmlns="http://www.w3.org/2000/svg" xmlns:xlink="http://www.w3.org/1999/xlink"><defs><path id="path-1" d="M.19.246h264.753V149.33H.19z"/><path id="path-3" d="M.205.563h14.58v18.275H.204z"/></defs><g id="Page-1" fill="none" fill-rule="evenodd"><g id="Desktop-HD" transform="translate(-546 -2916)"><g id="Agile-icon" transform="translate(546 2916)"><path d="M175.566 315c67.45 0 123.117-50.447 131.331-115.67H44.235C52.45 264.553 108.115 315 175.566 315" id="Fill-1" fill="#3D5875"/><g id="Group-5" transform="translate(43 50)"><mask id="mask-2" fill="#fff"><use xlink:href="#path-1"/></mask><path d="M132.567.246C59.457.246.19 59.514.19 132.623c0 5.66.356 11.234 1.046 16.707h262.662a133.701 133.701 0 0 0 1.046-16.707C264.944 59.514 205.676.246 132.567.246" id="Fill-3" fill="#4E0C30" mask="url(#mask-2)"/></g><path id="Fill-6" fill="#FEFEFE" d="M117.151 142.314l8.302-.783-8.362 2.29.616 8.646-1.928-8.106-9.008.36 8.416-2.202-.67-8.734z"/><path id="Fill-8" fill="#FEFEFE" d="M119.411 91.686l8.302-.783-8.362 2.288.616 8.647-1.928-8.104-9.008.359 8.416-2.203-.67-8.733z"/><path id="Fill-10" fill="#FEFEFE" d="M87.413 110.525l6.094-.574-6.138 1.68.452 6.347-1.416-5.95-6.612.265 6.178-1.618-.492-6.41z"/><path id="Fill-12" fill="#FEFEFE" d="M68.788 147.31l6.094-.576-6.14 1.68.453 6.349-1.415-5.95-6.613.264 6.179-1.618-.493-6.41z"/><path id="Fill-14" fill="#FEFEFE" d="M87.254 135.393l3.159-.298-3.182.871.234 3.292-.733-3.085-3.43.137 3.204-.839-.255-3.323z"/><path id="Fill-16" fill="#FEFEFE" d="M166.984 114.952l3.16-.298-3.182.871.234 3.292-.734-3.086-3.429.138 3.203-.839-.255-3.324z"/><path id="Fill-18" fill="#FEFEFE" d="M108.91 173.15l3.16-.298-3.182.871.234 3.291-.734-3.085-3.429.137 3.204-.838-.256-3.324z"/><path id="Fill-20" fill="#FEFEFE" d="M143.956 119.26l3.159-.298-3.182.87.234 3.293-.733-3.086-3.43.138 3.204-.84-.255-3.323z"/><path id="Fill-22" fill="#FEFEFE" d="M214.68 133.135l2.178 8.049-3.673-7.853-8.417 2.074 7.661-3.275-1.882-8.817 3.597 7.922 8.493-2.143z"/><path id="Fill-24" fill="#FEFEFE" d="M264.958 126.776l2.18 8.048-3.674-7.852-8.418 2.073 7.662-3.275-1.883-8.816 3.598 7.921 8.493-2.142z"/><path id="Fill-26" fill="#FEFEFE" d="M240.965 98.436l1.6 5.908-2.698-5.763-6.178 1.52 5.624-2.403-1.382-6.472 2.64 5.814 6.236-1.572z"/><path id="Fill-28" fill="#FEFEFE" d="M201.554 86.318l1.6 5.91-2.696-5.765-6.18 1.521 5.626-2.403-1.382-6.473 2.64 5.814 6.236-1.572z"/><path id="Fill-30" fill="#FEFEFE" d="M216.43 102.496l.828 3.063-1.398-2.988-3.203.79 2.916-1.248-.716-3.355 1.369 3.014 3.232-.814z"/><path id="Fill-32" fill="#FEFEFE" d="M250.096 177.605l.83 3.063-1.398-2.988-3.204.79 2.916-1.248-.716-3.355 1.369 3.014 3.232-.814z"/><path id="Fill-34" fill="#FEFEFE" d="M182.892 130.242l.83 3.063-1.399-2.988-3.203.79 2.916-1.247-.717-3.356 1.37 3.014 3.232-.814z"/><path id="Fill-36" fill="#FEFEFE" d="M241.945 155.642l.83 3.063-1.398-2.99-3.204.79 2.916-1.246-.717-3.356 1.37 3.015 3.232-.815z"/><path d="M89.796 120.976c8.044-2.85 16.007-3.21 23.746.962 8.622 4.648 13.613 11.96 14.947 21.577.364 2.613 1.013 4.325 3.637 4.95.587.945.253 1.674-.53 2.3-2.046.79-3.784-.4-5.553-1.015-1.95-.676-2.891-.144-3.47 1.764-.746 2.467-1.56 4.92-2.517 7.317-.742 1.858-.498 3.194 1.59 3.896.68.229 1.337.66 1.45 1.518-9.38 10.194-21.39 13.46-32.78 8.952-5.552-2.2-9.72-6.067-13.184-10.802-3.528-6.133-5.361-12.65-4.244-19.76 1.458-9.275 6.569-15.97 14.728-20.442.73-.4 1.453-.811 2.18-1.217" id="Fill-38" fill="#E46E7D"/><path d="M131.16 150.615l-4.731 14.792-3.332-1.163c-5.475-1.854-5.461-1.849-3.446-7.36.861-2.352 1.696-4.715 2.449-7.102.474-1.499 1.1-2.195 2.798-1.453 2.033.887 4.17 1.534 6.262 2.286" id="Fill-40" fill="#EAD063"/><path d="M113.252 162.041c-.36 2.865-1.77 3.163-4.282 2.135-3.771-1.542-7.708-2.673-11.536-4.081-3.91-1.437-5.42-4.491-4.196-8.412.883-2.83 1.896-5.621 2.852-8.429 1.904-3.122 3.662-4.119 7.066-3.313 4.682 1.111 9.169 2.891 13.674 4.573.984.367 1.8 1.012 1.578 2.289l-5.156 15.238" id="Fill-42" fill="#EAD063"/><path d="M110.382 125.992c-9.138-4.138-17.773-2.94-25.43 3.811-6.208 6.313-8.806 13.728-6.865 22.526 2.277 10.894 12.853 18.65 24.316 17.882 5.305-.356 9.908-2.338 13.86-5.839.555-.49 1.965-1.24.55-2.07-.981-.579-2.293-1.474-3.561-.26-1.413.74-2.59 1.731-4.525.925-3.338-1.392-6.857-2.354-10.27-3.576-3.884-1.389-5.167-3.957-4.023-7.885.779-2.678 1.756-5.295 2.57-7.962.207-.807.278-1.644.562-2.434 1.932-5.377 4.346-6.545 9.82-4.764 2.996.976 5.977 2.002 9.002 2.892 1.716.505 3.156 1.144 2.619 3.417-.136.577-.087 1.331.734 1.595 1.415-.185 2.54 1.153 4.183.74-.836-8.99-5.514-15.36-13.542-18.998" id="Fill-44" fill="#4E0C30"/><path d="M180.636 282.65c.749.01 1.046.27.543.977l-.543-.978" id="Fill-46" fill="#998DB4"/><path d="M154.422 126.832a3.728 3.728 0 0 0 1.687-1.646c5.075-4.063 10.015-8.269 15.682-11.57 9.2-5.358 19.02-8.855 29.477-10.671 1.148-1.032 2.508-1.622 4.039-1.567 3.36.118 6.812-1.466 10.075.516 8.18.088 16.219 1.094 24.019 3.665 8.338 3.039 16.388 6.737 23.343 12.288 19.875 15.862 31.088 36.479 32.98 61.924 1.406 18.91-3.152 36.433-13.273 52.422-6.294 9.944-14.474 18.085-24.231 24.775-11.96 8.199-25.071 12.843-39.445 14.101-5.858.513-11.702.119-17.535-.473-17.657-2.744-32.816-10.561-45.587-22.922-13.235-12.811-21.328-28.428-24.484-46.588-1.553-7.97-3.155-9.288-1.22-14.233.084-16.867 4.647-32.396 13.873-46.537.3-.459.516-.971.77-1.46.1-1.017.255-2.009.904-2.862 2.016-2.646 4.039-5.287 6.32-7.717.718-.764 1.54-1.318 2.606-1.445" id="Fill-48" fill="#5BC5CB"/><path d="M201.24 270.596c2.59-.604 5.168.077 7.754.085 13.032.039 25.4-2.596 37.225-8.21 20.96-9.95 35.426-25.873 43.437-47.442 7.074-19.05 7.304-38.493.302-57.63-8.796-24.041-25.152-41.084-48.97-50.782-.613-.25-1.222-.46-1.587-1.058 9.038 2.295 17.112 6.617 24.703 11.895 12.576 8.746 22.03 20.247 28.26 34.12 15.744 35.05 6.56 75.202-21.953 99.632-19.258 16.5-41.652 22.86-66.76 19.947-.814-.094-1.608-.367-2.41-.557" id="Fill-50" fill="#020303"/><path d="M275.51 111.813c-.443-1.014-2.818-.746-1.804-2.731 1.468-2.87 4.265-4.638 6.494-3.532 3.988 1.98 7.773 4.438 10.969 7.54 2.085 2.026 1.072 6.057-1.513 7.551-1.361.787-1.88-.782-2.852-1.096-.75.063-1.543.102-2.16-.344-3.172-2.303-7.094-3.686-9.134-7.388" id="Fill-52" fill="#EAD063"/><path d="M213.11 283.608c1.132.411 3.048-1.16 3.29 1.55.3 3.35-.633 5.995-3.078 6.34-4.126.578-8.31.968-12.473 1-3.165.023-5.337-3.768-4.256-6.846.526-1.494 1.937-.573 2.884-.94.728-.797 1.666-1.143 2.711-1.27 2.862-.348 5.75-.346 8.616-.62.875-.085 1.645.206 2.305.786" id="Fill-54" fill="#EAD063"/><path d="M213.11 283.608l-13.633 1.104c.112-3.057-.199-6.087-.592-9.113 4.791.208 9.52-.42 14.245-1.083-1.409 3.028.026 6.062-.02 9.092" id="Fill-56" fill="#E46E7D"/><path d="M275.51 111.813l11.293 7.733c-1.75 2.456-3.897 4.655-4.927 7.58-3.72-2.91-7.48-5.766-11.564-8.16 2.17-2.066 3.649-4.634 5.198-7.153" id="Fill-58" fill="#E46E7D"/><path d="M228.504 121.335c16.243 3.143 29.446 11.47 39.365 24.484 13.82 18.132 17.485 38.52 11.156 60.434-10.431 36.122-51.44 56.903-86.062 43.814-.346-.13-.672-.31-1.008-.466-8.113-3.644-15.805-8.037-21.776-14.717-16.47-18.427-22.28-39.661-16.232-63.884 3.725-14.917 11.755-27.083 23.743-36.517 14.69-11.562 31.419-15.986 49.979-13.146.277.042.557.023.835-.002" id="Fill-60" fill="#FEFEFE"/><path d="M228.504 121.335c-3.783-.026-7.57-.153-11.351-.06-11.881.295-22.977 3.594-32.94 9.947-13.77 8.78-23.327 20.975-28.278 36.714-4.362 13.862-4.325 27.648.233 41.38 4.449 13.403 12.424 24.324 23.773 32.78 3.806 2.836 8.115 4.836 12.013 7.505-10.621-3.453-19.483-9.662-26.801-17.93-25.903-29.267-22.456-72.61 8.004-97.24 15.66-12.664 33.868-16.875 53.764-13.588.54.09 1.056.325 1.583.492" id="Fill-62" fill="#D8D3E5"/><path d="M211.47 149.071c-9.486 1.31-17.785 4.99-24.283 12.22-.806.896-1.363.895-2.29.091-4.261-3.7-8.573-7.34-12.914-10.944-1.135-.94-1.121-1.608-.146-2.703 5.469-6.14 12.1-10.727 19.524-14.04 5.992-2.674 12.299-4.557 18.988-4.606 1.11.645 1.267 1.79 1.362 2.876.423 4.863.942 9.72 1.137 14.6.042 1.048.22 2.302-1.378 2.506" id="Fill-64" fill="#EAD063"/><path d="M211.47 149.071c.863-2.809.058-5.618-.078-8.412-.19-3.864-.681-7.714-1.043-11.57 14.712-1.279 27.885 2.83 39.794 11.365.37 1.364-.405 2.342-1.192 3.256-2.971 3.456-5.875 6.97-8.872 10.403-.831.953-1.631 2.12-3.22 1.748-7.63-5.375-16.134-7.485-25.39-6.79" id="Fill-66" fill="#F79D61"/><path d="M223.963 171.041c-1.922 2.57-3.98 5.023-6.248 7.298-.9.879-2.066.669-3.154.769-4.957.459-7.958 4.217-7.343 9.206.135 1.095.534 2.171.254 3.302-.97 2.109-2.526 3.778-4.107 5.416-.685.709-1.398 1.489-2.576 1.198-3.686-5.816-5.07-11.917-2.198-18.501 3.927-9 14.165-13.115 23.286-9.399.68.277 1.39.476 2.086.711" id="Fill-68" fill="#D8D3E4"/><path d="M222.974 183.05l6.143-7.27c3.59 5.333 4.922 11.145 2.468 17.186-4.145 10.203-13.431 14.063-23.728 10.248l-1.565-.577c-.398-2.636 1.858-3.777 3.11-5.474.714-.966 1.668-1.696 2.74-2.254.892-.31 1.83-.223 2.75-.296 5.114-.398 8.052-3.757 7.764-8.88-.052-.913-.322-1.851.317-2.682" id="Fill-70" fill="#D8D3E4"/><path d="M246.065 212.578c1.104-.408 2.03-.347 2.914.41 2.6 2.226 5.225 4.421 7.853 6.613 1.173.98 1.56 2.168.572 3.387-1.037 1.28-2.288.921-3.412-.019-2.624-2.196-5.252-4.388-7.849-6.618-1.43-1.228-1.258-2.525-.078-3.773" id="Fill-72" fill="#D9D4E5"/><path d="M185.888 217.311c1.097-.393 1.976-.436 2.779.285.922.826.918 1.992.304 2.8-2.36 3.102-4.833 6.12-7.351 9.095-.675.8-1.723.656-2.573.113-1.018-.65-1.352-1.782-.693-2.67 2.428-3.27 5.01-6.424 7.534-9.623" id="Fill-74" fill="#D9D3E5"/><path d="M172.792 192.212a52.052 52.052 0 0 1-11.69.994c-1.134-.032-1.851-.832-1.757-2.083.085-1.136.58-1.941 1.83-2.061 3.69-.355 7.379-.717 11.069-1.063 1.206-.113 1.924.546 2.296 1.614.447 1.284-.426 1.857-1.748 2.599" id="Fill-76" fill="#D9D3E5"/><path d="M220.068 228.915c.81 1.251.643 2.684.752 4.061.185 2.312.45 4.626.473 6.94.013 1.332-.408 2.673-2.204 2.608-1.484-.053-2.068-.93-2.156-2.361-.212-3.428-.532-6.849-.742-10.276-.07-1.176.266-2.278 1.606-2.595 1.311-.312 1.746.755 2.271 1.623" id="Fill-78" fill="#D9D3E5"/><path d="M268.583 184.692c-3.542.524-7.653 1.165-11.836.841-.893-.07-1.537-.755-1.566-1.7-.036-1.12.48-2.068 1.627-2.287 3.834-.73 7.738-.728 11.619-.887.907-.037 1.813.441 2 1.588.18 1.101-.362 1.76-1.844 2.445" id="Fill-80" fill="#D9D4E5"/><path d="M217.505 178.283c-3.636-1.013-6.816-.137-9.318 2.686-2.75 3.102-2.814 6.651-1.18 10.325l-6.22 6.937c-.776 1.692-1.244 3.39.463 4.8 1.77 1.463 3.45.883 5.043-.394 1.958-2.544 3.88-5.118 6.316-7.245 3.565.934 6.65.091 9.03-2.725 2.4-2.843 2.894-6.052 1.388-9.489l31.505-37.376c1.309-1.54 2.193-3.218.81-5.012-1.477-1.917-3.373-1.603-5.2-.336-4.327 5.222-8.576 10.512-13.283 15.407l-19.354 22.422z" id="Fill-82" fill="#5BC5CB"/><path d="M267.288 111.922c-20.78-14.238-44.01-19.552-68.893-15.106-33.56 5.997-56.376 25.896-69.961 56.47l-2.958 8.072c-.111.837-.115 1.376-.256 1.876-2.361 8.34-3.491 16.842-3.34 25.489.029 1.657-.773 2.357-2.03 3.065-8.462 4.76-16.9 9.569-25.343 14.362l-2.468 1.4 3.993 7.034c17.45-9.904 34.75-19.725 52.012-29.52l-4.058-7.15-13.686 7.77c-.415-25.842 14.41-60.521 52.782-76.296 33.609-13.817 73.488-5.152 97.76 26.143 22.188 28.61 24.843 68.015 3.002 99.424-11.073 15.92-26.142 26.779-44.55 32.672-24.004 7.684-46.928 4.506-68.73-7.99l-4.23 6.662c36.228 22.707 91.576 17.26 122.064-24.35 30.128-41.117 22.683-100.018-21.11-130.027" id="Fill-84" fill="#E46E7D"/><path id="Fill-86" fill="#E46E7D" d="M123.576 229.207L4.742 296.655 0 288.3l118.834-67.448z"/><path id="Fill-88" fill="#E46E7D" d="M186.379 230.559L76.892 292.702l-4.743-8.356 109.488-62.143z"/><path id="Fill-90" fill="#F79D61" d="M156.793 72.95l-1.031-1.64-26.56-6.127-2.715 19.87 1.199 3.084 2.668-20.95z"/><g id="Group-94" transform="translate(160)"><mask id="mask-4" fill="#fff"><use xlink:href="#path-3"/></mask><path d="M6.59 18.838S-.218 16.78.226 15.278c.442-1.502 5.782-13.15 5.782-13.15L12.986.564l1.798 8.016-5.28 7.737-2.914 2.522z" id="Fill-92" fill="#7B421B" mask="url(#mask-4)"/></g><path d="M170.466 26.86c1.13-1.918.532-1.109 1.662-3.026.075-.699-.127-2.299-1.086-2.485-2.384-.459-3.647-1.692-4.83-2.9-.297-.304-.598-.62-.757-1.014-.38-.936.139-1.978.683-2.83.17-.267.419-.568.733-.519.163.025.294.141.416.252.638.586 1.367 1.514 2.133 1.874.02-1.63-.883-3.665-1.292-5.259l-1.121-4.37s1.579-2.694 4.055-2.782c2.475-.088 6.198 4.691 6.198 4.691l3.097 4.763c.429 1.915.237 3.97.775 5.858.308 1.082.058 1.384-1.176 1.59-.892.147-1.412-.037-2.204.476-.474.308-.806.787-1.124 1.254-1.656 2.431-1.586 2.135-3.242 4.566-.106.154-.222.318-.398.383-.171.064-.362.02-.54-.025l-1.982-.498" id="Fill-95" fill="#F3D8BF"/><path d="M172.327 64.863l1.366 6.087-8.365 25.27s-26.589 23.276-26.204 25.685c.384 2.41 1.332 5.938 1.332 5.938l.434 2.243 1.699-.38-.411-7.395 26.795-19.58 10.095-26.594 30.242-4.915 26.082 26.584 5.816-5.359-1.373-1.252-5.656 1.894-22.711-24.066-31.708-1.617-.77-4.818-6.663 2.275z" id="Fill-97" fill="#EAD063"/><path id="Fill-99" fill="#3D5875" d="M173.637 66.129l4.414-1.46.533 2.377-4.347 1.755z"/><path id="Fill-101" fill="#5BC5CB" d="M172.327 64.863l-2.101.331 1.313 5.85-7.324 23.514-24.695 23.905-.396 3.442 26.204-25.686 8.365-25.269z"/><path d="M169.951 25.786l-14.253 3.198-13.199 9.98-1.538 22.334 3.563-.8 1.253-16.656 11.705-6.213 6.05 12.365 3.826 14.27s1.142 1.614 4.969.6c3.827-1.015 6.663-2.276 6.663-2.276s1.022-1.009.621-2.79l-2.565-11.433 3.797-7.4 16.106 14.786 9.464-12.729-2.843-1.545-7.275 9.274-10.444-13.874s-4.671-8.309-10.285-9.7l-5.615-1.39z" id="Fill-103" fill="#5BC5CB"/><path id="Fill-105" fill="#E46E7D" d="M130.353 67.186l-2.668 20.95 28.323 6.51.784-21.697z"/><path id="Fill-107" fill="#BBA185" d="M144.544 66.838l-1.456.13-2.2-2.99 1.488-.611 1.267 1.539z"/><path d="M138.78 69.023s1.358-4.617 6.187-3.946c4.83.671 3.17 6.305 3.17 6.305" id="Stroke-109" stroke="#0B0E16" stroke-width="2.791"/><path id="Fill-111" fill="#E7C6A0" d="M140.96 61.298l3.564-.8 1.654 3.196.217 3.05-2.884.18-.314-1.918z"/><path id="Fill-113" fill="#E7C6A0" d="M204.304 41.828l.226-7.193 2.376-.534.9 4.01-1.394 4.911z"/></g></g></g></svg>