<svg width="315px" height="321px" xmlns="http://www.w3.org/2000/svg"><g id="Page-1" fill="none" fill-rule="evenodd"><g id="Desktop-HD" transform="translate(-543 -2707)"><g id="SECTION-2" transform="translate(-78 1329)"><g id="icons/-AGILE" transform="translate(621 1378)"><g id="icon-agile"><path d="M179.5 321c69.078 0 126.088-51.9 134.5-119H45c8.412 67.1 65.422 119 134.5 119" id="Fill-1" fill="#3D5875"/><path d="M179.5 50C104.665 50 44 110.426 44 184.966c0 5.77.365 11.454 1.07 17.034h268.86a135.7 135.7 0 0 0 1.07-17.034C315 110.426 254.335 50 179.5 50" id="Fill-3" fill="#4E0C30"/><path id="Fill-5" fill="#FEFEFE" d="M118.002 144.218l7.998-.755-8.056 2.205.593 8.332-1.858-7.81-8.679.347 8.11-2.122-.647-8.415z"/><path id="Fill-7" fill="#FEFEFE" d="M120.002 93.218l7.998-.755-8.056 2.205.593 8.332-1.858-7.81-8.679.347 8.11-2.122-.647-8.415z"/><path id="Fill-9" fill="#FEFEFE" d="M89.779 111.392l6.221-.587-6.266 1.715.461 6.48-1.445-6.074-6.75.27 6.307-1.651-.502-6.545z"/><path id="Fill-11" fill="#FEFEFE" d="M70.78 149.392l6.22-.587-6.266 1.715.46 6.48-1.444-6.074-6.75.27 6.307-1.651-.502-6.545z"/><path id="Fill-13" fill="#FEFEFE" d="M88.89 138.196l3.11-.293-3.133.857.231 3.24-.722-3.037-3.376.135 3.154-.825-.251-3.273z"/><path id="Fill-15" fill="#FEFEFE" d="M171.89 116.196l3.11-.294-3.133.858.231 3.24-.722-3.037-3.376.135 3.154-.826-.251-3.272z"/><path id="Fill-17" fill="#FEFEFE" d="M109.89 177.196l3.11-.293-3.133.857.23 3.24-.721-3.037-3.376.135 3.154-.825-.252-3.273z"/><path id="Fill-19" fill="#FEFEFE" d="M145.89 121.196l3.11-.293-3.133.857.231 3.24-.723-3.037-3.375.135 3.154-.825-.252-3.273z"/><path id="Fill-21" fill="#FEFEFE" d="M219.983 134.893l2.195 8.107-3.7-7.909L210 137.18l7.717-3.298L215.82 125l3.624 7.978 8.555-2.157z"/><path id="Fill-23" fill="#FEFEFE" d="M269.983 128.893l2.195 8.107-3.7-7.909L260 131.18l7.717-3.298L265.82 119l3.624 7.978 8.555-2.157z"/><path id="Fill-25" fill="#FEFEFE" d="M246.21 100.145l1.586 5.855-2.672-5.713-6.124 1.509 5.573-2.382L243.204 93l2.617 5.762L252 97.204z"/><path id="Fill-27" fill="#FEFEFE" d="M205.21 87.145L206.797 93l-2.672-5.713L198 88.796l5.574-2.382-1.37-6.414 2.617 5.762L211 84.204z"/><path id="Fill-29" fill="#FEFEFE" d="M220.328 103.298l.732 2.702-1.234-2.636-2.826.696 2.572-1.1-.632-2.96 1.208 2.66 2.852-.72z"/><path id="Fill-31" fill="#FEFEFE" d="M254.328 180.298l.731 2.702-1.233-2.636-2.826.696 2.572-1.1-.632-2.96 1.208 2.66 2.852-.72z"/><path id="Fill-33" fill="#FEFEFE" d="M186.328 131.298l.731 2.702-1.233-2.636-2.826.696 2.572-1.1-.632-2.96 1.208 2.66 2.852-.72z"/><path id="Fill-35" fill="#FEFEFE" d="M246.328 157.298l.731 2.702-1.233-2.636-2.826.696 2.572-1.1-.632-2.96 1.208 2.66 2.852-.72z"/><path d="M91.85 123.22c8.332-2.933 16.578-3.304 24.594.99 8.93 4.784 14.099 12.308 15.48 22.205.376 2.688 1.05 4.45 3.768 5.094.607.971.261 1.722-.55 2.366-2.12.814-3.92-.412-5.751-1.044-2.02-.697-2.994-.149-3.592 1.815-.775 2.539-1.617 5.065-2.61 7.531-.768 1.91-.515 3.286 1.648 4.008.705.236 1.384.68 1.502 1.562-9.715 10.491-22.153 13.854-33.95 9.212-5.751-2.262-10.066-6.242-13.656-11.115-3.654-6.311-5.552-13.018-4.395-20.334 1.51-9.546 6.804-16.435 15.254-21.038.756-.411 1.506-.834 2.258-1.252" id="Fill-37" fill="#E46E7D"/><path d="M134 152.529L129.175 167l-3.398-1.138c-5.583-1.814-5.569-1.808-3.513-7.201.877-2.3 1.729-4.612 2.497-6.947.484-1.466 1.121-2.147 2.854-1.422 2.073.868 4.252 1.502 6.385 2.237" id="Fill-39" fill="#EAD063"/><path d="M115.527 164.33c-.378 2.86-1.864 3.157-4.512 2.131-3.973-1.54-8.123-2.669-12.157-4.074-4.118-1.435-5.711-4.484-4.42-8.399.93-2.825 1.997-5.61 3.003-8.414 2.008-3.118 3.86-4.113 7.448-3.307 4.933 1.108 9.661 2.886 14.409 4.564 1.038.367 1.897 1.011 1.663 2.286l-5.434 15.213" id="Fill-41" fill="#EAD063"/><path d="M113.303 128.412c-9.242-4.168-17.977-2.963-25.72 3.837-6.28 6.36-8.907 13.827-6.944 22.688 2.303 10.973 13 18.784 24.593 18.01 5.367-.358 10.022-2.355 14.018-5.88.562-.496 1.988-1.25.558-2.087-.993-.58-2.32-1.483-3.602-.261-1.429.745-2.62 1.745-4.577.932-3.377-1.401-6.934-2.37-10.387-3.6-3.928-1.4-5.226-3.986-4.07-7.943.79-2.696 1.777-5.332 2.6-8.019.21-.812.282-1.655.569-2.45 1.954-5.417 4.396-6.592 9.932-4.798 3.03.982 6.046 2.015 9.104 2.91 1.736.51 3.193 1.153 2.65 3.443-.138.582-.09 1.34.742 1.607 1.431-.187 2.57 1.16 4.231.743-.846-9.053-5.576-15.47-13.697-19.132" id="Fill-43" fill="#4E0C30"/><path d="M185 288c.945.01 1.32.278.685 1l-.685-1" id="Fill-45" fill="#998DB4"/><path d="M157.983 128.64a3.83 3.83 0 0 0 1.728-1.69c5.198-4.173 10.26-8.492 16.066-11.881 9.426-5.504 19.486-9.094 30.198-10.959 1.177-1.06 2.57-1.665 4.138-1.61 3.443.123 6.98-1.504 10.322.53 8.38.092 16.616 1.124 24.608 3.764 8.542 3.121 16.79 6.918 23.914 12.618 20.362 16.29 31.85 37.461 33.788 63.591 1.44 19.418-3.23 37.413-13.598 53.832-6.448 10.21-14.83 18.571-24.825 25.44-12.252 8.42-25.686 13.19-40.411 14.482-6.001.526-11.987.122-17.964-.487-18.09-2.817-33.62-10.844-46.703-23.538-13.56-13.156-21.851-29.193-25.084-47.841-1.591-8.184-3.232-9.538-1.248-14.616.084-17.32 4.759-33.267 14.211-47.789.307-.47.528-.997.79-1.498.102-1.045.26-2.064.925-2.94 2.065-2.718 4.138-5.429 6.475-7.924.735-.785 1.578-1.354 2.67-1.484" id="Fill-47" fill="#5BC5CB"/><path d="M206 276.725c2.647-.62 5.285.079 7.929.087 13.326.04 25.973-2.67 38.067-8.443 21.433-10.232 36.226-26.607 44.418-48.79 7.234-19.589 7.469-39.585.31-59.265-8.997-24.725-25.722-42.253-50.079-52.225-.626-.256-1.247-.473-1.622-1.089 9.243 2.36 17.5 6.806 25.261 12.234 12.861 8.994 22.527 20.822 28.9 35.09 16.099 36.044 6.707 77.335-22.45 102.46-19.693 16.969-42.594 23.51-68.27 20.514-.832-.098-1.643-.378-2.464-.573" id="Fill-49" fill="#020303"/><path d="M282.071 112.747c-.447-1.037-2.843-.763-1.819-2.794 1.48-2.934 4.302-4.744 6.552-3.612 4.023 2.025 7.841 4.538 11.066 7.713 2.104 2.071 1.083 6.194-1.525 7.723-1.374.805-1.898-.8-2.879-1.122-.756.064-1.557.104-2.178-.353-3.201-2.356-7.158-3.77-9.217-7.555" id="Fill-51" fill="#EAD063"/><path d="M216.679 288.827c1.125.425 3.026-1.198 3.267 1.598.298 3.457-.628 6.187-3.056 6.542-4.098.598-8.252 1.001-12.385 1.033-3.143.024-5.3-3.888-4.226-7.064.521-1.542 1.922-.592 2.863-.969.723-.824 1.655-1.18 2.692-1.311 2.842-.36 5.709-.357 8.556-.641.869-.087 1.633.213 2.289.812" id="Fill-53" fill="#EAD063"/><path d="M217.98 288.916L204.582 290c.11-2.999-.196-5.97-.582-8.937 4.709.203 9.356-.413 14-1.063-1.384 2.97.026 5.944-.02 8.916" id="Fill-55" fill="#E46E7D"/><path d="M281.043 113L292 120.575c-1.697 2.407-3.781 4.56-4.78 7.425-3.61-2.851-7.257-5.648-11.22-7.993 2.106-2.024 3.541-4.54 5.043-7.007" id="Fill-57" fill="#E46E7D"/><path d="M232.416 123.848c16.566 3.201 30.03 11.684 40.147 24.942 14.093 18.47 17.83 39.241 11.377 61.563-10.639 36.798-52.46 57.968-87.77 44.634-.353-.133-.686-.316-1.028-.475-8.275-3.712-16.12-8.187-22.209-14.992-16.797-18.772-22.72-40.402-16.553-65.078 3.798-15.197 11.988-27.59 24.213-37.2 14.983-11.779 32.043-16.285 50.972-13.393.282.043.567.024.85-.001" id="Fill-59" fill="#FEFEFE"/><path d="M234 123.59c-3.891-.028-7.785-.157-11.674-.062-12.22.3-23.631 3.654-33.878 10.113-14.161 8.927-23.991 21.326-29.084 37.328-4.484 14.094-4.447 28.11.241 42.073 4.576 13.627 12.777 24.73 24.45 33.328 3.914 2.883 8.345 4.916 12.356 7.63-10.925-3.51-20.04-9.823-27.565-18.228-26.64-29.757-23.095-73.825 8.232-98.869 16.106-12.875 34.833-17.156 55.293-13.814.556.09 1.087.33 1.629.5" id="Fill-61" fill="#D8D3E5"/><path d="M215.587 151.66c-9.541 1.352-17.889 5.158-24.425 12.633-.81.926-1.37.926-2.303.094a766.45 766.45 0 0 0-12.99-11.314c-1.14-.974-1.126-1.663-.146-2.795 5.502-6.348 12.17-11.09 19.638-14.516 6.027-2.764 12.37-4.71 19.098-4.762 1.118.667 1.275 1.85 1.37 2.973.426 5.028.947 10.05 1.143 15.096.042 1.083.223 2.379-1.385 2.59" id="Fill-63" fill="#EAD063"/><path d="M216.124 150.904c.866-2.905.058-5.81-.078-8.7-.19-3.998-.683-7.979-1.046-11.967 14.752-1.322 27.962 2.926 39.904 11.754.372 1.412-.406 2.423-1.194 3.368-2.98 3.574-5.892 7.209-8.896 10.76-.835.986-1.637 2.192-3.23 1.808-7.652-5.56-16.18-7.743-25.46-7.023" id="Fill-65" fill="#F79D61"/><path d="M228 175.123c-2 2.629-4.14 5.139-6.5 7.465-.936.9-2.151.685-3.282.788-5.159.468-8.28 4.313-7.64 9.416.14 1.12.555 2.221.264 3.378-1.01 2.157-2.628 3.863-4.274 5.54-.712.726-1.454 1.524-2.68 1.226-3.835-5.95-5.275-12.19-2.286-18.926 4.086-9.206 14.738-13.415 24.228-9.614.706.283 1.446.487 2.17.727" id="Fill-67" fill="#D8D3E4"/><path d="M228.615 186.553l6.468-7.553c3.782 5.54 5.184 11.578 2.6 17.854-4.366 10.6-14.144 14.61-24.987 10.647l-1.647-.6c-.42-2.738 1.956-3.924 3.274-5.686.75-1.004 1.756-1.763 2.885-2.341.938-.322 1.926-.233 2.897-.308 5.385-.414 8.478-3.904 8.175-9.226-.054-.95-.338-1.923.335-2.787" id="Fill-69" fill="#D8D3E4"/><path d="M250.952 216.26c1.118-.425 2.055-.36 2.95.43a838.16 838.16 0 0 0 7.949 6.907c1.188 1.023 1.578 2.264.578 3.537-1.05 1.337-2.316.962-3.453-.02-2.656-2.294-5.317-4.584-7.945-6.911-1.448-1.284-1.274-2.638-.08-3.942" id="Fill-71" fill="#D9D4E5"/><path d="M189.299 221.28c1.154-.392 2.081-.436 2.929.284.97.825.967 1.99.319 2.796-2.487 3.096-5.092 6.11-7.745 9.08-.713.799-1.817.656-2.712.115-1.074-.65-1.426-1.78-.731-2.668 2.558-3.265 5.28-6.414 7.94-9.607" id="Fill-73" fill="#D9D3E5"/><path d="M176.173 196.031a52.257 52.257 0 0 1-11.444.949c-1.11-.031-1.813-.794-1.721-1.987.084-1.084.568-1.852 1.793-1.967 3.612-.338 7.222-.684 10.835-1.014 1.18-.107 1.884.52 2.248 1.54.438 1.224-.417 1.772-1.711 2.48" id="Fill-75" fill="#D9D3E5"/><path d="M224.801 232.647c.793 1.227.63 2.632.736 3.983.18 2.269.44 4.538.463 6.81.013 1.306-.399 2.621-2.157 2.558-1.451-.053-2.022-.913-2.109-2.316-.207-3.363-.52-6.72-.725-10.082-.07-1.154.26-2.234 1.57-2.546 1.283-.305 1.71.74 2.222 1.593" id="Fill-77" fill="#D9D3E5"/><path d="M274.157 188.064c-3.477.529-7.512 1.174-11.617.848-.877-.07-1.51-.76-1.538-1.713-.035-1.128.472-2.082 1.597-2.302 3.763-.737 7.595-.734 11.405-.895.89-.038 1.78.445 1.964 1.6.176 1.11-.356 1.772-1.811 2.462" id="Fill-79" fill="#D9D4E5"/><path d="M222.743 180.78c-3.703-1.036-6.944-.14-9.492 2.75-2.8 3.176-2.867 6.809-1.202 10.571l-6.335 7.102c-.792 1.732-1.269 3.47.47 4.915 1.802 1.497 3.516.903 5.138-.404 1.994-2.604 3.952-5.24 6.433-7.417 3.632.956 6.776.094 9.2-2.79 2.445-2.91 2.949-6.196 1.414-9.715l32.095-38.266c1.333-1.577 2.234-3.295.825-5.132-1.505-1.963-3.437-1.64-5.297-.344-4.41 5.346-8.738 10.762-13.532 15.775l-19.717 22.955z" id="Fill-81" fill="#5BC5CB"/><path d="M272.695 113.063c-21.307-14.605-45.127-20.055-70.64-15.495-34.413 6.15-57.807 26.562-71.737 57.923l-3.034 8.278c-.112.86-.117 1.412-.262 1.925-2.42 8.555-3.58 17.275-3.425 26.144.03 1.7-.792 2.418-2.081 3.144-8.677 4.883-17.328 9.815-25.987 14.73L93 211.15l4.094 7.215 53.33-30.28-4.16-7.331-14.033 7.968c-.426-26.506 14.775-62.076 54.121-78.257 34.462-14.172 75.353-5.284 100.24 26.815 22.751 29.345 25.474 69.763 3.077 101.98-11.352 16.33-26.804 27.467-45.678 33.511-24.614 7.882-48.12 4.622-70.473-8.195l-4.338 6.834c37.146 23.29 93.899 17.704 125.16-24.976 30.892-42.175 23.258-102.59-21.645-133.37" id="Fill-83" fill="#E46E7D"/><path id="Fill-85" fill="#E46E7D" d="M126 233.598L4.836 303 0 294.402 121.164 225z"/><path id="Fill-87" fill="#E46E7D" d="M191 235.652L78.858 300 74 291.348 186.142 227z"/><path id="Fill-89" fill="#F79D61" d="M159 73.443l-1.055-1.571L130.777 66 128 85.044 129.227 88l2.728-20.08z"/><path d="M170.57 18s-7.004-2.026-6.549-3.506c.456-1.48 5.95-12.951 5.95-12.951L177.148 0 179 7.895l-5.433 7.62L170.569 18z" id="Fill-91" fill="#7B421B"/><path d="M175.165 26.436c1.135-1.949.534-1.127 1.67-3.075.075-.71-.127-2.337-1.091-2.525-2.395-.466-3.665-1.72-4.853-2.948-.297-.309-.6-.63-.76-1.03-.381-.951.14-2.011.686-2.876.172-.273.42-.578.737-.528.163.025.295.143.417.256.64.596 1.373 1.539 2.143 1.904.02-1.657-.887-3.723-1.298-5.344l-1.126-4.442S173.276 3.09 175.763 3c2.487-.089 6.227 4.768 6.227 4.768l3.11 4.84c.432 1.946.24 4.035.78 5.954.31 1.1.057 1.407-1.182 1.615-.896.15-1.418-.036-2.213.485-.477.313-.81.8-1.13 1.275-1.664 2.47-1.593 2.17-3.257 4.64-.106.157-.223.323-.399.39-.172.064-.364.02-.542-.025l-1.992-.507" id="Fill-93" fill="#F3D8BF"/><path d="M174.83 66.36l1.391 6.312-8.521 26.206s-27.088 24.14-26.696 26.638c.392 2.498 1.358 6.159 1.358 6.159l.442 2.325 1.73-.395-.419-7.668 27.297-20.306 10.284-27.579 30.809-5.097 26.57 27.569L245 94.966l-1.398-1.298-5.763 1.963-23.136-24.958-32.302-1.677-.784-4.996-6.787 2.36z" id="Fill-95" fill="#EAD063"/><path id="Fill-97" fill="#3D5875" d="M177 67.412L181.461 66l.539 2.3-4.393 1.7z"/><path id="Fill-99" fill="#5BC5CB" d="M174.617 66l-2.127.337 1.33 5.948-7.416 23.91-25.002 24.306L141 124l26.531-26.117L176 72.19z"/><path d="M172.676 25l-14.59 3.246-13.512 10.128L143 61.041l3.648-.812 1.282-16.903 11.982-6.307 6.193 12.55 3.916 14.482s1.17 1.64 5.087.61c3.917-1.03 6.82-2.31 6.82-2.31s1.046-1.024.636-2.832l-2.626-11.603 3.887-7.512 16.488 15.008L210 42.494l-2.91-1.568-7.447 9.412-10.69-14.082s-4.783-8.432-10.53-9.844L172.676 25z" id="Fill-101" fill="#5BC5CB"/><path id="Fill-103" fill="#E46E7D" d="M132.75 68L130 90.125 159.191 97 160 74.086z"/><path id="Fill-105" fill="#BBA185" d="M146 67.89l-1.195.11L143 65.51l1.22-.51 1.04 1.282z"/><path d="M141 69.778s1.411-4.347 6.424-3.715c5.013.631 3.29 5.937 3.29 5.937" id="Stroke-107" stroke="#0B0E16" stroke-width="2.791"/><path id="Fill-109" fill="#E7C6A0" d="M143 61.747l3.28-.747 1.52 2.984.2 2.849-2.654.167-.288-1.79z"/><path id="Fill-111" fill="#E7C6A0" d="M209 40.928l.193-6.45 2.036-.478.771 3.595L210.807 42z"/></g></g></g></g></g></svg>