<svg height="25" className="footer__icon" viewBox="0 0 25 25" width="25" xmlns="http://www.w3.org/2000/svg"><g fill="#5bc6cc" fill-rule="evenodd"><path d="m16.77912 13.0193878c0 2.1253124-1.733118 3.8552547-3.8639878 3.8552547s-3.86398779-1.7299423-3.86398779-3.8552547c0-.3524986.04763495-.6946763.13734742-1.0193878h-1.18849183v5.5240656c0 .1960972.15878314.3548803.35488033.3548803h9.11970987c.1968911 0 .3556742-.1587831.3556742-.3548803v-5.5240656h-1.1884918c.0897125.3247115.1373474.6668892.1373474 1.0193878m-1.4234458-2.5971509h1.7172397c.1960972 0 .3556743-.1587832.3556743-.3540865v-1.71406399c0-.19530327-.1595771-.35408641-.3556743-.35408641h-1.7172397c-.1960971 0-.3556742.15878314-.3556742.35408641v1.71406399c0 .1953033.1595771.3540865.3556742.3540865"/><path d="m12.4428787 14.8738486c1.3488628 0 2.4428786-1.0908402 2.4428786-2.4373213 0-1.3456871-1.0940158-2.4365273-2.4428786-2.4365273s-2.4428787 1.0908402-2.4428787 2.4365273c0 1.3464811 1.0940159 2.4373213 2.4428787 2.4373213"/><path d="m18.75 17.2671875c0 .81875-.6648437 1.4828125-1.4859375 1.4828125h-9.528125c-.8203125 0-1.4859375-.6640625-1.4859375-1.4828125v-9.53515625c0-.81875.665625-1.48203125 1.4859375-1.48203125h9.528125c.8210938 0 1.4859375.66328125 1.4859375 1.48203125zm-18.75 7.7328125h25v-25h-25z"/></g></svg>