<svg height="25" className="footer__icon" viewBox="0 0 25 25" width="25" xmlns="http://www.w3.org/2000/svg"><path d="m693.470312 10184.9508c.004688.1101.007813.2203.007813.332 0 3.3883-2.579687 7.2961-7.296875 7.2961-1.448437 0-2.796094-.4242-3.93125-1.1516.200781.0235.404688.0352.611719.0352 1.201562 0 2.307031-.4094 3.185156-1.0977-1.122656-.0203-2.069531-.7617-2.396094-1.7804.157031.0297.317188.0453.482813.0453.233594 0 .460156-.0313.675781-.0899-1.173438-.2351-2.057031-1.2718-2.057031-2.514v-.0328c.345312.1922.741406.3078 1.161718.3211-.688281-.4602-1.141406-1.2453-1.141406-2.1344 0-.4703.126563-.911.347656-1.2899 1.264844 1.5516 3.154688 2.5727 5.285938 2.6797-.04375-.1875-.066406-.3836-.066406-.5843 0-1.4164 1.148437-2.5649 2.564062-2.5649.738281 0 1.404688.3117 1.871875.8102.584375-.1149 1.133594-.3282 1.628907-.6219-.191407.5984-.598438 1.1008-1.127344 1.4187.51875-.0625 1.0125-.2 1.472656-.4039-.34375.5141-.778906.9657-1.279688 1.3274zm-17.470312 15.0492h25v-25h-25z" fill="#5bc6cc" fill-rule="evenodd" transform="translate(-676 -10175)"/></svg>