<svg height="25" class="footer__icon" viewBox="0 0 25 25" width="25" xmlns="http://www.w3.org/2000/svg"><path d="m793.75 10193.7383h-2.589844v-4.0531c0-.9664-.017187-2.2094-1.346094-2.2094-1.347656 0-1.553125 1.0531-1.553125 2.1406v4.1219h-2.5875v-8.3344h2.482813v1.1399h.035938c.345312-.6555 1.190624-1.3469 2.450781-1.3469 2.622656 0 3.107031 1.7258 3.107031 3.9703zm-10.996875-9.4727c-.832031 0-1.503125-.6734-1.503125-1.5023s.671094-1.5024 1.503125-1.5024c.828125 0 1.500781.6735 1.500781 1.5024s-.672656 1.5023-1.500781 1.5023zm1.295312 9.4727h-2.592968v-8.3344h2.592968zm-9.048437 6.2617h25v-25h-25z" fill="#5bc6cc" fill-rule="evenodd" transform="translate(-775 -10175)"/></svg>