<svg height="25" className="footer__icon" viewBox="0 0 25 25" width="25" xmlns="http://www.w3.org/2000/svg"><g fill="#5bc6cc" fill-rule="evenodd"><path d="m15.4608195 14.9840525c-1.6513447-1.0162121-3.7472822-1.2385085-6.16078602-.6986458-.19053978.0635132-.34932292.254053-.28580966.4763494.06351326.1905398.25405303.3493229.47634943.2858097 2.22296405-.5081061 4.09660515-.3175663 5.58916665.6033759.1905398.1270265.4128362.0635133.5398627-.1270265.0952699-.1905398.0635133-.4445928-.1587831-.5398627m.0181736-2.7699019c-1.968911-1.2067519-4.8270076-1.5560748-7.14524147-.8574289-.25405304.0635132-.38107955.3493229-.31756629.6033759.06351325.254053.34932291.3810795.60337594.3175663 2.00066762-.6351326 4.60471122-.3175663 6.31956912.7304024.2222964.1587832.5081061.0635133.6668892-.1587831.1587832-.2222964.0635133-.5398627-.1270265-.6351326"/><path d="m12.5 18.75c-3.4375 0-6.25-2.8125-6.25-6.25s2.8125-6.25 6.25-6.25c3.46875 0 6.25 2.8125 6.25 6.25s-2.8125 6.25-6.25 6.25zm-12.5 6.25h25v-25h-25z"/><path d="m8.40586206 9.39021255c-.28580966.09526988-.47634943.41283617-.38107954.73040245.09526988.2858097.41283617.4763494.73040246.3810796 1.93715432-.60337599 5.33511362-.4763495 7.36753792.7304024.2858096.1587832.6668892.0635133.8256723-.1587831.1587831-.2858097.0635133-.6668892-.2222964-.8256724-2.3499905-1.39729164-6.0655161-1.52431816-8.32023674-.85742895"/></g></svg>