<svg width="196px" className="footer__icon" height="38px" xmlns="http://www.w3.org/2000/svg"><g id="Page-1" fill="none" fill-rule="evenodd"><g id="Desktop-HD" transform="translate(-624 -9987)" fill="#5BC6CC"><g id="information" transform="translate(432 9915)"><g id="hothouse-logo" transform="translate(192 72)"><path id="Fill-1" d="M49 11v18h-4.742v-6.693h-7.54V29H32V11h4.718v6.992h7.54V11z"/><g id="Group-18"><path d="M63.374 24.329c2.787 0 4.925-2.19 4.925-4.943 0-2.751-2.138-4.942-4.925-4.942a4.92 4.92 0 0 0-4.925 4.942 4.92 4.92 0 0 0 4.925 4.943m0-14.384c5.296 0 9.617 4.242 9.617 9.441 0 5.2-4.32 9.442-9.617 9.442-5.227 0-9.618-4.242-9.618-9.442 0-5.199 4.391-9.441 9.618-9.441" id="Fill-2"/><path id="Fill-4" d="M76.107 10.294h15.936v4.523h-5.646V28.48H81.75V14.817h-5.643z"/><path id="Fill-6" d="M113.044 10.294V28.48h-4.646v-6.761h-7.388v6.761h-4.623V10.294h4.623v7.064h7.388v-7.064z"/><path d="M127.262 24.329c2.788 0 4.926-2.19 4.926-4.943 0-2.751-2.138-4.942-4.926-4.942a4.92 4.92 0 0 0-4.924 4.942 4.92 4.92 0 0 0 4.924 4.943m0-14.384c5.297 0 9.617 4.242 9.617 9.441 0 5.2-4.32 9.442-9.617 9.442-5.226 0-9.617-4.242-9.617-9.442 0-5.199 4.39-9.441 9.617-9.441" id="Fill-8"/><path d="M157.882 10.294V20.53c0 4.685-2.928 8.298-8.34 8.298-5.437 0-8.317-3.613-8.317-8.298V10.294h4.647v9.955c0 2.634 1.254 4.08 3.67 4.08 2.439 0 3.716-1.446 3.716-4.08v-9.955h4.624z" id="Fill-10"/><path d="M166.896 23.023v.117c0 .7.952 1.655 3.067 1.655 1.742 0 2.299-.584 2.299-1.119 0-.769-.905-1.235-3.088-1.982-2.881-.955-6.667-2.354-6.667-6.108 0-3.473 2.95-5.641 7.084-5.641 4.229 0 7.41 2.262 7.41 5.875v.256h-4.53v-.163c0-.886-.905-1.935-2.787-1.935-1.58 0-2.206.63-2.206 1.235 0 .723.835 1.097 2.996 1.842 2.508.886 6.784 2.378 6.784 6.364 0 3.544-3.067 5.41-7.201 5.41-4.346 0-7.69-2.03-7.69-5.597v-.209h4.53z" id="Fill-12"/><path id="Fill-14" d="M181.998 10.294h13.915v4.523h-9.27v2.611h7.62v4.22h-7.62v2.33h9.27v4.501h-13.915z"/><path d="M22.314 23.529c.71-1.96.796-3.59.75-4.31l-.003-.044c.002-.069.005-.14.003-.21 0-.11-.004-.22-.007-.33-.001-.03-.001-.063-.003-.093a10.234 10.234 0 0 0-.027-.42l-.01-.087a8.33 8.33 0 0 0-.092-.657l-.014-.063c-.043-.213-.083-.426-.144-.629-.12-.399-.245-.78-.375-1.144a10.827 10.827 0 0 0-.754-1.745 9.871 9.871 0 0 0-1.056-1.62l-.014-.018a10.71 10.71 0 0 0-1.308-1.355c-.352-.324-.723-.639-1.116-.947 0 0 0 .084-.012.235a12.231 12.231 0 0 1-2.038 4.325c-.564.754-1.559 1.727-3.032.882-.852-.49-.893-1.9-.097-2.97.847-1.137 1.597-1.913 1.826-3.864.551-4.69-3.92-7.26-5.194-7.692 0 0 .352 2.14-.814 4.365-1.436 2.738-5.802 5.745-7.177 8.34C.17 16.187-.05 18.614.009 19.543c.286 4.56 1.805 7.13 4.955 9.317.002.001.423-2.29 2.077-4.503a8.025 8.025 0 0 1 .4-.472c.588-.6 1.45-1.077 2.613-.422l.037.022v.001c.045.03.09.06.135.092.702.563.69 1.864-.054 2.864-.849 1.138-1.597 1.915-1.827 3.865C7.793 35 12.267 37.57 13.538 38c0 0-.352-2.14.816-4.366 1.42-2.709 5.71-5.68 7.13-8.258.275-.427.57-1.073.83-1.847" id="Fill-16"/></g></g></g></g></g></svg>